<?xml version="1.0" encoding="UTF-8" standalone="no"?>
<!DOCTYPE svg PUBLIC "-//W3C//DTD SVG 1.1//EN" "http://www.w3.org/Graphics/SVG/1.1/DTD/svg11.dtd">
<svg width="100%" height="100%" viewBox="0 0 137 43" version="1.1" xmlns="http://www.w3.org/2000/svg" xmlns:xlink="http://www.w3.org/1999/xlink" xml:space="preserve" xmlns:serif="http://www.serif.com/" style="fill-rule:evenodd;clip-rule:evenodd;stroke-miterlimit:10;">
    <g transform="matrix(1,0,0,1,65.595,9.11307)">
        <path d="M-56.694,20.357C-56.694,20.357 -56.144,20.26 -55.933,20.222C-55.722,20.184 -55.383,20.123 -55.172,20.083C-54.961,20.043 -54.622,19.978 -54.411,19.936C-54.2,19.894 -53.861,19.824 -53.65,19.781C-53.439,19.737 -53.101,19.665 -52.889,19.62C-52.678,19.574 -52.34,19.499 -52.129,19.452C-51.917,19.404 -51.579,19.327 -51.368,19.277C-51.157,19.227 -50.818,19.145 -50.607,19.093C-50.396,19.04 -50.057,18.954 -49.846,18.899C-49.635,18.844 -49.296,18.755 -49.085,18.698C-48.874,18.641 -48.536,18.547 -48.324,18.488C-48.113,18.428 -47.775,18.331 -47.564,18.268C-47.352,18.206 -47.014,18.102 -46.803,18.037C-46.592,17.971 -46.253,17.864 -46.042,17.796C-45.831,17.727 -45.492,17.617 -45.281,17.545C-45.07,17.474 -44.731,17.355 -44.52,17.28C-44.309,17.206 -43.971,17.084 -43.759,17.006C-43.548,16.928 -43.21,16.8 -42.999,16.718C-42.787,16.637 -42.449,16.504 -42.238,16.418C-42.027,16.333 -41.688,16.191 -41.477,16.101C-41.266,16.012 -40.927,15.867 -40.716,15.773C-40.505,15.68 -40.166,15.526 -39.955,15.428C-39.744,15.33 -39.406,15.171 -39.194,15.069C-38.983,14.967 -38.645,14.798 -38.434,14.691C-38.222,14.584 -37.884,14.411 -37.673,14.299C-37.462,14.187 -37.123,14.003 -36.912,13.885C-36.701,13.768 -36.362,13.578 -36.151,13.456C-35.94,13.333 -35.601,13.132 -35.39,13.004C-35.179,12.877 -34.841,12.667 -34.629,12.534C-34.418,12.4 -34.08,12.182 -33.869,12.042C-33.657,11.903 -33.319,11.673 -33.108,11.527C-32.897,11.381 -32.558,11.142 -32.347,10.989C-32.136,10.836 -31.797,10.584 -31.586,10.424C-31.375,10.264 -31.036,10.003 -30.825,9.836C-30.614,9.668 -30.276,9.394 -30.064,9.219C-29.853,9.044 -29.515,8.759 -29.304,8.576C-29.092,8.394 -28.754,8.094 -28.543,7.903C-28.332,7.712 -27.993,7.397 -27.782,7.197C-27.571,6.997 -27.232,6.67 -27.021,6.461C-26.81,6.253 -26.471,5.91 -26.26,5.692C-26.049,5.473 -25.711,5.112 -25.499,4.883C-25.288,4.654 -24.95,4.281 -24.739,4.042C-24.527,3.803 -24.189,3.411 -23.978,3.161C-23.767,2.911 -23.428,2.501 -23.217,2.239C-23.006,1.978 -22.667,1.549 -22.456,1.276C-22.245,1.002 -21.906,0.43 -21.695,0.269C-21.484,0.109 -21.146,0 -20.934,0.12C-20.723,0.24 -20.385,0.859 -20.174,1.134C-19.962,1.409 -19.624,1.84 -19.413,2.103C-19.202,2.366 -18.863,2.779 -18.652,3.031C-18.441,3.283 -18.102,3.676 -17.891,3.917C-17.68,4.157 -17.341,4.535 -17.13,4.765C-16.919,4.996 -16.581,5.356 -16.369,5.576C-16.158,5.796 -15.82,6.14 -15.609,6.351C-15.397,6.561 -15.059,6.891 -14.848,7.092C-14.637,7.294 -14.298,7.609 -14.087,7.801C-13.876,7.994 -13.537,8.295 -13.326,8.479C-13.115,8.663 -12.776,8.953 -12.565,9.129C-12.354,9.305 -12.016,9.58 -11.804,9.748C-11.593,9.916 -11.255,10.18 -11.044,10.341C-10.832,10.502 -10.494,10.754 -10.283,10.908C-10.072,11.062 -9.733,11.305 -9.522,11.452C-9.311,11.599 -8.972,11.828 -8.761,11.969C-8.55,12.11 -8.211,12.331 -8,12.465C-7.789,12.6 -7.451,12.809 -7.239,12.938C-7.028,13.066 -6.69,13.268 -6.479,13.392C-6.267,13.515 -5.929,13.709 -5.718,13.826C-5.507,13.944 -5.168,14.127 -4.957,14.24C-4.746,14.352 -4.407,14.529 -4.196,14.637C-3.985,14.744 -3.646,14.912 -3.435,15.015C-3.224,15.118 -2.886,15.28 -2.674,15.379C-2.463,15.477 -2.125,15.63 -1.914,15.724C-1.702,15.818 -1.364,15.967 -1.153,16.057C-0.942,16.147 -0.603,16.287 -0.392,16.373C-0.181,16.459 0.158,16.593 0.369,16.675C0.58,16.758 0.919,16.888 1.13,16.966C1.341,17.045 1.679,17.168 1.891,17.243C2.102,17.318 2.44,17.436 2.651,17.508C2.863,17.579 3.201,17.691 3.412,17.76C3.623,17.829 3.962,17.937 4.173,18.003C4.384,18.069 4.723,18.172 4.934,18.235C5.145,18.298 5.484,18.397 5.695,18.457C5.906,18.517 6.244,18.61 6.456,18.667C6.667,18.725 7.005,18.815 7.216,18.87C7.428,18.926 7.766,19.012 7.977,19.065C8.188,19.117 8.527,19.201 8.738,19.251C8.949,19.302 9.288,19.38 9.499,19.428C9.71,19.476 10.049,19.55 10.26,19.596C10.471,19.642 10.81,19.715 11.021,19.759C11.232,19.803 11.57,19.871 11.781,19.912C11.993,19.954 12.331,20.021 12.542,20.061C12.753,20.102 13.092,20.165 13.303,20.203C13.514,20.242 13.853,20.301 14.064,20.338C14.275,20.375 14.614,20.432 14.825,20.468C15.036,20.503 15.375,20.56 15.586,20.593C15.797,20.627 16.135,20.679 16.346,20.711C16.558,20.743 16.896,20.794 17.107,20.825C17.318,20.855 17.657,20.904 17.868,20.933C18.079,20.962 18.418,21.007 18.629,21.035C18.84,21.063 19.179,21.107 19.39,21.134C19.601,21.161 19.94,21.203 20.151,21.229C20.362,21.255 20.7,21.296 20.911,21.321C21.123,21.345 21.461,21.383 21.672,21.406C21.883,21.429 22.222,21.466 22.433,21.489C22.644,21.511 22.983,21.547 23.194,21.569C23.405,21.59 23.744,21.624 23.955,21.644C24.166,21.665 24.505,21.698 24.716,21.717C24.927,21.737 25.265,21.768 25.476,21.786C25.688,21.805 26.026,21.834 26.237,21.852C26.448,21.87 26.787,21.899 26.998,21.916C27.209,21.933 27.548,21.959 27.759,21.975C27.97,21.992 28.309,22.018 28.52,22.034C28.731,22.05 29.07,22.073 29.281,22.089C29.492,22.104 29.83,22.129 30.041,22.143C30.253,22.158 30.591,22.179 30.802,22.193C31.013,22.207 31.352,22.229 31.563,22.242C31.774,22.255 32.113,22.275 32.324,22.287C32.535,22.3 32.874,22.32 33.085,22.332C33.296,22.344 33.635,22.363 33.846,22.374C34.057,22.386 34.395,22.404 34.606,22.415C34.818,22.426 35.156,22.442 35.367,22.453C35.578,22.463 35.917,22.48 36.128,22.49C36.339,22.501 36.678,22.516 36.889,22.526C37.1,22.535 37.439,22.55 37.65,22.559C37.861,22.568 38.2,22.583 38.411,22.592C38.622,22.601 38.96,22.614 39.172,22.623C39.383,22.631 39.721,22.645 39.932,22.653C40.143,22.662 40.482,22.674 40.693,22.682C40.904,22.69 41.243,22.701 41.454,22.708C41.665,22.715 42.004,22.727 42.215,22.734C42.426,22.741 42.765,22.753 42.976,22.76C43.187,22.767 43.525,22.777 43.737,22.784C43.948,22.79 44.286,22.799 44.497,22.805C44.708,22.811 45.047,22.82 45.258,22.826C45.469,22.832 45.808,22.842 46.019,22.847C46.23,22.853 46.569,22.861 46.78,22.866C46.991,22.871 47.33,22.88 47.541,22.885C47.752,22.89 48.09,22.899 48.301,22.904C48.513,22.909 48.851,22.916 49.062,22.92C49.273,22.925 49.612,22.933 49.823,22.937C50.034,22.942 50.373,22.949 50.584,22.954C50.795,22.958 51.134,22.965 51.345,22.97C51.556,22.974 51.895,22.98 52.106,22.984C52.317,22.988 52.655,22.995 52.867,22.998C53.078,23.002 53.416,23.007 53.627,23.01C53.838,23.014 54.177,23.018 54.388,23.022C54.599,23.026 54.938,23.033 55.149,23.036C55.36,23.04 55.699,23.042 55.91,23.045C56.121,23.048 56.671,23.057 56.671,23.057L56.694,23.298L-56.694,23.298L-56.694,20.357Z" style="fill:rgb(255,127,14);fill-opacity:0.4;fill-rule:nonzero;"/>
    </g>
    <g transform="matrix(1,0,0,1,65.595,8.66158)">
        <path d="M-56.694,20.808C-56.694,20.808 -56.282,20.737 -56.124,20.709C-55.966,20.681 -55.712,20.634 -55.554,20.605C-55.396,20.576 -55.143,20.529 -54.985,20.499C-54.827,20.469 -54.573,20.419 -54.415,20.388C-54.257,20.356 -54.003,20.304 -53.845,20.272C-53.687,20.239 -53.434,20.188 -53.276,20.154C-53.118,20.121 -52.864,20.065 -52.706,20.031C-52.548,19.996 -52.294,19.941 -52.136,19.905C-51.978,19.87 -51.725,19.81 -51.567,19.774C-51.409,19.737 -51.155,19.677 -50.997,19.639C-50.839,19.601 -50.586,19.539 -50.427,19.499C-50.269,19.46 -50.016,19.394 -49.858,19.353C-49.7,19.312 -49.446,19.246 -49.288,19.204C-49.13,19.162 -48.877,19.094 -48.718,19.05C-48.56,19.007 -48.307,18.935 -48.149,18.889C-47.991,18.844 -47.737,18.771 -47.579,18.725C-47.421,18.678 -47.168,18.601 -47.01,18.552C-46.851,18.504 -46.598,18.425 -46.44,18.375C-46.282,18.325 -46.028,18.245 -45.87,18.193C-45.712,18.142 -45.459,18.057 -45.301,18.004C-45.142,17.95 -44.889,17.863 -44.731,17.808C-44.573,17.752 -44.319,17.662 -44.161,17.604C-44.003,17.547 -43.75,17.453 -43.592,17.394C-43.434,17.335 -43.18,17.24 -43.022,17.179C-42.864,17.118 -42.61,17.018 -42.452,16.955C-42.294,16.891 -42.041,16.788 -41.883,16.723C-41.725,16.658 -41.471,16.552 -41.313,16.485C-41.155,16.417 -40.901,16.306 -40.743,16.236C-40.585,16.166 -40.332,16.053 -40.174,15.981C-40.016,15.909 -39.762,15.791 -39.604,15.717C-39.446,15.642 -39.192,15.52 -39.034,15.443C-38.876,15.365 -38.623,15.239 -38.465,15.159C-38.307,15.079 -38.053,14.949 -37.895,14.866C-37.737,14.783 -37.483,14.649 -37.325,14.564C-37.167,14.478 -36.914,14.34 -36.756,14.252C-36.598,14.164 -36.344,14.02 -36.186,13.928C-36.028,13.837 -35.775,13.687 -35.616,13.593C-35.458,13.498 -35.205,13.343 -35.047,13.245C-34.889,13.148 -34.635,12.989 -34.477,12.888C-34.319,12.787 -34.066,12.622 -33.908,12.517C-33.749,12.413 -33.496,12.245 -33.338,12.137C-33.18,12.029 -32.926,11.852 -32.768,11.74C-32.61,11.628 -32.357,11.447 -32.199,11.331C-32.04,11.216 -31.787,11.028 -31.629,10.909C-31.471,10.789 -31.217,10.595 -31.059,10.471C-30.901,10.348 -30.648,10.146 -30.49,10.018C-30.332,9.89 -30.078,9.682 -29.92,9.55C-29.762,9.418 -29.508,9.205 -29.35,9.068C-29.192,8.932 -28.939,8.708 -28.781,8.567C-28.623,8.426 -28.369,8.195 -28.211,8.05C-28.053,7.904 -27.799,7.667 -27.641,7.516C-27.483,7.365 -27.23,7.119 -27.072,6.963C-26.914,6.807 -26.66,6.552 -26.502,6.391C-26.344,6.229 -26.09,5.965 -25.932,5.798C-25.774,5.631 -25.521,5.361 -25.363,5.188C-25.205,5.016 -24.951,4.734 -24.793,4.555C-24.635,4.376 -24.381,4.085 -24.223,3.901C-24.065,3.716 -23.812,3.416 -23.654,3.225C-23.496,3.034 -23.242,2.723 -23.084,2.526C-22.926,2.328 -22.673,2.006 -22.514,1.802C-22.356,1.599 -22.103,1.267 -21.945,1.056C-21.787,0.845 -21.533,0.326 -21.375,0.283C-21.217,0.24 -20.964,0.577 -20.805,0.747C-20.647,0.916 -20.394,1.298 -20.236,1.505C-20.078,1.712 -19.824,2.037 -19.666,2.237C-19.508,2.437 -19.255,2.753 -19.097,2.946C-18.938,3.139 -18.685,3.444 -18.527,3.631C-18.369,3.818 -18.115,4.112 -17.957,4.293C-17.799,4.474 -17.546,4.761 -17.388,4.936C-17.229,5.111 -16.976,5.386 -16.818,5.555C-16.66,5.724 -16.406,5.991 -16.248,6.155C-16.09,6.318 -15.837,6.576 -15.679,6.734C-15.521,6.892 -15.267,7.14 -15.109,7.294C-14.951,7.447 -14.697,7.689 -14.539,7.837C-14.381,7.985 -14.128,8.219 -13.97,8.361C-13.812,8.504 -13.558,8.729 -13.4,8.867C-13.242,9.005 -12.988,9.223 -12.83,9.356C-12.672,9.49 -12.419,9.702 -12.261,9.831C-12.103,9.961 -11.849,10.165 -11.691,10.29C-11.533,10.415 -11.279,10.613 -11.121,10.734C-10.963,10.854 -10.71,11.044 -10.552,11.161C-10.394,11.278 -10.14,11.464 -9.982,11.577C-9.824,11.69 -9.571,11.869 -9.412,11.979C-9.254,12.088 -9.001,12.26 -8.843,12.366C-8.685,12.472 -8.431,12.64 -8.273,12.742C-8.115,12.844 -7.862,13.005 -7.703,13.103C-7.545,13.202 -7.292,13.358 -7.134,13.453C-6.976,13.549 -6.722,13.701 -6.564,13.793C-6.406,13.886 -6.153,14.032 -5.995,14.122C-5.836,14.211 -5.583,14.352 -5.425,14.439C-5.267,14.525 -5.013,14.662 -4.855,14.746C-4.697,14.829 -4.444,14.96 -4.286,15.041C-4.127,15.122 -3.874,15.251 -3.716,15.329C-3.558,15.408 -3.304,15.53 -3.146,15.606C-2.988,15.681 -2.735,15.802 -2.577,15.875C-2.419,15.948 -2.165,16.064 -2.007,16.135C-1.849,16.205 -1.595,16.317 -1.437,16.385C-1.279,16.454 -1.026,16.562 -0.868,16.629C-0.71,16.695 -0.456,16.799 -0.298,16.863C-0.14,16.926 0.114,17.027 0.272,17.089C0.43,17.151 0.683,17.249 0.841,17.309C0.999,17.369 1.253,17.464 1.411,17.522C1.569,17.579 1.823,17.669 1.981,17.725C2.139,17.781 2.392,17.869 2.55,17.923C2.708,17.978 2.962,18.065 3.12,18.117C3.278,18.17 3.531,18.251 3.69,18.301C3.848,18.352 4.101,18.431 4.259,18.481C4.417,18.53 4.671,18.608 4.829,18.656C4.987,18.703 5.24,18.778 5.398,18.824C5.557,18.869 5.81,18.94 5.968,18.984C6.126,19.028 6.38,19.1 6.538,19.142C6.696,19.185 6.949,19.252 7.107,19.293C7.266,19.335 7.519,19.4 7.677,19.44C7.835,19.481 8.089,19.543 8.247,19.582C8.405,19.621 8.658,19.681 8.816,19.719C8.974,19.757 9.228,19.817 9.386,19.854C9.544,19.89 9.798,19.946 9.956,19.981C10.114,20.016 10.367,20.073 10.525,20.107C10.683,20.14 10.937,20.192 11.095,20.225C11.253,20.257 11.507,20.311 11.665,20.343C11.823,20.375 12.076,20.423 12.234,20.454C12.392,20.484 12.646,20.533 12.804,20.562C12.962,20.592 13.216,20.638 13.374,20.666C13.532,20.695 13.785,20.74 13.943,20.768C14.101,20.796 14.355,20.841 14.513,20.867C14.671,20.894 14.925,20.936 15.083,20.962C15.241,20.988 15.494,21.029 15.652,21.054C15.81,21.079 16.064,21.12 16.222,21.144C16.38,21.168 16.633,21.205 16.792,21.229C16.95,21.252 17.203,21.289 17.361,21.312C17.519,21.334 17.773,21.37 17.931,21.392C18.089,21.414 18.342,21.449 18.501,21.47C18.659,21.491 18.912,21.525 19.07,21.546C19.228,21.566 19.482,21.599 19.64,21.619C19.798,21.638 20.051,21.668 20.209,21.687C20.368,21.706 20.621,21.737 20.779,21.756C20.937,21.775 21.191,21.804 21.349,21.822C21.507,21.84 21.76,21.868 21.918,21.886C22.076,21.903 22.33,21.93 22.488,21.947C22.646,21.964 22.9,21.99 23.058,22.006C23.216,22.022 23.469,22.047 23.627,22.063C23.785,22.079 24.039,22.104 24.197,22.119C24.355,22.135 24.609,22.159 24.767,22.174C24.925,22.188 25.178,22.211 25.336,22.226C25.494,22.24 25.748,22.262 25.906,22.275C26.064,22.289 26.318,22.309 26.476,22.322C26.634,22.336 26.887,22.357 27.045,22.37C27.203,22.383 27.457,22.405 27.615,22.417C27.773,22.43 28.027,22.448 28.185,22.46C28.343,22.471 28.596,22.49 28.754,22.502C28.912,22.514 29.166,22.534 29.324,22.545C29.482,22.556 29.735,22.572 29.894,22.582C30.052,22.593 30.305,22.613 30.463,22.623C30.621,22.634 30.875,22.648 31.033,22.658C31.191,22.668 31.444,22.686 31.603,22.696C31.761,22.706 32.014,22.72 32.172,22.729C32.33,22.739 32.584,22.755 32.742,22.765C32.9,22.774 33.153,22.786 33.311,22.795C33.47,22.804 33.723,22.82 33.881,22.829C34.039,22.837 34.293,22.851 34.451,22.859C34.609,22.867 34.862,22.879 35.02,22.887C35.179,22.895 35.432,22.908 35.59,22.916C35.748,22.924 36.002,22.937 36.16,22.944C36.318,22.952 36.571,22.963 36.729,22.97C36.887,22.977 37.141,22.989 37.299,22.996C37.457,23.003 37.711,23.013 37.869,23.02C38.027,23.027 38.28,23.039 38.438,23.046C38.596,23.052 38.85,23.061 39.008,23.067C39.166,23.073 39.42,23.084 39.578,23.091C39.736,23.097 39.989,23.106 40.147,23.112C40.305,23.118 40.559,23.128 40.717,23.133C40.875,23.139 41.129,23.149 41.287,23.155C41.445,23.16 41.698,23.168 41.856,23.173C42.014,23.178 42.268,23.187 42.426,23.192C42.584,23.198 42.838,23.206 42.996,23.211C43.154,23.216 43.407,23.223 43.565,23.228C43.723,23.233 43.977,23.241 44.135,23.246C44.293,23.251 44.546,23.259 44.705,23.263C44.863,23.268 45.116,23.276 45.274,23.28C45.432,23.284 45.686,23.29 45.844,23.294C46.002,23.297 46.255,23.304 46.413,23.308C46.572,23.313 46.825,23.32 46.983,23.325C47.141,23.329 47.395,23.335 47.553,23.339C47.711,23.343 47.964,23.347 48.122,23.351C48.281,23.354 48.534,23.361 48.692,23.365C48.85,23.368 49.104,23.373 49.262,23.377C49.42,23.38 49.673,23.387 49.831,23.391C49.989,23.394 50.243,23.4 50.401,23.403C50.559,23.405 50.813,23.409 50.971,23.412C51.129,23.415 51.382,23.42 51.54,23.424C51.698,23.427 51.952,23.433 52.11,23.436C52.268,23.439 52.522,23.442 52.68,23.445C52.838,23.447 53.091,23.452 53.249,23.454C53.407,23.457 53.661,23.461 53.819,23.464C53.977,23.467 54.231,23.471 54.389,23.473C54.547,23.476 54.8,23.48 54.958,23.483C55.116,23.486 55.37,23.49 55.528,23.493C55.686,23.495 55.94,23.499 56.098,23.502C56.256,23.504 56.667,23.509 56.667,23.509" style="fill:none;fill-rule:nonzero;stroke:rgb(255,127,14);stroke-width:0.8px;"/>
    </g>
    <g transform="matrix(1,0,0,1,65.595,32.411)">
        <path d="M-56.694,0L57.014,0" style="fill:none;fill-rule:nonzero;stroke:rgb(191,191,191);stroke-width:0.8px;"/>
    </g>
    <g transform="matrix(-0.926968,-0.375141,-0.375141,0.926968,126.499,33.2072)">
        <path d="M0.524,-0.647L4.244,-0.647L3.197,1.94L0.524,-0.647Z" style="fill:rgb(191,191,191);fill-rule:nonzero;stroke:rgb(191,191,191);stroke-width:0.8px;"/>
    </g>
</svg>
