<?xml version="1.0" encoding="UTF-8" standalone="no"?>
<!DOCTYPE svg PUBLIC "-//W3C//DTD SVG 1.1//EN" "http://www.w3.org/Graphics/SVG/1.1/DTD/svg11.dtd">
<svg width="100%" height="100%" viewBox="0 0 137 48" version="1.1" xmlns="http://www.w3.org/2000/svg" xmlns:xlink="http://www.w3.org/1999/xlink" xml:space="preserve" xmlns:serif="http://www.serif.com/" style="fill-rule:evenodd;clip-rule:evenodd;stroke-miterlimit:10;">
    <g transform="matrix(1,0,0,1,65.595,9.0428)">
        <path d="M-56.694,27.301C-56.694,27.301 -56.144,27.28 -55.933,27.272C-55.722,27.264 -55.383,27.253 -55.172,27.244C-54.961,27.235 -54.622,27.219 -54.411,27.21C-54.2,27.2 -53.861,27.185 -53.65,27.176C-53.439,27.167 -53.101,27.152 -52.889,27.142C-52.678,27.132 -52.34,27.116 -52.129,27.105C-51.917,27.094 -51.579,27.077 -51.368,27.065C-51.157,27.054 -50.818,27.035 -50.607,27.023C-50.396,27.011 -50.057,26.993 -49.846,26.98C-49.635,26.967 -49.296,26.945 -49.085,26.932C-48.874,26.919 -48.536,26.897 -48.324,26.884C-48.113,26.87 -47.775,26.848 -47.564,26.833C-47.352,26.818 -47.014,26.792 -46.803,26.776C-46.592,26.76 -46.253,26.735 -46.042,26.719C-45.831,26.703 -45.492,26.677 -45.281,26.66C-45.07,26.642 -44.731,26.613 -44.52,26.595C-44.309,26.576 -43.971,26.546 -43.759,26.526C-43.548,26.507 -43.21,26.476 -42.999,26.456C-42.787,26.436 -42.449,26.403 -42.238,26.382C-42.027,26.361 -41.688,26.325 -41.477,26.302C-41.266,26.28 -40.927,26.241 -40.716,26.218C-40.505,26.194 -40.166,26.155 -39.955,26.13C-39.744,26.105 -39.406,26.063 -39.194,26.036C-38.983,26.009 -38.645,25.965 -38.434,25.937C-38.222,25.909 -37.884,25.864 -37.673,25.835C-37.462,25.805 -37.123,25.756 -36.912,25.724C-36.701,25.692 -36.362,25.641 -36.151,25.608C-35.94,25.575 -35.601,25.521 -35.39,25.486C-35.179,25.452 -34.841,25.395 -34.629,25.359C-34.418,25.322 -34.08,25.261 -33.869,25.222C-33.657,25.183 -33.319,25.119 -33.108,25.078C-32.897,25.037 -32.558,24.97 -32.347,24.927C-32.136,24.884 -31.797,24.814 -31.586,24.769C-31.375,24.723 -31.036,24.647 -30.825,24.599C-30.614,24.551 -30.276,24.473 -30.064,24.422C-29.853,24.372 -29.515,24.286 -29.304,24.233C-29.092,24.179 -28.754,24.093 -28.543,24.037C-28.332,23.981 -27.993,23.887 -27.782,23.827C-27.571,23.768 -27.232,23.669 -27.021,23.606C-26.81,23.543 -26.471,23.44 -26.26,23.374C-26.049,23.307 -25.711,23.199 -25.499,23.13C-25.288,23.06 -24.95,22.946 -24.739,22.872C-24.527,22.798 -24.189,22.675 -23.978,22.597C-23.767,22.519 -23.428,22.392 -23.217,22.31C-23.006,22.229 -22.667,22.093 -22.456,22.007C-22.245,21.92 -21.906,21.778 -21.695,21.687C-21.484,21.595 -21.146,21.443 -20.934,21.346C-20.723,21.25 -20.385,21.091 -20.174,20.989C-19.962,20.887 -19.624,20.719 -19.413,20.612C-19.202,20.504 -18.863,20.329 -18.652,20.215C-18.441,20.102 -18.102,19.915 -17.891,19.795C-17.68,19.676 -17.341,19.479 -17.13,19.353C-16.919,19.227 -16.581,19.021 -16.369,18.888C-16.158,18.755 -15.82,18.535 -15.609,18.395C-15.397,18.254 -15.059,18.024 -14.848,17.876C-14.637,17.727 -14.298,17.482 -14.087,17.326C-13.876,17.169 -13.537,16.912 -13.326,16.748C-13.115,16.583 -12.776,16.312 -12.565,16.138C-12.354,15.963 -12.016,15.676 -11.804,15.491C-11.593,15.307 -11.255,15.005 -11.044,14.811C-10.832,14.617 -10.494,14.298 -10.283,14.093C-10.072,13.889 -9.733,13.555 -9.522,13.339C-9.311,13.124 -8.972,12.768 -8.761,12.54C-8.55,12.312 -8.211,11.938 -8,11.698C-7.789,11.457 -7.451,11.061 -7.239,10.807C-7.028,10.553 -6.69,10.136 -6.479,9.869C-6.267,9.601 -5.929,9.162 -5.718,8.879C-5.507,8.597 -5.168,8.131 -4.957,7.833C-4.746,7.535 -4.407,7.047 -4.196,6.733C-3.985,6.419 -3.646,5.902 -3.435,5.57C-3.224,5.239 -2.886,4.692 -2.674,4.342C-2.463,3.992 -2.125,3.416 -1.914,3.047C-1.702,2.678 -1.364,2.07 -1.153,1.68C-0.942,1.291 -0.603,0.446 -0.392,0.24C-0.181,0.034 0.158,0 0.369,0.194C0.58,0.389 0.919,1.25 1.13,1.64C1.341,2.031 1.679,2.638 1.891,3.007C2.102,3.377 2.44,3.952 2.651,4.303C2.863,4.654 3.201,5.201 3.412,5.534C3.623,5.866 3.962,6.384 4.173,6.699C4.384,7.014 4.723,7.504 4.934,7.802C5.145,8.1 5.484,8.565 5.695,8.848C5.906,9.131 6.244,9.572 6.456,9.84C6.667,10.108 7.005,10.525 7.216,10.779C7.428,11.033 7.766,11.428 7.977,11.669C8.188,11.91 8.527,12.286 8.738,12.514C8.949,12.742 9.288,13.097 9.499,13.314C9.71,13.53 10.049,13.869 10.26,14.074C10.471,14.279 10.81,14.597 11.021,14.791C11.232,14.985 11.57,15.287 11.781,15.472C11.993,15.656 12.331,15.943 12.542,16.118C12.753,16.292 13.092,16.565 13.303,16.73C13.514,16.895 13.853,17.152 14.064,17.309C14.275,17.465 14.614,17.71 14.825,17.859C15.036,18.007 15.375,18.237 15.586,18.378C15.797,18.519 16.135,18.741 16.346,18.874C16.558,19.007 16.896,19.213 17.107,19.339C17.318,19.465 17.657,19.664 17.868,19.784C18.079,19.904 18.418,20.09 18.629,20.204C18.84,20.317 19.179,20.493 19.39,20.601C19.601,20.708 19.94,20.876 20.151,20.978C20.362,21.08 20.7,21.241 20.911,21.338C21.123,21.434 21.461,21.584 21.672,21.675C21.883,21.766 22.222,21.909 22.433,21.996C22.644,22.082 22.983,22.22 23.194,22.302C23.405,22.384 23.744,22.51 23.955,22.588C24.166,22.666 24.505,22.789 24.716,22.863C24.927,22.937 25.265,23.051 25.476,23.121C25.688,23.191 26.026,23.302 26.237,23.368C26.448,23.434 26.787,23.537 26.998,23.6C27.209,23.663 27.548,23.762 27.759,23.822C27.97,23.882 28.309,23.975 28.52,24.031C28.731,24.088 29.07,24.174 29.281,24.227C29.492,24.28 29.83,24.366 30.041,24.417C30.253,24.468 30.591,24.545 30.802,24.593C31.013,24.641 31.352,24.717 31.563,24.763C31.774,24.809 32.113,24.878 32.324,24.922C32.535,24.965 32.874,25.034 33.085,25.075C33.296,25.116 33.635,25.178 33.846,25.217C34.057,25.255 34.395,25.316 34.606,25.353C34.818,25.39 35.156,25.448 35.367,25.483C35.578,25.518 35.917,25.572 36.128,25.605C36.339,25.638 36.678,25.69 36.889,25.721C37.1,25.752 37.439,25.8 37.65,25.829C37.861,25.859 38.2,25.905 38.411,25.934C38.622,25.962 38.96,26.007 39.172,26.033C39.383,26.06 39.721,26.102 39.932,26.127C40.143,26.152 40.482,26.19 40.693,26.215C40.904,26.239 41.243,26.277 41.454,26.3C41.665,26.323 42.004,26.358 42.215,26.379C42.426,26.4 42.765,26.432 42.976,26.453C43.187,26.473 43.525,26.507 43.737,26.526C43.948,26.546 44.286,26.574 44.497,26.592C44.708,26.61 45.047,26.639 45.258,26.657C45.469,26.675 45.808,26.703 46.019,26.719C46.23,26.736 46.569,26.761 46.78,26.776C46.991,26.791 47.33,26.815 47.541,26.83C47.752,26.845 48.09,26.867 48.301,26.881C48.513,26.895 48.851,26.919 49.062,26.932C49.273,26.945 49.612,26.965 49.823,26.978C50.034,26.99 50.373,27.011 50.584,27.023C50.795,27.035 51.134,27.051 51.345,27.062C51.556,27.073 51.895,27.091 52.106,27.102C52.317,27.113 52.655,27.132 52.867,27.142C53.078,27.152 53.416,27.167 53.627,27.176C53.838,27.185 54.177,27.201 54.388,27.21C54.599,27.219 54.938,27.232 55.149,27.241C55.36,27.25 55.699,27.264 55.91,27.272C56.121,27.28 56.671,27.301 56.671,27.301L56.694,27.819L-56.694,27.819L-56.694,27.301Z" style="fill:rgb(188,189,34);fill-opacity:0.4;fill-rule:nonzero;"/>
    </g>
    <g transform="matrix(1,0,0,1,65.595,8.38346)">
        <path d="M-56.694,27.96C-56.694,27.96 -56.282,27.946 -56.124,27.94C-55.966,27.934 -55.712,27.924 -55.554,27.918C-55.396,27.911 -55.143,27.901 -54.985,27.895C-54.827,27.888 -54.573,27.876 -54.415,27.869C-54.257,27.862 -54.003,27.854 -53.845,27.847C-53.687,27.84 -53.434,27.826 -53.276,27.818C-53.118,27.811 -52.864,27.8 -52.706,27.793C-52.548,27.785 -52.294,27.772 -52.136,27.764C-51.978,27.757 -51.725,27.744 -51.567,27.736C-51.409,27.728 -51.155,27.713 -50.997,27.705C-50.839,27.696 -50.586,27.683 -50.427,27.674C-50.269,27.665 -50.016,27.649 -49.858,27.639C-49.7,27.63 -49.446,27.616 -49.288,27.606C-49.13,27.596 -48.877,27.579 -48.718,27.568C-48.56,27.558 -48.307,27.542 -48.149,27.532C-47.991,27.521 -47.737,27.503 -47.579,27.492C-47.421,27.481 -47.168,27.464 -47.01,27.453C-46.851,27.441 -46.598,27.422 -46.44,27.41C-46.282,27.398 -46.028,27.377 -45.87,27.364C-45.712,27.352 -45.459,27.331 -45.301,27.319C-45.142,27.306 -44.889,27.287 -44.731,27.274C-44.573,27.261 -44.319,27.237 -44.161,27.223C-44.003,27.209 -43.75,27.186 -43.592,27.172C-43.434,27.157 -43.18,27.133 -43.022,27.118C-42.864,27.102 -42.61,27.077 -42.452,27.061C-42.294,27.045 -42.041,27.021 -41.883,27.004C-41.725,26.988 -41.471,26.96 -41.313,26.942C-41.155,26.925 -40.901,26.897 -40.743,26.879C-40.585,26.862 -40.332,26.833 -40.174,26.815C-40.016,26.796 -39.762,26.766 -39.604,26.746C-39.446,26.727 -39.192,26.695 -39.034,26.675C-38.876,26.655 -38.623,26.623 -38.465,26.602C-38.307,26.581 -38.053,26.544 -37.895,26.522C-37.737,26.5 -37.483,26.465 -37.325,26.443C-37.167,26.421 -36.914,26.384 -36.756,26.361C-36.598,26.337 -36.344,26.298 -36.186,26.273C-36.028,26.248 -35.775,26.208 -35.616,26.182C-35.458,26.157 -35.205,26.116 -35.047,26.089C-34.889,26.062 -34.635,26.017 -34.477,25.989C-34.319,25.961 -34.066,25.916 -33.908,25.887C-33.749,25.859 -33.496,25.812 -33.338,25.783C-33.18,25.753 -32.926,25.703 -32.768,25.672C-32.61,25.64 -32.357,25.588 -32.199,25.555C-32.04,25.523 -31.787,25.47 -31.629,25.437C-31.471,25.403 -31.217,25.347 -31.059,25.312C-30.901,25.276 -30.648,25.218 -30.49,25.181C-30.332,25.144 -30.078,25.083 -29.92,25.045C-29.762,25.007 -29.508,24.946 -29.35,24.906C-29.192,24.866 -28.939,24.8 -28.781,24.759C-28.623,24.717 -28.369,24.649 -28.211,24.606C-28.053,24.562 -27.799,24.492 -27.641,24.447C-27.483,24.402 -27.23,24.329 -27.072,24.283C-26.914,24.236 -26.66,24.158 -26.502,24.109C-26.344,24.061 -26.09,23.982 -25.932,23.931C-25.774,23.88 -25.521,23.797 -25.363,23.744C-25.205,23.69 -24.951,23.603 -24.793,23.548C-24.635,23.493 -24.381,23.404 -24.223,23.347C-24.065,23.29 -23.812,23.197 -23.654,23.137C-23.496,23.078 -23.242,22.981 -23.084,22.919C-22.926,22.857 -22.673,22.754 -22.514,22.689C-22.356,22.624 -22.103,22.518 -21.945,22.451C-21.787,22.383 -21.533,22.274 -21.375,22.204C-21.217,22.134 -20.964,22.019 -20.805,21.946C-20.647,21.873 -20.394,21.755 -20.236,21.68C-20.078,21.604 -19.824,21.481 -19.666,21.402C-19.508,21.323 -19.255,21.192 -19.097,21.11C-18.938,21.028 -18.685,20.895 -18.527,20.809C-18.369,20.724 -18.115,20.584 -17.957,20.494C-17.799,20.405 -17.546,20.258 -17.388,20.166C-17.229,20.073 -16.976,19.922 -16.818,19.825C-16.66,19.729 -16.406,19.572 -16.248,19.471C-16.09,19.37 -15.837,19.204 -15.679,19.099C-15.521,18.995 -15.267,18.826 -15.109,18.717C-14.951,18.608 -14.697,18.428 -14.539,18.314C-14.381,18.2 -14.128,18.015 -13.97,17.897C-13.812,17.779 -13.558,17.586 -13.4,17.464C-13.242,17.341 -12.988,17.14 -12.83,17.012C-12.672,16.885 -12.419,16.675 -12.261,16.542C-12.103,16.408 -11.849,16.19 -11.691,16.051C-11.533,15.913 -11.279,15.688 -11.121,15.544C-10.963,15.4 -10.71,15.161 -10.552,15.011C-10.394,14.86 -10.14,14.617 -9.982,14.461C-9.824,14.305 -9.571,14.048 -9.412,13.885C-9.254,13.722 -9.001,13.456 -8.843,13.287C-8.685,13.117 -8.431,12.84 -8.273,12.663C-8.115,12.487 -7.862,12.197 -7.703,12.014C-7.545,11.83 -7.292,11.53 -7.134,11.339C-6.976,11.148 -6.722,10.835 -6.564,10.636C-6.406,10.437 -6.153,10.111 -5.995,9.904C-5.836,9.697 -5.583,9.36 -5.425,9.145C-5.267,8.929 -5.013,8.575 -4.855,8.35C-4.697,8.126 -4.444,7.76 -4.286,7.526C-4.127,7.292 -3.874,6.907 -3.716,6.663C-3.558,6.42 -3.304,6.023 -3.146,5.77C-2.988,5.517 -2.735,5.104 -2.577,4.84C-2.419,4.577 -2.165,4.145 -2.007,3.871C-1.849,3.596 -1.595,3.147 -1.437,2.861C-1.279,2.575 -1.026,2.107 -0.868,1.809C-0.71,1.511 -0.456,0.874 -0.298,0.715C-0.14,0.556 0.114,0.519 0.272,0.664C0.43,0.809 0.683,1.463 0.841,1.761C0.999,2.059 1.253,2.527 1.411,2.813C1.569,3.099 1.823,3.548 1.981,3.823C2.139,4.098 2.392,4.531 2.55,4.795C2.708,5.059 2.962,5.474 3.12,5.728C3.278,5.982 3.531,6.38 3.69,6.624C3.848,6.868 4.101,7.251 4.259,7.486C4.417,7.72 4.671,8.089 4.829,8.314C4.987,8.539 5.24,8.891 5.398,9.107C5.557,9.323 5.81,9.663 5.968,9.87C6.126,10.078 6.38,10.402 6.538,10.602C6.696,10.801 6.949,11.116 7.107,11.308C7.266,11.499 7.519,11.798 7.677,11.982C7.835,12.167 8.089,12.458 8.247,12.635C8.405,12.812 8.658,13.089 8.816,13.258C8.974,13.428 9.228,13.694 9.386,13.857C9.544,14.019 9.798,14.275 9.956,14.432C10.114,14.589 10.367,14.837 10.525,14.988C10.683,15.139 10.937,15.374 11.095,15.518C11.253,15.663 11.507,15.89 11.665,16.029C11.823,16.168 12.076,16.386 12.234,16.519C12.392,16.653 12.646,16.862 12.804,16.99C12.962,17.118 13.216,17.321 13.374,17.444C13.532,17.567 13.785,17.759 13.943,17.877C14.101,17.996 14.355,18.183 14.513,18.297C14.671,18.411 14.925,18.588 15.083,18.697C15.241,18.806 15.494,18.978 15.652,19.083C15.81,19.188 16.064,19.353 16.222,19.454C16.38,19.554 16.633,19.712 16.792,19.808C16.95,19.905 17.203,20.059 17.361,20.151C17.519,20.244 17.773,20.389 17.931,20.477C18.089,20.566 18.342,20.706 18.501,20.792C18.659,20.878 18.912,21.013 19.07,21.096C19.228,21.178 19.482,21.309 19.64,21.388C19.798,21.467 20.051,21.589 20.209,21.665C20.368,21.741 20.621,21.861 20.779,21.935C20.937,22.008 21.191,22.123 21.349,22.193C21.507,22.263 21.76,22.372 21.918,22.439C22.076,22.507 22.33,22.613 22.488,22.678C22.646,22.743 22.9,22.845 23.058,22.907C23.216,22.97 23.469,23.066 23.627,23.125C23.785,23.185 24.039,23.281 24.197,23.338C24.355,23.396 24.609,23.484 24.767,23.539C24.925,23.595 25.178,23.682 25.336,23.735C25.494,23.788 25.748,23.872 25.906,23.922C26.064,23.973 26.318,24.052 26.476,24.101C26.634,24.15 26.887,24.227 27.045,24.274C27.203,24.321 27.457,24.393 27.615,24.438C27.773,24.483 28.027,24.557 28.185,24.6C28.343,24.643 28.596,24.709 28.754,24.75C28.912,24.791 29.166,24.857 29.324,24.898C29.482,24.938 29.735,25.001 29.894,25.039C30.052,25.078 30.305,25.139 30.463,25.176C30.621,25.213 30.875,25.27 31.033,25.306C31.191,25.341 31.444,25.397 31.603,25.431C31.761,25.465 32.014,25.517 32.172,25.55C32.33,25.582 32.584,25.635 32.742,25.666C32.9,25.698 33.153,25.746 33.311,25.776C33.47,25.807 33.723,25.855 33.881,25.885C34.039,25.914 34.293,25.959 34.451,25.987C34.609,26.014 34.862,26.056 35.02,26.083C35.179,26.109 35.432,26.153 35.59,26.179C35.748,26.205 36.002,26.246 36.16,26.27C36.318,26.294 36.571,26.332 36.729,26.355C36.887,26.379 37.141,26.417 37.299,26.44C37.457,26.463 37.711,26.498 37.869,26.52C38.027,26.541 38.28,26.575 38.438,26.596C38.596,26.617 38.85,26.652 39.008,26.673C39.166,26.693 39.42,26.724 39.578,26.744C39.736,26.763 39.989,26.793 40.147,26.812C40.305,26.83 40.559,26.859 40.717,26.877C40.875,26.895 41.129,26.922 41.287,26.939C41.445,26.956 41.698,26.985 41.856,27.001C42.014,27.018 42.268,27.042 42.426,27.058C42.584,27.074 42.838,27.1 42.996,27.115C43.154,27.131 43.407,27.154 43.565,27.169C43.723,27.183 43.977,27.206 44.135,27.22C44.293,27.234 44.546,27.257 44.705,27.271C44.863,27.285 45.116,27.306 45.274,27.319C45.432,27.332 45.686,27.352 45.844,27.364C46.002,27.377 46.255,27.395 46.413,27.407C46.572,27.419 46.825,27.438 46.983,27.45C47.141,27.461 47.395,27.478 47.553,27.489C47.711,27.5 47.964,27.519 48.122,27.529C48.281,27.54 48.534,27.556 48.692,27.566C48.85,27.576 49.104,27.593 49.262,27.603C49.42,27.613 49.673,27.627 49.831,27.637C49.989,27.646 50.243,27.662 50.401,27.671C50.559,27.68 50.813,27.693 50.971,27.702C51.129,27.71 51.382,27.725 51.54,27.733C51.698,27.741 51.952,27.753 52.11,27.761C52.268,27.769 52.522,27.782 52.68,27.79C52.838,27.798 53.091,27.811 53.249,27.818C53.407,27.825 53.661,27.837 53.819,27.844C53.977,27.851 54.231,27.862 54.389,27.869C54.547,27.876 54.8,27.885 54.958,27.892C55.116,27.899 55.37,27.911 55.528,27.918C55.686,27.924 55.94,27.932 56.098,27.937C56.256,27.943 56.667,27.96 56.667,27.96" style="fill:none;fill-rule:nonzero;stroke:rgb(188,189,34);stroke-width:0.8px;"/>
    </g>
    <g transform="matrix(1,0,0,1,65.595,36.862)">
        <path d="M-56.694,0L57.014,0" style="fill:none;fill-rule:nonzero;stroke:rgb(191,191,191);stroke-width:0.8px;"/>
    </g>
    <g transform="matrix(-0.926968,-0.375141,-0.375141,0.926968,126.499,37.6582)">
        <path d="M0.524,-0.647L4.244,-0.647L3.197,1.94L0.524,-0.647Z" style="fill:rgb(191,191,191);fill-rule:nonzero;stroke:rgb(191,191,191);stroke-width:0.8px;"/>
    </g>
</svg>
