<?xml version="1.0" encoding="UTF-8" standalone="no"?>
<!DOCTYPE svg PUBLIC "-//W3C//DTD SVG 1.1//EN" "http://www.w3.org/Graphics/SVG/1.1/DTD/svg11.dtd">
<svg width="100%" height="100%" viewBox="0 0 137 55" version="1.1" xmlns="http://www.w3.org/2000/svg" xmlns:xlink="http://www.w3.org/1999/xlink" xml:space="preserve" xmlns:serif="http://www.serif.com/" style="fill-rule:evenodd;clip-rule:evenodd;stroke-miterlimit:10;">
    <g transform="matrix(1,0,0,1,65.595,9.1431)">
        <path d="M-56.694,34.649C-56.694,34.649 -56.144,34.626 -55.933,34.617C-55.722,34.609 -55.383,34.595 -55.172,34.585C-54.961,34.576 -54.622,34.561 -54.411,34.55C-54.2,34.54 -53.861,34.523 -53.65,34.511C-53.439,34.5 -53.101,34.481 -52.889,34.469C-52.678,34.457 -52.34,34.438 -52.129,34.426C-51.917,34.414 -51.579,34.393 -51.368,34.38C-51.157,34.367 -50.818,34.344 -50.607,34.33C-50.396,34.316 -50.057,34.293 -49.846,34.277C-49.635,34.262 -49.296,34.237 -49.085,34.22C-48.874,34.204 -48.536,34.177 -48.324,34.16C-48.113,34.143 -47.775,34.115 -47.564,34.097C-47.352,34.078 -47.014,34.045 -46.803,34.025C-46.592,34.005 -46.253,33.972 -46.042,33.951C-45.831,33.93 -45.492,33.896 -45.281,33.873C-45.07,33.851 -44.731,33.812 -44.52,33.788C-44.309,33.764 -43.971,33.725 -43.759,33.699C-43.548,33.673 -43.21,33.628 -42.999,33.601C-42.787,33.573 -42.449,33.527 -42.238,33.498C-42.027,33.468 -41.688,33.42 -41.477,33.388C-41.266,33.356 -40.927,33.301 -40.716,33.267C-40.505,33.234 -40.166,33.179 -39.955,33.143C-39.744,33.106 -39.406,33.044 -39.194,33.005C-38.983,32.966 -38.645,32.904 -38.434,32.863C-38.222,32.821 -37.884,32.752 -37.673,32.707C-37.462,32.662 -37.123,32.588 -36.912,32.54C-36.701,32.493 -36.362,32.414 -36.151,32.363C-35.94,32.312 -35.601,32.23 -35.39,32.176C-35.179,32.121 -34.841,32.028 -34.629,31.969C-34.418,31.911 -34.08,31.816 -33.869,31.754C-33.657,31.692 -33.319,31.589 -33.108,31.523C-32.897,31.457 -32.558,31.346 -32.347,31.275C-32.136,31.204 -31.797,31.085 -31.586,31.009C-31.375,30.933 -31.036,30.807 -30.825,30.726C-30.614,30.645 -30.276,30.511 -30.064,30.424C-29.853,30.337 -29.515,30.192 -29.304,30.098C-29.092,30.005 -28.754,29.85 -28.543,29.751C-28.332,29.652 -27.993,29.489 -27.782,29.382C-27.571,29.276 -27.232,29.099 -27.021,28.985C-26.81,28.871 -26.471,28.682 -26.26,28.56C-26.049,28.438 -25.711,28.237 -25.499,28.106C-25.288,27.976 -24.95,27.76 -24.739,27.621C-24.527,27.482 -24.189,27.252 -23.978,27.103C-23.767,26.955 -23.428,26.71 -23.217,26.551C-23.006,26.391 -22.667,26.126 -22.456,25.955C-22.245,25.784 -21.906,25.502 -21.695,25.32C-21.484,25.139 -21.146,24.838 -20.934,24.644C-20.723,24.449 -20.385,24.125 -20.174,23.917C-19.962,23.708 -19.624,23.363 -19.413,23.14C-19.202,22.918 -18.863,22.549 -18.652,22.311C-18.441,22.073 -18.102,21.68 -17.891,21.425C-17.68,21.171 -17.341,20.751 -17.13,20.479C-16.919,20.206 -16.581,19.753 -16.369,19.462C-16.158,19.17 -15.82,18.688 -15.609,18.377C-15.397,18.066 -15.059,17.551 -14.848,17.218C-14.637,16.885 -14.298,16.334 -14.087,15.977C-13.876,15.621 -13.537,15.03 -13.326,14.648C-13.115,14.267 -12.776,13.638 -12.565,13.231C-12.354,12.823 -12.016,12.149 -11.804,11.713C-11.593,11.278 -11.255,10.556 -11.044,10.09C-10.832,9.625 -10.494,8.855 -10.283,8.357C-10.072,7.859 -9.733,7.033 -9.522,6.5C-9.311,5.967 -8.972,5.085 -8.761,4.515C-8.55,3.945 -8.211,3.001 -8,2.392C-7.789,1.782 -7.451,0.247 -7.239,0.123C-7.028,0 -6.69,1.009 -6.479,1.502C-6.267,1.996 -5.929,3.097 -5.718,3.682C-5.507,4.267 -5.168,5.173 -4.957,5.72C-4.746,6.268 -4.407,7.115 -4.196,7.627C-3.985,8.139 -3.646,8.931 -3.435,9.41C-3.224,9.888 -2.886,10.628 -2.674,11.075C-2.463,11.523 -2.125,12.217 -1.914,12.635C-1.702,13.054 -1.364,13.7 -1.153,14.092C-0.942,14.483 -0.603,15.091 -0.392,15.457C-0.181,15.823 0.158,16.387 0.369,16.729C0.58,17.071 0.919,17.6 1.13,17.92C1.341,18.24 1.679,18.737 1.891,19.036C2.102,19.336 2.44,19.799 2.651,20.079C2.863,20.358 3.201,20.791 3.412,21.053C3.623,21.315 3.962,21.72 4.173,21.964C4.384,22.208 4.723,22.586 4.934,22.814C5.145,23.043 5.484,23.398 5.695,23.612C5.906,23.826 6.244,24.16 6.456,24.36C6.667,24.56 7.005,24.868 7.216,25.054C7.428,25.241 7.766,25.532 7.977,25.707C8.188,25.882 8.527,26.153 8.738,26.317C8.949,26.48 9.288,26.734 9.499,26.887C9.71,27.04 10.049,27.277 10.26,27.419C10.471,27.562 10.81,27.781 11.021,27.915C11.232,28.049 11.57,28.258 11.781,28.383C11.993,28.509 12.331,28.702 12.542,28.819C12.753,28.936 13.092,29.118 13.303,29.227C13.514,29.336 13.853,29.503 14.064,29.606C14.275,29.708 14.614,29.868 14.825,29.964C15.036,30.06 15.375,30.208 15.586,30.297C15.797,30.386 16.135,30.522 16.346,30.605C16.558,30.689 16.896,30.822 17.107,30.9C17.318,30.978 17.657,31.096 17.868,31.169C18.079,31.242 18.418,31.355 18.629,31.424C18.84,31.493 19.179,31.601 19.39,31.665C19.601,31.729 19.94,31.825 20.151,31.885C20.362,31.944 20.7,32.038 20.911,32.094C21.123,32.15 21.461,32.236 21.672,32.289C21.883,32.341 22.222,32.421 22.433,32.47C22.644,32.519 22.983,32.594 23.194,32.639C23.405,32.685 23.744,32.756 23.955,32.799C24.166,32.842 24.505,32.908 24.716,32.948C24.927,32.989 25.265,33.053 25.476,33.09C25.688,33.128 26.026,33.183 26.237,33.218C26.448,33.253 26.787,33.309 26.998,33.341C27.209,33.374 27.548,33.424 27.759,33.455C27.97,33.485 28.309,33.533 28.52,33.562C28.731,33.59 29.07,33.634 29.281,33.66C29.492,33.687 29.83,33.728 30.041,33.753C30.253,33.778 30.591,33.818 30.802,33.841C31.013,33.865 31.352,33.901 31.563,33.923C31.774,33.944 32.113,33.977 32.324,33.997C32.535,34.017 32.874,34.049 33.085,34.068C33.296,34.087 33.635,34.117 33.846,34.136C34.057,34.154 34.395,34.183 34.606,34.2C34.818,34.216 35.156,34.241 35.367,34.256C35.578,34.271 35.917,34.294 36.128,34.309C36.339,34.324 36.678,34.348 36.889,34.362C37.1,34.376 37.439,34.395 37.65,34.408C37.861,34.421 38.2,34.443 38.411,34.455C38.622,34.467 38.96,34.483 39.172,34.494C39.383,34.505 39.721,34.522 39.932,34.533C40.143,34.543 40.482,34.562 40.693,34.572C40.904,34.581 41.243,34.594 41.454,34.603C41.665,34.612 42.004,34.626 42.215,34.635C42.426,34.644 42.765,34.659 42.976,34.667C43.187,34.675 43.525,34.685 43.737,34.692C43.948,34.699 44.286,34.713 44.497,34.72C44.708,34.727 45.047,34.736 45.258,34.742C45.469,34.749 45.808,34.759 46.019,34.765C46.23,34.771 46.569,34.78 46.78,34.786C46.991,34.792 47.33,34.801 47.541,34.806C47.752,34.811 48.09,34.82 48.301,34.825C48.513,34.83 48.851,34.837 49.062,34.842C49.273,34.847 49.612,34.854 49.823,34.858C50.034,34.862 50.373,34.869 50.584,34.873C50.795,34.877 51.134,34.884 51.345,34.888C51.556,34.892 51.895,34.897 52.106,34.901C52.317,34.904 52.655,34.91 52.867,34.913C53.078,34.917 53.416,34.922 53.627,34.925C53.838,34.928 54.177,34.933 54.388,34.936C54.599,34.939 54.938,34.943 55.149,34.946C55.36,34.949 55.699,34.953 55.91,34.955C56.121,34.958 56.671,34.964 56.671,34.964L56.694,35.092L-56.694,35.092L-56.694,34.649Z" style="fill:rgb(214,39,40);fill-opacity:0.4;fill-rule:nonzero;"/>
    </g>
    <g transform="matrix(1,0,0,1,65.595,8.77438)">
        <path d="M-56.694,35.018C-56.694,35.018 -56.282,35 -56.124,34.993C-55.966,34.986 -55.712,34.975 -55.554,34.968C-55.396,34.962 -55.143,34.951 -54.985,34.944C-54.827,34.937 -54.573,34.926 -54.415,34.919C-54.257,34.912 -54.003,34.899 -53.845,34.891C-53.687,34.882 -53.434,34.867 -53.276,34.859C-53.118,34.85 -52.864,34.839 -52.706,34.83C-52.548,34.822 -52.294,34.804 -52.136,34.795C-51.978,34.785 -51.725,34.773 -51.567,34.763C-51.409,34.753 -51.155,34.734 -50.997,34.724C-50.839,34.714 -50.586,34.699 -50.427,34.689C-50.269,34.678 -50.016,34.66 -49.858,34.649C-49.7,34.638 -49.446,34.62 -49.288,34.607C-49.13,34.595 -48.877,34.573 -48.718,34.561C-48.56,34.548 -48.307,34.528 -48.149,34.515C-47.991,34.501 -47.737,34.479 -47.579,34.465C-47.421,34.452 -47.168,34.43 -47.01,34.416C-46.851,34.401 -46.598,34.377 -46.44,34.362C-46.282,34.347 -46.028,34.322 -45.87,34.306C-45.712,34.29 -45.459,34.262 -45.301,34.245C-45.142,34.228 -44.889,34.2 -44.731,34.182C-44.573,34.163 -44.319,34.133 -44.161,34.115C-44.003,34.096 -43.75,34.067 -43.592,34.047C-43.434,34.027 -43.18,33.993 -43.022,33.972C-42.864,33.952 -42.61,33.92 -42.452,33.898C-42.294,33.877 -42.041,33.84 -41.883,33.817C-41.725,33.793 -41.471,33.756 -41.313,33.732C-41.155,33.708 -40.901,33.669 -40.743,33.643C-40.585,33.618 -40.332,33.575 -40.174,33.548C-40.016,33.52 -39.762,33.476 -39.604,33.448C-39.446,33.42 -39.192,33.375 -39.034,33.345C-38.876,33.316 -38.623,33.266 -38.465,33.235C-38.307,33.204 -38.053,33.154 -37.895,33.122C-37.737,33.089 -37.483,33.036 -37.325,33.001C-37.167,32.967 -36.914,32.91 -36.756,32.874C-36.598,32.837 -36.344,32.777 -36.186,32.739C-36.028,32.701 -35.775,32.641 -35.616,32.601C-35.458,32.561 -35.205,32.494 -35.047,32.452C-34.889,32.41 -34.635,32.34 -34.477,32.296C-34.319,32.252 -34.066,32.179 -33.908,32.133C-33.749,32.086 -33.496,32.012 -33.338,31.963C-33.18,31.914 -32.926,31.833 -32.768,31.782C-32.61,31.731 -32.357,31.648 -32.199,31.594C-32.04,31.54 -31.787,31.449 -31.629,31.392C-31.471,31.335 -31.217,31.242 -31.059,31.183C-30.901,31.123 -30.648,31.026 -30.49,30.963C-30.332,30.901 -30.078,30.799 -29.92,30.733C-29.762,30.667 -29.508,30.558 -29.35,30.489C-29.192,30.419 -28.939,30.306 -28.781,30.233C-28.623,30.161 -28.369,30.04 -28.211,29.964C-28.053,29.887 -27.799,29.761 -27.641,29.68C-27.483,29.599 -27.23,29.464 -27.072,29.379C-26.914,29.294 -26.66,29.156 -26.502,29.067C-26.344,28.978 -26.09,28.831 -25.932,28.737C-25.774,28.643 -25.521,28.488 -25.363,28.39C-25.205,28.292 -24.951,28.132 -24.793,28.028C-24.635,27.925 -24.381,27.752 -24.223,27.642C-24.065,27.533 -23.812,27.356 -23.654,27.242C-23.496,27.127 -23.242,26.937 -23.084,26.816C-22.926,26.696 -22.673,26.5 -22.514,26.373C-22.356,26.247 -22.103,26.036 -21.945,25.902C-21.787,25.768 -21.533,25.549 -21.375,25.409C-21.217,25.269 -20.964,25.039 -20.805,24.892C-20.647,24.745 -20.394,24.505 -20.236,24.35C-20.078,24.195 -19.824,23.938 -19.666,23.775C-19.508,23.612 -19.255,23.345 -19.097,23.173C-18.938,23.001 -18.685,22.718 -18.527,22.538C-18.369,22.358 -18.115,22.064 -17.957,21.875C-17.799,21.686 -17.546,21.374 -17.388,21.174C-17.229,20.974 -16.976,20.646 -16.818,20.436C-16.66,20.227 -16.406,19.884 -16.248,19.664C-16.09,19.444 -15.837,19.08 -15.679,18.849C-15.521,18.617 -15.267,18.238 -15.109,17.995C-14.951,17.751 -14.697,17.35 -14.539,17.094C-14.381,16.838 -14.128,16.417 -13.97,16.148C-13.812,15.878 -13.558,15.435 -13.4,15.152C-13.242,14.868 -12.988,14.404 -12.83,14.106C-12.672,13.808 -12.419,13.317 -12.261,13.004C-12.103,12.691 -11.849,12.177 -11.691,11.848C-11.533,11.519 -11.279,10.979 -11.121,10.633C-10.963,10.286 -10.71,9.714 -10.552,9.35C-10.394,8.985 -10.14,8.389 -9.982,8.006C-9.824,7.624 -9.571,6.994 -9.412,6.592C-9.254,6.189 -9.001,5.527 -8.843,5.103C-8.685,4.68 -8.431,3.985 -8.273,3.54C-8.115,3.095 -7.862,2.364 -7.703,1.896C-7.545,1.428 -7.292,0.205 -7.134,0.166C-6.976,0.128 -6.722,1.185 -6.564,1.616C-6.406,2.047 -6.153,2.822 -5.995,3.271C-5.836,3.72 -5.583,4.425 -5.425,4.852C-5.267,5.279 -5.013,5.946 -4.855,6.351C-4.697,6.757 -4.444,7.39 -4.286,7.776C-4.127,8.162 -3.874,8.766 -3.716,9.134C-3.558,9.501 -3.304,10.074 -3.146,10.424C-2.988,10.773 -2.735,11.318 -2.577,11.65C-2.419,11.982 -2.165,12.5 -2.007,12.816C-1.849,13.132 -1.595,13.625 -1.437,13.925C-1.279,14.226 -1.026,14.696 -0.868,14.982C-0.71,15.267 -0.456,15.713 -0.298,15.985C-0.14,16.257 0.114,16.683 0.272,16.942C0.43,17.201 0.683,17.604 0.841,17.849C0.999,18.095 1.253,18.477 1.411,18.711C1.569,18.944 1.823,19.311 1.981,19.533C2.139,19.755 2.392,20.102 2.55,20.313C2.708,20.524 2.962,20.852 3.12,21.053C3.278,21.254 3.531,21.571 3.69,21.762C3.848,21.953 4.101,22.251 4.259,22.432C4.417,22.614 4.671,22.897 4.829,23.07C4.987,23.243 5.24,23.515 5.398,23.68C5.557,23.844 5.81,24.098 5.968,24.254C6.126,24.409 6.38,24.654 6.538,24.803C6.696,24.952 6.949,25.186 7.107,25.328C7.266,25.469 7.519,25.69 7.677,25.824C7.835,25.958 8.089,26.168 8.247,26.296C8.405,26.423 8.658,26.624 8.816,26.745C8.974,26.867 9.228,27.055 9.386,27.171C9.544,27.287 9.798,27.468 9.956,27.578C10.114,27.689 10.367,27.86 10.525,27.965C10.683,28.069 10.937,28.234 11.095,28.333C11.253,28.433 11.507,28.586 11.665,28.681C11.823,28.775 12.076,28.924 12.234,29.014C12.392,29.104 12.646,29.244 12.804,29.329C12.962,29.415 13.216,29.549 13.374,29.63C13.532,29.712 13.785,29.84 13.943,29.918C14.101,29.995 14.355,30.113 14.513,30.187C14.671,30.26 14.925,30.375 15.083,30.446C15.241,30.516 15.494,30.628 15.652,30.694C15.81,30.76 16.064,30.861 16.222,30.924C16.38,30.987 16.633,31.087 16.792,31.148C16.95,31.208 17.203,31.303 17.361,31.36C17.519,31.418 17.773,31.508 17.931,31.563C18.089,31.617 18.342,31.702 18.501,31.754C18.659,31.805 18.912,31.885 19.07,31.935C19.228,31.984 19.482,32.061 19.64,32.108C19.798,32.155 20.051,32.227 20.209,32.271C20.368,32.315 20.621,32.385 20.779,32.427C20.937,32.469 21.191,32.536 21.349,32.576C21.507,32.616 21.76,32.68 21.918,32.718C22.076,32.756 22.33,32.816 22.488,32.852C22.646,32.889 22.9,32.946 23.058,32.98C23.216,33.014 23.469,33.068 23.627,33.101C23.785,33.134 24.039,33.186 24.197,33.217C24.355,33.249 24.609,33.297 24.767,33.327C24.925,33.357 25.178,33.405 25.336,33.434C25.494,33.462 25.748,33.506 25.906,33.533C26.064,33.559 26.318,33.6 26.476,33.625C26.634,33.651 26.887,33.692 27.045,33.717C27.203,33.742 27.457,33.78 27.615,33.803C27.773,33.826 28.027,33.862 28.185,33.884C28.343,33.906 28.596,33.941 28.754,33.962C28.912,33.983 29.166,34.013 29.324,34.033C29.482,34.052 29.735,34.085 29.894,34.104C30.052,34.123 30.305,34.153 30.463,34.171C30.621,34.189 30.875,34.217 31.033,34.234C31.191,34.252 31.444,34.279 31.603,34.295C31.761,34.311 32.014,34.337 32.172,34.352C32.33,34.367 32.584,34.39 32.742,34.405C32.9,34.419 33.153,34.444 33.311,34.458C33.47,34.472 33.723,34.494 33.881,34.508C34.039,34.521 34.293,34.541 34.451,34.554C34.609,34.566 34.862,34.588 35.02,34.6C35.179,34.612 35.432,34.631 35.59,34.642C35.748,34.654 36.002,34.67 36.16,34.681C36.318,34.692 36.571,34.71 36.729,34.721C36.887,34.731 37.141,34.746 37.299,34.756C37.457,34.765 37.711,34.782 37.869,34.791C38.027,34.801 38.28,34.815 38.438,34.824C38.596,34.832 38.85,34.847 39.008,34.855C39.166,34.863 39.42,34.875 39.578,34.883C39.736,34.891 39.989,34.904 40.147,34.912C40.305,34.92 40.559,34.933 40.717,34.94C40.875,34.948 41.129,34.958 41.287,34.965C41.445,34.972 41.698,34.983 41.856,34.99C42.014,34.997 42.268,35.008 42.426,35.015C42.584,35.021 42.838,35.03 42.996,35.036C43.154,35.042 43.407,35.052 43.565,35.057C43.723,35.062 43.977,35.069 44.135,35.075C44.293,35.08 44.546,35.091 44.705,35.096C44.863,35.101 45.116,35.107 45.274,35.112C45.432,35.116 45.686,35.124 45.844,35.128C46.002,35.133 46.255,35.14 46.413,35.144C46.572,35.149 46.825,35.156 46.983,35.16C47.141,35.164 47.395,35.171 47.553,35.175C47.711,35.179 47.964,35.185 48.122,35.189C48.281,35.193 48.534,35.199 48.692,35.202C48.85,35.206 49.104,35.212 49.262,35.215C49.42,35.218 49.673,35.224 49.831,35.227C49.989,35.23 50.243,35.236 50.401,35.239C50.559,35.242 50.813,35.247 50.971,35.25C51.129,35.252 51.382,35.257 51.54,35.26C51.698,35.262 51.952,35.267 52.11,35.27C52.268,35.273 52.522,35.277 52.68,35.279C52.838,35.281 53.091,35.285 53.249,35.288C53.407,35.29 53.661,35.294 53.819,35.296C53.977,35.299 54.231,35.302 54.389,35.304C54.547,35.307 54.8,35.31 54.958,35.312C55.116,35.314 55.37,35.318 55.528,35.32C55.686,35.322 55.94,35.324 56.098,35.326C56.256,35.328 56.667,35.333 56.667,35.333" style="fill:none;fill-rule:nonzero;stroke:rgb(214,39,40);stroke-width:0.8px;"/>
    </g>
    <g transform="matrix(1,0,0,1,65.595,44.235)">
        <path d="M-56.694,0L57.014,0" style="fill:none;fill-rule:nonzero;stroke:rgb(191,191,191);stroke-width:0.8px;"/>
    </g>
    <g transform="matrix(-0.926968,-0.375141,-0.375141,0.926968,126.499,45.0312)">
        <path d="M0.524,-0.647L4.244,-0.647L3.197,1.94L0.524,-0.647Z" style="fill:rgb(191,191,191);fill-rule:nonzero;stroke:rgb(191,191,191);stroke-width:0.8px;"/>
    </g>
</svg>
