<?xml version="1.0" encoding="UTF-8" standalone="no"?>
<!DOCTYPE svg PUBLIC "-//W3C//DTD SVG 1.1//EN" "http://www.w3.org/Graphics/SVG/1.1/DTD/svg11.dtd">
<svg width="100%" height="100%" viewBox="0 0 137 43" version="1.1" xmlns="http://www.w3.org/2000/svg" xmlns:xlink="http://www.w3.org/1999/xlink" xml:space="preserve" xmlns:serif="http://www.serif.com/" style="fill-rule:evenodd;clip-rule:evenodd;stroke-miterlimit:10;">
    <g transform="matrix(1,0,0,1,65.595,8.70615)">
        <path d="M-56.694,22.402C-56.694,22.402 -56.144,22.363 -55.933,22.348C-55.722,22.332 -55.383,22.307 -55.172,22.291C-54.961,22.275 -54.622,22.249 -54.411,22.232C-54.2,22.215 -53.861,22.188 -53.65,22.171C-53.439,22.153 -53.101,22.125 -52.889,22.107C-52.678,22.088 -52.34,22.057 -52.129,22.038C-51.917,22.019 -51.579,21.989 -51.368,21.969C-51.157,21.949 -50.818,21.915 -50.607,21.894C-50.396,21.873 -50.057,21.84 -49.846,21.818C-49.635,21.797 -49.296,21.761 -49.085,21.738C-48.874,21.716 -48.536,21.677 -48.324,21.653C-48.113,21.629 -47.775,21.59 -47.564,21.565C-47.352,21.54 -47.014,21.499 -46.803,21.473C-46.592,21.447 -46.253,21.404 -46.042,21.377C-45.831,21.35 -45.492,21.306 -45.281,21.277C-45.07,21.249 -44.731,21.201 -44.52,21.171C-44.309,21.141 -43.971,21.091 -43.759,21.06C-43.548,21.029 -43.21,20.979 -42.999,20.947C-42.787,20.914 -42.449,20.86 -42.238,20.826C-42.027,20.792 -41.688,20.736 -41.477,20.701C-41.266,20.665 -40.927,20.606 -40.716,20.568C-40.505,20.531 -40.166,20.471 -39.955,20.432C-39.744,20.393 -39.406,20.328 -39.194,20.287C-38.983,20.246 -38.645,20.179 -38.434,20.136C-38.222,20.093 -37.884,20.023 -37.673,19.978C-37.462,19.933 -37.123,19.859 -36.912,19.812C-36.701,19.766 -36.362,19.691 -36.151,19.642C-35.94,19.594 -35.601,19.511 -35.39,19.46C-35.179,19.409 -34.841,19.327 -34.629,19.274C-34.418,19.22 -34.08,19.131 -33.869,19.075C-33.657,19.019 -33.319,18.928 -33.108,18.87C-32.897,18.812 -32.558,18.716 -32.347,18.655C-32.136,18.594 -31.797,18.494 -31.586,18.43C-31.375,18.366 -31.036,18.261 -30.825,18.194C-30.614,18.127 -30.276,18.018 -30.064,17.948C-29.853,17.878 -29.515,17.764 -29.304,17.691C-29.092,17.618 -28.754,17.498 -28.543,17.421C-28.332,17.345 -27.993,17.22 -27.782,17.14C-27.571,17.06 -27.232,16.929 -27.021,16.845C-26.81,16.762 -26.471,16.626 -26.26,16.538C-26.049,16.451 -25.711,16.306 -25.499,16.214C-25.288,16.123 -24.95,15.974 -24.739,15.879C-24.527,15.783 -24.189,15.626 -23.978,15.526C-23.767,15.426 -23.428,15.263 -23.217,15.158C-23.006,15.053 -22.667,14.88 -22.456,14.77C-22.245,14.661 -21.906,14.483 -21.695,14.369C-21.484,14.255 -21.146,14.068 -20.934,13.948C-20.723,13.828 -20.385,13.632 -20.174,13.506C-19.962,13.381 -19.624,13.176 -19.413,13.046C-19.202,12.915 -18.863,12.701 -18.652,12.564C-18.441,12.427 -18.102,12.203 -17.891,12.06C-17.68,11.917 -17.341,11.683 -17.13,11.534C-16.919,11.384 -16.581,11.139 -16.369,10.983C-16.158,10.827 -15.82,10.57 -15.609,10.406C-15.397,10.243 -15.059,9.975 -14.848,9.804C-14.637,9.633 -14.298,9.352 -14.087,9.173C-13.876,8.994 -13.537,8.701 -13.326,8.514C-13.115,8.327 -12.776,8.02 -12.565,7.824C-12.354,7.629 -12.016,7.31 -11.804,7.106C-11.593,6.901 -11.255,6.566 -11.044,6.352C-10.832,6.138 -10.494,5.787 -10.283,5.563C-10.072,5.339 -9.733,4.973 -9.522,4.738C-9.311,4.504 -8.972,4.12 -8.761,3.876C-8.55,3.631 -8.211,3.232 -8,2.976C-7.789,2.72 -7.451,2.3 -7.239,2.033C-7.028,1.765 -6.69,1.328 -6.479,1.048C-6.267,0.768 -5.929,0.035 -5.718,0.018C-5.507,0 -5.168,0.658 -4.957,0.92C-4.746,1.183 -4.407,1.641 -4.196,1.91C-3.985,2.179 -3.646,2.6 -3.435,2.858C-3.224,3.115 -2.886,3.519 -2.674,3.765C-2.463,4.011 -2.125,4.397 -1.914,4.632C-1.702,4.867 -1.364,5.234 -1.153,5.459C-0.942,5.684 -0.603,6.038 -0.392,6.253C-0.181,6.469 0.158,6.806 0.369,7.011C0.58,7.217 0.919,7.538 1.13,7.734C1.341,7.931 1.679,8.241 1.891,8.429C2.102,8.617 2.44,8.911 2.651,9.091C2.863,9.271 3.201,9.554 3.412,9.726C3.623,9.898 3.962,10.166 4.173,10.331C4.384,10.495 4.723,10.752 4.934,10.91C5.145,11.067 5.484,11.315 5.695,11.465C5.906,11.616 6.244,11.85 6.456,11.994C6.667,12.138 7.005,12.364 7.216,12.502C7.428,12.64 7.766,12.855 7.977,12.986C8.188,13.118 8.527,13.324 8.738,13.45C8.949,13.575 9.288,13.771 9.499,13.892C9.71,14.012 10.049,14.202 10.26,14.317C10.471,14.432 10.81,14.611 11.021,14.721C11.232,14.831 11.57,15.003 11.781,15.109C11.993,15.214 12.331,15.379 12.542,15.479C12.753,15.58 13.092,15.737 13.303,15.833C13.514,15.93 13.853,16.08 14.064,16.172C14.275,16.263 14.614,16.407 14.825,16.495C15.036,16.583 15.375,16.723 15.586,16.807C15.797,16.891 16.135,17.022 16.346,17.103C16.558,17.183 16.896,17.309 17.107,17.386C17.318,17.463 17.657,17.584 17.868,17.658C18.079,17.731 18.418,17.845 18.629,17.915C18.84,17.985 19.179,18.096 19.39,18.164C19.601,18.231 19.94,18.335 20.151,18.4C20.362,18.464 20.7,18.565 20.911,18.626C21.123,18.688 21.461,18.785 21.672,18.843C21.883,18.902 22.222,18.993 22.433,19.049C22.644,19.105 22.983,19.194 23.194,19.247C23.405,19.301 23.744,19.385 23.955,19.437C24.166,19.488 24.505,19.57 24.716,19.619C24.927,19.668 25.265,19.744 25.476,19.791C25.688,19.838 26.026,19.912 26.237,19.957C26.448,20.002 26.787,20.074 26.998,20.117C27.209,20.16 27.548,20.227 27.759,20.268C27.97,20.309 28.309,20.373 28.52,20.413C28.731,20.452 29.07,20.514 29.281,20.552C29.492,20.59 29.83,20.649 30.041,20.684C30.253,20.72 30.591,20.775 30.802,20.809C31.013,20.843 31.352,20.897 31.563,20.93C31.774,20.963 32.113,21.015 32.324,21.046C32.535,21.077 32.874,21.127 33.085,21.157C33.296,21.187 33.635,21.234 33.846,21.263C34.057,21.292 34.395,21.337 34.606,21.365C34.818,21.392 35.156,21.435 35.367,21.462C35.578,21.488 35.917,21.529 36.128,21.554C36.339,21.579 36.678,21.619 36.889,21.643C37.1,21.667 37.439,21.703 37.65,21.726C37.861,21.749 38.2,21.787 38.411,21.809C38.622,21.831 38.96,21.864 39.172,21.885C39.383,21.906 39.721,21.94 39.932,21.96C40.143,21.981 40.482,22.012 40.693,22.031C40.904,22.05 41.243,22.079 41.454,22.097C41.665,22.115 42.004,22.146 42.215,22.164C42.426,22.181 42.765,22.208 42.976,22.225C43.187,22.241 43.525,22.268 43.737,22.284C43.948,22.3 44.286,22.325 44.497,22.341C44.708,22.356 45.047,22.38 45.258,22.395C45.469,22.41 45.808,22.433 46.019,22.447C46.23,22.461 46.569,22.483 46.78,22.497C46.991,22.51 47.33,22.531 47.541,22.544C47.752,22.557 48.09,22.577 48.301,22.589C48.513,22.601 48.851,22.619 49.062,22.631C49.273,22.643 49.612,22.662 49.823,22.674C50.034,22.685 50.373,22.701 50.584,22.711C50.795,22.722 51.134,22.739 51.345,22.749C51.556,22.76 51.895,22.777 52.106,22.787C52.317,22.797 52.655,22.811 52.867,22.82C53.078,22.829 53.416,22.844 53.627,22.854C53.838,22.863 54.177,22.878 54.388,22.886C54.599,22.895 54.938,22.909 55.149,22.917C55.36,22.925 55.699,22.937 55.91,22.945C56.121,22.953 56.671,22.974 56.671,22.974L56.694,23.576L-56.694,23.576L-56.694,22.402Z" style="fill:rgb(31,119,180);fill-opacity:0.4;fill-rule:nonzero;"/>
    </g>
    <g transform="matrix(1,0,0,1,65.595,8.30008)">
        <path d="M-56.694,22.808C-56.694,22.808 -56.282,22.779 -56.124,22.768C-55.966,22.756 -55.712,22.737 -55.554,22.725C-55.396,22.714 -55.143,22.695 -54.985,22.683C-54.827,22.67 -54.573,22.65 -54.415,22.638C-54.257,22.626 -54.003,22.606 -53.845,22.593C-53.687,22.58 -53.434,22.559 -53.276,22.546C-53.118,22.532 -52.864,22.51 -52.706,22.496C-52.548,22.482 -52.294,22.461 -52.136,22.447C-51.978,22.433 -51.725,22.409 -51.567,22.395C-51.409,22.38 -51.155,22.356 -50.997,22.34C-50.839,22.325 -50.586,22.299 -50.427,22.283C-50.269,22.267 -50.016,22.241 -49.858,22.225C-49.7,22.208 -49.446,22.182 -49.288,22.166C-49.13,22.149 -48.877,22.121 -48.718,22.104C-48.56,22.086 -48.307,22.058 -48.149,22.04C-47.991,22.022 -47.737,21.993 -47.579,21.974C-47.421,21.955 -47.168,21.925 -47.01,21.906C-46.851,21.886 -46.598,21.855 -46.44,21.835C-46.282,21.815 -46.028,21.782 -45.87,21.762C-45.712,21.741 -45.459,21.707 -45.301,21.686C-45.142,21.665 -44.889,21.63 -44.731,21.608C-44.573,21.586 -44.319,21.548 -44.161,21.525C-44.003,21.502 -43.75,21.466 -43.592,21.442C-43.434,21.419 -43.18,21.38 -43.022,21.355C-42.864,21.331 -42.61,21.29 -42.452,21.265C-42.294,21.24 -42.041,21.199 -41.883,21.173C-41.725,21.147 -41.471,21.105 -41.313,21.078C-41.155,21.051 -40.901,21.007 -40.743,20.979C-40.585,20.951 -40.332,20.906 -40.174,20.878C-40.016,20.849 -39.762,20.801 -39.604,20.771C-39.446,20.741 -39.192,20.691 -39.034,20.66C-38.876,20.63 -38.623,20.581 -38.465,20.549C-38.307,20.518 -38.053,20.464 -37.895,20.431C-37.737,20.398 -37.483,20.345 -37.325,20.311C-37.167,20.277 -36.914,20.221 -36.756,20.186C-36.598,20.15 -36.344,20.093 -36.186,20.056C-36.028,20.019 -35.775,19.959 -35.616,19.921C-35.458,19.883 -35.205,19.823 -35.047,19.784C-34.889,19.745 -34.635,19.68 -34.477,19.64C-34.319,19.599 -34.066,19.535 -33.908,19.493C-33.749,19.452 -33.496,19.383 -33.338,19.34C-33.18,19.297 -32.926,19.226 -32.768,19.181C-32.61,19.137 -32.357,19.064 -32.199,19.018C-32.04,18.972 -31.787,18.896 -31.629,18.848C-31.471,18.8 -31.217,18.723 -31.059,18.673C-30.901,18.624 -30.648,18.545 -30.49,18.494C-30.332,18.443 -30.078,18.357 -29.92,18.304C-29.762,18.252 -29.508,18.168 -29.35,18.113C-29.192,18.059 -28.939,17.969 -28.781,17.913C-28.623,17.856 -28.369,17.763 -28.211,17.705C-28.053,17.646 -27.799,17.552 -27.641,17.492C-27.483,17.431 -27.23,17.332 -27.072,17.27C-26.914,17.208 -26.66,17.107 -26.502,17.043C-26.344,16.979 -26.09,16.873 -25.932,16.807C-25.774,16.74 -25.521,16.63 -25.363,16.561C-25.205,16.492 -24.951,16.38 -24.793,16.308C-24.635,16.237 -24.381,16.12 -24.223,16.046C-24.065,15.972 -23.812,15.853 -23.654,15.777C-23.496,15.701 -23.242,15.577 -23.084,15.498C-22.926,15.419 -22.673,15.289 -22.514,15.207C-22.356,15.126 -22.103,14.994 -21.945,14.91C-21.787,14.826 -21.533,14.687 -21.375,14.6C-21.217,14.513 -20.964,14.371 -20.805,14.281C-20.647,14.191 -20.394,14.043 -20.236,13.95C-20.078,13.857 -19.824,13.704 -19.666,13.608C-19.508,13.512 -19.255,13.356 -19.097,13.256C-18.938,13.156 -18.685,12.993 -18.527,12.89C-18.369,12.786 -18.115,12.618 -17.957,12.511C-17.799,12.405 -17.546,12.231 -17.388,12.121C-17.229,12.011 -16.976,11.832 -16.818,11.718C-16.66,11.604 -16.406,11.417 -16.248,11.299C-16.09,11.181 -15.837,10.989 -15.679,10.867C-15.521,10.745 -15.267,10.547 -15.109,10.421C-14.951,10.294 -14.697,10.088 -14.539,9.957C-14.381,9.827 -14.128,9.615 -13.97,9.48C-13.812,9.346 -13.558,9.126 -13.4,8.986C-13.242,8.847 -12.988,8.62 -12.83,8.476C-12.672,8.332 -12.419,8.096 -12.261,7.946C-12.103,7.797 -11.849,7.555 -11.691,7.401C-11.533,7.247 -11.279,6.995 -11.121,6.836C-10.963,6.677 -10.71,6.418 -10.552,6.253C-10.394,6.088 -10.14,5.818 -9.982,5.648C-9.824,5.477 -9.571,5.201 -9.412,5.024C-9.254,4.848 -9.001,4.559 -8.843,4.376C-8.685,4.194 -8.431,3.899 -8.273,3.71C-8.115,3.522 -7.862,3.213 -7.703,3.018C-7.545,2.823 -7.292,2.506 -7.134,2.304C-6.976,2.103 -6.722,1.776 -6.564,1.567C-6.406,1.359 -6.153,0.925 -5.995,0.804C-5.836,0.683 -5.583,0.602 -5.425,0.693C-5.267,0.784 -5.013,1.252 -4.855,1.461C-4.697,1.67 -4.444,2.001 -4.286,2.203C-4.127,2.405 -3.874,2.723 -3.716,2.919C-3.558,3.114 -3.304,3.424 -3.146,3.613C-2.988,3.803 -2.735,4.102 -2.577,4.285C-2.419,4.468 -2.165,4.755 -2.007,4.932C-1.849,5.109 -1.595,5.389 -1.437,5.561C-1.279,5.732 -1.026,6.002 -0.868,6.167C-0.71,6.333 -0.456,6.593 -0.298,6.754C-0.14,6.914 0.114,7.168 0.272,7.323C0.43,7.478 0.683,7.722 0.841,7.871C0.999,8.021 1.253,8.255 1.411,8.4C1.569,8.545 1.823,8.775 1.981,8.915C2.139,9.056 2.392,9.276 2.55,9.411C2.708,9.547 2.962,9.76 3.12,9.891C3.278,10.022 3.531,10.228 3.69,10.354C3.848,10.481 4.101,10.681 4.259,10.803C4.417,10.926 4.671,11.119 4.829,11.238C4.987,11.357 5.24,11.544 5.398,11.658C5.557,11.773 5.81,11.954 5.968,12.065C6.126,12.175 6.38,12.35 6.538,12.457C6.696,12.564 6.949,12.734 7.107,12.838C7.266,12.941 7.519,13.104 7.677,13.204C7.835,13.304 8.089,13.461 8.247,13.558C8.405,13.655 8.658,13.809 8.816,13.903C8.974,13.997 9.228,14.143 9.386,14.234C9.544,14.324 9.798,14.468 9.956,14.555C10.114,14.643 10.367,14.78 10.525,14.864C10.683,14.949 10.937,15.085 11.095,15.167C11.253,15.25 11.507,15.379 11.665,15.457C11.823,15.536 12.076,15.66 12.234,15.736C12.392,15.813 12.646,15.934 12.804,16.008C12.962,16.083 13.216,16.201 13.374,16.273C13.532,16.345 13.785,16.456 13.943,16.525C14.101,16.595 14.355,16.704 14.513,16.772C14.671,16.839 14.925,16.945 15.083,17.01C15.241,17.075 15.494,17.177 15.652,17.239C15.81,17.302 16.064,17.4 16.222,17.461C16.38,17.522 16.633,17.618 16.792,17.676C16.95,17.735 17.203,17.828 17.361,17.884C17.519,17.941 17.773,18.03 17.931,18.085C18.089,18.14 18.342,18.225 18.501,18.278C18.659,18.332 18.912,18.417 19.07,18.468C19.228,18.519 19.482,18.598 19.64,18.647C19.798,18.697 20.051,18.777 20.209,18.825C20.368,18.873 20.621,18.949 20.779,18.995C20.937,19.041 21.191,19.113 21.349,19.158C21.507,19.203 21.76,19.275 21.918,19.318C22.076,19.362 22.33,19.43 22.488,19.472C22.646,19.514 22.9,19.581 23.058,19.621C23.216,19.661 23.469,19.724 23.627,19.763C23.785,19.802 24.039,19.864 24.197,19.902C24.355,19.94 24.609,20 24.767,20.036C24.925,20.073 25.178,20.131 25.336,20.167C25.494,20.202 25.748,20.257 25.906,20.292C26.064,20.326 26.318,20.381 26.476,20.415C26.634,20.448 26.887,20.501 27.045,20.533C27.203,20.565 27.457,20.615 27.615,20.646C27.773,20.677 28.027,20.725 28.185,20.755C28.343,20.785 28.596,20.832 28.754,20.861C28.912,20.89 29.166,20.937 29.324,20.965C29.482,20.994 29.735,21.037 29.894,21.064C30.052,21.092 30.305,21.135 30.463,21.161C30.621,21.188 30.875,21.228 31.033,21.254C31.191,21.279 31.444,21.318 31.603,21.343C31.761,21.368 32.014,21.407 32.172,21.431C32.33,21.454 32.584,21.49 32.742,21.513C32.9,21.536 33.153,21.574 33.311,21.596C33.47,21.618 33.723,21.653 33.881,21.674C34.039,21.695 34.293,21.729 34.451,21.75C34.609,21.77 34.862,21.802 35.02,21.823C35.179,21.843 35.432,21.876 35.59,21.896C35.748,21.915 36.002,21.946 36.16,21.965C36.318,21.983 36.571,22.013 36.729,22.031C36.887,22.049 37.141,22.077 37.299,22.095C37.457,22.112 37.711,22.139 37.869,22.156C38.027,22.173 38.28,22.201 38.438,22.218C38.596,22.234 38.85,22.259 39.008,22.274C39.166,22.29 39.42,22.316 39.578,22.331C39.736,22.346 39.989,22.37 40.147,22.385C40.305,22.4 40.559,22.425 40.717,22.44C40.875,22.454 41.129,22.476 41.287,22.489C41.445,22.503 41.698,22.525 41.856,22.539C42.014,22.552 42.268,22.573 42.426,22.586C42.584,22.599 42.838,22.621 42.996,22.633C43.154,22.646 43.407,22.664 43.565,22.676C43.723,22.688 43.977,22.709 44.135,22.721C44.293,22.732 44.546,22.749 44.705,22.76C44.863,22.772 45.116,22.79 45.274,22.801C45.432,22.812 45.686,22.83 45.844,22.841C46.002,22.852 46.255,22.869 46.413,22.879C46.572,22.889 46.825,22.905 46.983,22.914C47.141,22.924 47.395,22.94 47.553,22.95C47.711,22.959 47.964,22.974 48.122,22.983C48.281,22.992 48.534,23.007 48.692,23.016C48.85,23.025 49.104,23.04 49.262,23.049C49.42,23.058 49.673,23.071 49.831,23.08C49.989,23.088 50.243,23.1 50.401,23.108C50.559,23.116 50.813,23.131 50.971,23.139C51.129,23.147 51.382,23.157 51.54,23.165C51.698,23.172 51.952,23.186 52.11,23.193C52.268,23.2 52.522,23.212 52.68,23.219C52.838,23.226 53.091,23.238 53.249,23.245C53.407,23.252 53.661,23.262 53.819,23.269C53.977,23.275 54.231,23.286 54.389,23.292C54.547,23.299 54.8,23.307 54.958,23.314C55.116,23.32 55.37,23.331 55.528,23.337C55.686,23.344 55.94,23.353 56.098,23.359C56.256,23.365 56.667,23.38 56.667,23.38" style="fill:none;fill-rule:nonzero;stroke:rgb(31,119,180);stroke-width:0.8px;"/>
    </g>
    <g transform="matrix(1,0,0,1,65.595,32.282)">
        <path d="M-56.694,0L57.014,0" style="fill:none;fill-rule:nonzero;stroke:rgb(191,191,191);stroke-width:0.8px;"/>
    </g>
    <g transform="matrix(-0.926968,-0.375141,-0.375141,0.926968,126.499,33.0782)">
        <path d="M0.524,-0.647L4.244,-0.647L3.197,1.94L0.524,-0.647Z" style="fill:rgb(191,191,191);fill-rule:nonzero;stroke:rgb(191,191,191);stroke-width:0.8px;"/>
    </g>
</svg>
