<?xml version="1.0" encoding="UTF-8" standalone="no"?>
<!DOCTYPE svg PUBLIC "-//W3C//DTD SVG 1.1//EN" "http://www.w3.org/Graphics/SVG/1.1/DTD/svg11.dtd">
<svg width="100%" height="100%" viewBox="0 0 137 34" version="1.1" xmlns="http://www.w3.org/2000/svg" xmlns:xlink="http://www.w3.org/1999/xlink" xml:space="preserve" xmlns:serif="http://www.serif.com/" style="fill-rule:evenodd;clip-rule:evenodd;stroke-miterlimit:10;">
    <g transform="matrix(1,0,0,1,65.595,8.94096)">
        <path d="M-56.694,12.635C-56.694,12.635 -56.144,12.607 -55.933,12.595C-55.722,12.584 -55.383,12.565 -55.172,12.553C-54.961,12.541 -54.622,12.522 -54.411,12.51C-54.2,12.499 -53.861,12.479 -53.65,12.466C-53.439,12.454 -53.101,12.434 -52.889,12.421C-52.678,12.408 -52.34,12.387 -52.129,12.374C-51.917,12.361 -51.579,12.341 -51.368,12.328C-51.157,12.314 -50.818,12.292 -50.607,12.278C-50.396,12.264 -50.057,12.241 -49.846,12.227C-49.635,12.213 -49.296,12.19 -49.085,12.176C-48.874,12.161 -48.536,12.137 -48.324,12.122C-48.113,12.107 -47.775,12.083 -47.564,12.068C-47.352,12.053 -47.014,12.027 -46.803,12.011C-46.592,11.996 -46.253,11.971 -46.042,11.955C-45.831,11.939 -45.492,11.912 -45.281,11.895C-45.07,11.878 -44.731,11.851 -44.52,11.834C-44.309,11.817 -43.971,11.789 -43.759,11.772C-43.548,11.754 -43.21,11.726 -42.999,11.708C-42.787,11.69 -42.449,11.66 -42.238,11.641C-42.027,11.623 -41.688,11.594 -41.477,11.574C-41.266,11.555 -40.927,11.523 -40.716,11.504C-40.505,11.484 -40.166,11.453 -39.955,11.433C-39.744,11.413 -39.406,11.38 -39.194,11.359C-38.983,11.338 -38.645,11.305 -38.434,11.284C-38.222,11.263 -37.884,11.229 -37.673,11.207C-37.462,11.186 -37.123,11.15 -36.912,11.128C-36.701,11.106 -36.362,11.069 -36.151,11.046C-35.94,11.023 -35.601,10.986 -35.39,10.962C-35.179,10.938 -34.841,10.9 -34.629,10.875C-34.418,10.851 -34.08,10.811 -33.869,10.786C-33.657,10.761 -33.319,10.721 -33.108,10.696C-32.897,10.67 -32.558,10.628 -32.347,10.602C-32.136,10.576 -31.797,10.534 -31.586,10.507C-31.375,10.48 -31.036,10.436 -30.825,10.408C-30.614,10.38 -30.276,10.336 -30.064,10.307C-29.853,10.279 -29.515,10.232 -29.304,10.202C-29.092,10.173 -28.754,10.126 -28.543,10.096C-28.332,10.066 -27.993,10.018 -27.782,9.987C-27.571,9.956 -27.232,9.905 -27.021,9.873C-26.81,9.841 -26.471,9.789 -26.26,9.757C-26.049,9.724 -25.711,9.673 -25.499,9.639C-25.288,9.606 -24.95,9.55 -24.739,9.516C-24.527,9.482 -24.189,9.427 -23.978,9.391C-23.767,9.356 -23.428,9.299 -23.217,9.263C-23.006,9.226 -22.667,9.168 -22.456,9.131C-22.245,9.093 -21.906,9.033 -21.695,8.994C-21.484,8.956 -21.146,8.894 -20.934,8.854C-20.723,8.815 -20.385,8.751 -20.174,8.711C-19.962,8.671 -19.624,8.605 -19.413,8.564C-19.202,8.522 -18.863,8.454 -18.652,8.412C-18.441,8.369 -18.102,8.299 -17.891,8.256C-17.68,8.212 -17.341,8.142 -17.13,8.097C-16.919,8.052 -16.581,7.979 -16.369,7.933C-16.158,7.886 -15.82,7.811 -15.609,7.764C-15.397,7.716 -15.059,7.64 -14.848,7.591C-14.637,7.542 -14.298,7.462 -14.087,7.412C-13.876,7.362 -13.537,7.281 -13.326,7.229C-13.115,7.178 -12.776,7.095 -12.565,7.042C-12.354,6.99 -12.016,6.904 -11.804,6.849C-11.593,6.795 -11.255,6.707 -11.044,6.651C-10.832,6.595 -10.494,6.506 -10.283,6.448C-10.072,6.391 -9.733,6.297 -9.522,6.238C-9.311,6.179 -8.972,6.085 -8.761,6.025C-8.55,5.964 -8.211,5.865 -8,5.803C-7.789,5.741 -7.451,5.642 -7.239,5.578C-7.028,5.514 -6.69,5.409 -6.479,5.344C-6.267,5.278 -5.929,5.173 -5.718,5.106C-5.507,5.039 -5.168,4.93 -4.957,4.861C-4.746,4.792 -4.407,4.679 -4.196,4.608C-3.985,4.537 -3.646,4.421 -3.435,4.349C-3.224,4.276 -2.886,4.157 -2.674,4.082C-2.463,4.007 -2.125,3.887 -1.914,3.81C-1.702,3.733 -1.364,3.608 -1.153,3.529C-0.942,3.45 -0.603,3.321 -0.392,3.24C-0.181,3.159 0.158,3.027 0.369,2.944C0.58,2.86 0.919,2.726 1.13,2.64C1.341,2.555 1.679,2.415 1.891,2.327C2.102,2.239 2.44,2.097 2.651,2.007C2.863,1.916 3.201,1.769 3.412,1.676C3.623,1.583 3.962,1.433 4.173,1.338C4.384,1.242 4.723,1.088 4.934,0.99C5.145,0.893 5.484,0.734 5.695,0.633C5.906,0.532 6.244,0.351 6.456,0.266C6.667,0.18 7.005,0 7.216,0.018C7.428,0.035 7.766,0.29 7.977,0.392C8.188,0.494 8.527,0.655 8.738,0.755C8.949,0.854 9.288,1.012 9.499,1.109C9.71,1.206 10.049,1.36 10.26,1.454C10.471,1.548 10.81,1.698 11.021,1.79C11.232,1.881 11.57,2.026 11.781,2.116C11.993,2.205 12.331,2.348 12.542,2.435C12.753,2.522 13.092,2.66 13.303,2.745C13.514,2.83 13.853,2.963 14.064,3.046C14.275,3.128 14.614,3.259 14.825,3.339C15.036,3.42 15.375,3.547 15.586,3.626C15.797,3.704 16.135,3.827 16.346,3.903C16.558,3.979 16.896,4.1 17.107,4.174C17.318,4.248 17.657,4.366 17.868,4.438C18.079,4.51 18.418,4.624 18.629,4.695C18.84,4.765 19.179,4.876 19.39,4.944C19.601,5.013 19.94,5.121 20.151,5.188C20.362,5.255 20.7,5.36 20.911,5.425C21.123,5.489 21.461,5.591 21.672,5.654C21.883,5.717 22.222,5.818 22.433,5.88C22.644,5.941 22.983,6.038 23.194,6.098C23.405,6.158 23.744,6.253 23.955,6.311C24.166,6.369 24.505,6.461 24.716,6.518C24.927,6.574 25.265,6.664 25.476,6.719C25.688,6.775 26.026,6.862 26.237,6.916C26.448,6.97 26.787,7.054 26.998,7.106C27.209,7.158 27.548,7.242 27.759,7.293C27.97,7.344 28.309,7.424 28.52,7.473C28.731,7.523 29.07,7.602 29.281,7.65C29.492,7.699 29.83,7.775 30.041,7.822C30.253,7.869 30.591,7.944 30.802,7.989C31.013,8.035 31.352,8.106 31.563,8.151C31.774,8.195 32.113,8.266 32.324,8.31C32.535,8.353 32.874,8.422 33.085,8.464C33.296,8.506 33.635,8.574 33.846,8.615C34.057,8.656 34.395,8.72 34.606,8.76C34.818,8.8 35.156,8.863 35.367,8.902C35.578,8.941 35.917,9.003 36.128,9.041C36.339,9.079 36.678,9.139 36.889,9.176C37.1,9.213 37.439,9.27 37.65,9.306C37.861,9.342 38.2,9.399 38.411,9.434C38.622,9.469 38.96,9.525 39.172,9.559C39.383,9.593 39.721,9.646 39.932,9.679C40.143,9.712 40.482,9.766 40.693,9.798C40.904,9.83 41.243,9.88 41.454,9.912C41.665,9.943 42.004,9.993 42.215,10.024C42.426,10.055 42.765,10.103 42.976,10.133C43.187,10.163 43.525,10.21 43.737,10.239C43.948,10.268 44.286,10.313 44.497,10.341C44.708,10.369 45.047,10.414 45.258,10.442C45.469,10.469 45.808,10.513 46.019,10.54C46.23,10.567 46.569,10.609 46.78,10.635C46.991,10.66 47.33,10.701 47.541,10.727C47.752,10.752 48.09,10.793 48.301,10.818C48.513,10.842 48.851,10.881 49.062,10.905C49.273,10.929 49.612,10.967 49.823,10.991C50.034,11.014 50.373,11.051 50.584,11.074C50.795,11.097 51.134,11.133 51.345,11.155C51.556,11.177 51.895,11.211 52.106,11.233C52.317,11.254 52.655,11.288 52.867,11.309C53.078,11.33 53.416,11.364 53.627,11.385C53.838,11.405 54.177,11.437 54.388,11.457C54.599,11.477 54.938,11.508 55.149,11.528C55.36,11.547 55.699,11.579 55.91,11.597C56.121,11.616 56.671,11.664 56.671,11.664L56.694,14.129L-56.694,14.129L-56.694,12.635Z" style="fill:rgb(23,190,207);fill-opacity:0.4;fill-rule:nonzero;"/>
    </g>
    <g transform="matrix(1,0,0,1,65.595,7.40793)">
        <path d="M-56.694,14.168C-56.694,14.168 -56.282,14.147 -56.124,14.138C-55.966,14.13 -55.712,14.116 -55.554,14.107C-55.396,14.098 -55.143,14.085 -54.985,14.076C-54.827,14.067 -54.573,14.053 -54.415,14.044C-54.257,14.034 -54.003,14.02 -53.845,14.011C-53.687,14.001 -53.434,13.986 -53.276,13.976C-53.118,13.967 -52.864,13.952 -52.706,13.943C-52.548,13.933 -52.294,13.918 -52.136,13.909C-51.978,13.899 -51.725,13.883 -51.567,13.873C-51.409,13.863 -51.155,13.847 -50.997,13.836C-50.839,13.826 -50.586,13.81 -50.427,13.8C-50.269,13.789 -50.016,13.772 -49.858,13.761C-49.7,13.75 -49.446,13.734 -49.288,13.723C-49.13,13.712 -48.877,13.694 -48.718,13.683C-48.56,13.672 -48.307,13.655 -48.149,13.643C-47.991,13.632 -47.737,13.614 -47.579,13.602C-47.421,13.591 -47.168,13.572 -47.01,13.56C-46.851,13.548 -46.598,13.529 -46.44,13.517C-46.282,13.505 -46.028,13.486 -45.87,13.473C-45.712,13.461 -45.459,13.442 -45.301,13.429C-45.142,13.417 -44.889,13.397 -44.731,13.384C-44.573,13.371 -44.319,13.35 -44.161,13.337C-44.003,13.324 -43.75,13.304 -43.592,13.29C-43.434,13.277 -43.18,13.256 -43.022,13.242C-42.864,13.229 -42.61,13.208 -42.452,13.194C-42.294,13.18 -42.041,13.157 -41.883,13.143C-41.725,13.129 -41.471,13.106 -41.313,13.092C-41.155,13.078 -40.901,13.054 -40.743,13.04C-40.585,13.025 -40.332,13.002 -40.174,12.987C-40.016,12.972 -39.762,12.947 -39.604,12.932C-39.446,12.917 -39.192,12.892 -39.034,12.877C-38.876,12.861 -38.623,12.836 -38.465,12.82C-38.307,12.804 -38.053,12.779 -37.895,12.763C-37.737,12.747 -37.483,12.72 -37.325,12.704C-37.167,12.687 -36.914,12.661 -36.756,12.644C-36.598,12.628 -36.344,12.601 -36.186,12.583C-36.028,12.566 -35.775,12.537 -35.616,12.519C-35.458,12.502 -35.205,12.473 -35.047,12.456C-34.889,12.438 -34.635,12.41 -34.477,12.392C-34.319,12.374 -34.066,12.344 -33.908,12.325C-33.749,12.306 -33.496,12.276 -33.338,12.257C-33.18,12.238 -32.926,12.207 -32.768,12.188C-32.61,12.168 -32.357,12.136 -32.199,12.117C-32.04,12.097 -31.787,12.066 -31.629,12.046C-31.471,12.026 -31.217,11.993 -31.059,11.972C-30.901,11.951 -30.648,11.918 -30.49,11.897C-30.332,11.876 -30.078,11.842 -29.92,11.82C-29.762,11.799 -29.508,11.764 -29.35,11.742C-29.192,11.721 -28.939,11.685 -28.781,11.663C-28.623,11.641 -28.369,11.605 -28.211,11.582C-28.053,11.56 -27.799,11.522 -27.641,11.498C-27.483,11.475 -27.23,11.437 -27.072,11.414C-26.914,11.39 -26.66,11.352 -26.502,11.328C-26.344,11.304 -26.09,11.265 -25.932,11.241C-25.774,11.216 -25.521,11.175 -25.363,11.15C-25.205,11.125 -24.951,11.085 -24.793,11.059C-24.635,11.033 -24.381,10.992 -24.223,10.966C-24.065,10.939 -23.812,10.896 -23.654,10.869C-23.496,10.842 -23.242,10.8 -23.084,10.773C-22.926,10.746 -22.673,10.702 -22.514,10.674C-22.356,10.646 -22.103,10.6 -21.945,10.572C-21.787,10.543 -21.533,10.497 -21.375,10.468C-21.217,10.439 -20.964,10.393 -20.805,10.363C-20.647,10.334 -20.394,10.285 -20.236,10.255C-20.078,10.225 -19.824,10.177 -19.666,10.146C-19.508,10.115 -19.255,10.065 -19.097,10.034C-18.938,10.002 -18.685,9.951 -18.527,9.919C-18.369,9.887 -18.115,9.836 -17.957,9.803C-17.799,9.77 -17.546,9.717 -17.388,9.684C-17.229,9.651 -16.976,9.596 -16.818,9.562C-16.66,9.528 -16.406,9.473 -16.248,9.439C-16.09,9.404 -15.837,9.348 -15.679,9.312C-15.521,9.277 -15.267,9.22 -15.109,9.184C-14.951,9.147 -14.697,9.088 -14.539,9.052C-14.381,9.015 -14.128,8.956 -13.97,8.918C-13.812,8.881 -13.558,8.819 -13.4,8.781C-13.242,8.742 -12.988,8.68 -12.83,8.641C-12.672,8.602 -12.419,8.539 -12.261,8.499C-12.103,8.459 -11.849,8.393 -11.691,8.353C-11.533,8.312 -11.279,8.247 -11.121,8.205C-10.963,8.164 -10.71,8.096 -10.552,8.054C-10.394,8.011 -10.14,7.942 -9.982,7.899C-9.824,7.856 -9.571,7.786 -9.412,7.742C-9.254,7.698 -9.001,7.625 -8.843,7.58C-8.685,7.535 -8.431,7.463 -8.273,7.417C-8.115,7.371 -7.862,7.297 -7.703,7.25C-7.545,7.203 -7.292,7.126 -7.134,7.078C-6.976,7.03 -6.722,6.953 -6.564,6.904C-6.406,6.855 -6.153,6.777 -5.995,6.727C-5.836,6.677 -5.583,6.596 -5.425,6.545C-5.267,6.494 -5.013,6.411 -4.855,6.359C-4.697,6.308 -4.444,6.224 -4.286,6.171C-4.127,6.118 -3.874,6.032 -3.716,5.978C-3.558,5.924 -3.304,5.836 -3.146,5.781C-2.988,5.726 -2.735,5.637 -2.577,5.581C-2.419,5.525 -2.165,5.435 -2.007,5.377C-1.849,5.32 -1.595,5.226 -1.437,5.167C-1.279,5.108 -1.026,5.014 -0.868,4.955C-0.71,4.895 -0.456,4.798 -0.298,4.737C-0.14,4.677 0.114,4.577 0.272,4.515C0.43,4.453 0.683,4.353 0.841,4.29C0.999,4.226 1.253,4.123 1.411,4.058C1.569,3.994 1.823,3.889 1.981,3.823C2.139,3.757 2.392,3.65 2.55,3.582C2.708,3.515 2.962,3.406 3.12,3.337C3.278,3.268 3.531,3.157 3.69,3.087C3.848,3.017 4.101,2.904 4.259,2.832C4.417,2.761 4.671,2.644 4.829,2.571C4.987,2.498 5.24,2.381 5.398,2.306C5.557,2.232 5.81,2.11 5.968,2.034C6.126,1.958 6.38,1.832 6.538,1.758C6.696,1.683 6.949,1.494 7.107,1.497C7.266,1.5 7.519,1.702 7.677,1.779C7.835,1.856 8.089,1.978 8.247,2.054C8.405,2.13 8.658,2.25 8.816,2.325C8.974,2.399 9.228,2.517 9.386,2.59C9.544,2.663 9.798,2.779 9.956,2.851C10.114,2.922 10.367,3.036 10.525,3.106C10.683,3.176 10.937,3.287 11.095,3.356C11.253,3.424 11.507,3.534 11.665,3.601C11.823,3.668 12.076,3.775 12.234,3.84C12.392,3.906 12.646,4.011 12.804,4.076C12.962,4.14 13.216,4.242 13.374,4.305C13.532,4.369 13.785,4.47 13.943,4.532C14.101,4.594 14.355,4.692 14.513,4.753C14.671,4.814 14.925,4.911 15.083,4.97C15.241,5.03 15.494,5.125 15.652,5.183C15.81,5.241 16.064,5.334 16.222,5.391C16.38,5.448 16.633,5.539 16.792,5.595C16.95,5.651 17.203,5.742 17.361,5.797C17.519,5.852 17.773,5.938 17.931,5.992C18.089,6.046 18.342,6.132 18.501,6.185C18.659,6.238 18.912,6.322 19.07,6.374C19.228,6.425 19.482,6.507 19.64,6.558C19.798,6.609 20.051,6.69 20.209,6.739C20.368,6.789 20.621,6.868 20.779,6.917C20.937,6.965 21.191,7.043 21.349,7.091C21.507,7.139 21.76,7.214 21.918,7.261C22.076,7.308 22.33,7.382 22.488,7.428C22.646,7.474 22.9,7.548 23.058,7.593C23.216,7.638 23.469,7.709 23.627,7.753C23.785,7.797 24.039,7.867 24.197,7.911C24.355,7.954 24.609,8.023 24.767,8.065C24.925,8.107 25.178,8.174 25.336,8.215C25.494,8.257 25.748,8.323 25.906,8.364C26.064,8.405 26.318,8.469 26.476,8.509C26.634,8.549 26.887,8.613 27.045,8.652C27.203,8.691 27.457,8.752 27.615,8.791C27.773,8.829 28.027,8.891 28.185,8.928C28.343,8.966 28.596,9.025 28.754,9.062C28.912,9.098 29.166,9.157 29.324,9.193C29.482,9.23 29.735,9.287 29.894,9.322C30.052,9.358 30.305,9.413 30.463,9.447C30.621,9.482 30.875,9.538 31.033,9.572C31.191,9.606 31.444,9.659 31.603,9.693C31.761,9.726 32.014,9.779 32.172,9.812C32.33,9.844 32.584,9.896 32.742,9.928C32.9,9.96 33.153,10.011 33.311,10.043C33.47,10.074 33.723,10.123 33.881,10.153C34.039,10.184 34.293,10.234 34.451,10.264C34.609,10.294 34.862,10.34 35.02,10.37C35.179,10.4 35.432,10.447 35.59,10.476C35.748,10.505 36.002,10.551 36.16,10.58C36.318,10.608 36.571,10.653 36.729,10.681C36.887,10.708 37.141,10.752 37.299,10.78C37.457,10.807 37.711,10.849 37.869,10.876C38.027,10.903 38.28,10.946 38.438,10.973C38.596,10.999 38.85,11.039 39.008,11.065C39.166,11.09 39.42,11.132 39.578,11.157C39.736,11.182 39.989,11.222 40.147,11.246C40.305,11.271 40.559,11.31 40.717,11.334C40.875,11.358 41.129,11.397 41.287,11.421C41.445,11.444 41.698,11.481 41.856,11.504C42.014,11.527 42.268,11.565 42.426,11.588C42.584,11.611 42.838,11.647 42.996,11.669C43.154,11.691 43.407,11.726 43.565,11.748C43.723,11.77 43.977,11.804 44.135,11.826C44.293,11.847 44.546,11.881 44.705,11.902C44.863,11.924 45.116,11.957 45.274,11.978C45.432,11.998 45.686,12.03 45.844,12.05C46.002,12.07 46.255,12.102 46.413,12.122C46.572,12.142 46.825,12.174 46.983,12.193C47.141,12.212 47.395,12.243 47.553,12.261C47.711,12.28 47.964,12.311 48.122,12.329C48.281,12.348 48.534,12.378 48.692,12.396C48.85,12.414 49.104,12.443 49.262,12.461C49.42,12.479 49.673,12.507 49.831,12.525C49.989,12.542 50.243,12.57 50.401,12.587C50.559,12.604 50.813,12.631 50.971,12.648C51.129,12.665 51.382,12.691 51.54,12.708C51.698,12.724 51.952,12.751 52.11,12.768C52.268,12.784 52.522,12.808 52.68,12.824C52.838,12.84 53.091,12.865 53.249,12.881C53.407,12.896 53.661,12.921 53.819,12.936C53.977,12.951 54.231,12.975 54.389,12.99C54.547,13.005 54.8,13.029 54.958,13.044C55.116,13.059 55.37,13.082 55.528,13.096C55.686,13.111 55.94,13.133 56.098,13.147C56.256,13.161 56.667,13.197 56.667,13.197" style="fill:none;fill-rule:nonzero;stroke:rgb(23,190,207);stroke-width:0.8px;"/>
    </g>
    <g transform="matrix(1,0,0,1,65.595,23.07)">
        <path d="M-56.694,0L57.014,0" style="fill:none;fill-rule:nonzero;stroke:rgb(191,191,191);stroke-width:0.8px;"/>
    </g>
    <g transform="matrix(-0.926968,-0.375141,-0.375141,0.926968,126.499,23.8662)">
        <path d="M0.524,-0.647L4.244,-0.647L3.197,1.94L0.524,-0.647Z" style="fill:rgb(191,191,191);fill-rule:nonzero;stroke:rgb(191,191,191);stroke-width:0.8px;"/>
    </g>
</svg>
