<?xml version="1.0" encoding="UTF-8" standalone="no"?>
<!DOCTYPE svg PUBLIC "-//W3C//DTD SVG 1.1//EN" "http://www.w3.org/Graphics/SVG/1.1/DTD/svg11.dtd">
<svg width="100%" height="100%" viewBox="0 0 137 55" version="1.1" xmlns="http://www.w3.org/2000/svg" xmlns:xlink="http://www.w3.org/1999/xlink" xml:space="preserve" xmlns:serif="http://www.serif.com/" style="fill-rule:evenodd;clip-rule:evenodd;stroke-miterlimit:10;">
    <g transform="matrix(1,0,0,1,65.595,20.4562)">
        <path d="M-56.694,22.206C-56.694,22.206 -56.282,22.177 -56.124,22.166C-55.966,22.154 -55.712,22.135 -55.554,22.123C-55.396,22.112 -55.143,22.093 -54.985,22.081C-54.827,22.068 -54.573,22.048 -54.415,22.036C-54.257,22.024 -54.003,22.004 -53.845,21.991C-53.687,21.978 -53.434,21.957 -53.276,21.944C-53.118,21.93 -52.864,21.908 -52.706,21.894C-52.548,21.88 -52.294,21.859 -52.136,21.845C-51.978,21.831 -51.725,21.807 -51.567,21.792C-51.409,21.778 -51.155,21.754 -50.997,21.738C-50.839,21.723 -50.586,21.697 -50.427,21.681C-50.269,21.665 -50.016,21.639 -49.858,21.622C-49.7,21.606 -49.446,21.58 -49.288,21.564C-49.13,21.547 -48.877,21.519 -48.718,21.502C-48.56,21.484 -48.307,21.456 -48.149,21.438C-47.991,21.42 -47.737,21.391 -47.579,21.372C-47.421,21.353 -47.168,21.323 -47.01,21.304C-46.851,21.284 -46.598,21.253 -46.44,21.233C-46.282,21.213 -46.028,21.18 -45.87,21.16C-45.712,21.139 -45.459,21.105 -45.301,21.084C-45.142,21.063 -44.889,21.028 -44.731,21.006C-44.573,20.984 -44.319,20.946 -44.161,20.923C-44.003,20.9 -43.75,20.864 -43.592,20.84C-43.434,20.817 -43.18,20.778 -43.022,20.753C-42.864,20.728 -42.61,20.688 -42.452,20.663C-42.294,20.638 -42.041,20.597 -41.883,20.571C-41.725,20.545 -41.471,20.503 -41.313,20.476C-41.155,20.449 -40.901,20.405 -40.743,20.377C-40.585,20.349 -40.332,20.304 -40.174,20.276C-40.016,20.247 -39.762,20.199 -39.604,20.169C-39.446,20.139 -39.192,20.089 -39.034,20.058C-38.876,20.028 -38.623,19.979 -38.465,19.947C-38.307,19.915 -38.053,19.862 -37.895,19.829C-37.737,19.796 -37.483,19.743 -37.325,19.709C-37.167,19.675 -36.914,19.619 -36.756,19.583C-36.598,19.548 -36.344,19.49 -36.186,19.454C-36.028,19.417 -35.775,19.357 -35.616,19.319C-35.458,19.281 -35.205,19.221 -35.047,19.182C-34.889,19.143 -34.635,19.078 -34.477,19.038C-34.319,18.997 -34.066,18.933 -33.908,18.891C-33.749,18.85 -33.496,18.781 -33.338,18.738C-33.18,18.695 -32.926,18.624 -32.768,18.579C-32.61,18.534 -32.357,18.462 -32.199,18.416C-32.04,18.37 -31.787,18.294 -31.629,18.246C-31.471,18.198 -31.217,18.12 -31.059,18.071C-30.901,18.022 -30.648,17.943 -30.49,17.892C-30.332,17.841 -30.078,17.755 -29.92,17.702C-29.762,17.65 -29.508,17.566 -29.35,17.511C-29.192,17.457 -28.939,17.367 -28.781,17.31C-28.623,17.254 -28.369,17.161 -28.211,17.102C-28.053,17.044 -27.799,16.95 -27.641,16.89C-27.483,16.829 -27.23,16.73 -27.072,16.668C-26.914,16.606 -26.66,16.505 -26.502,16.441C-26.344,16.377 -26.09,16.271 -25.932,16.204C-25.774,16.138 -25.521,16.028 -25.363,15.959C-25.205,15.89 -24.951,15.778 -24.793,15.706C-24.635,15.635 -24.381,15.518 -24.223,15.444C-24.065,15.37 -23.812,15.251 -23.654,15.175C-23.496,15.099 -23.242,14.975 -23.084,14.896C-22.926,14.817 -22.673,14.687 -22.514,14.605C-22.356,14.524 -22.103,14.392 -21.945,14.308C-21.787,14.224 -21.533,14.085 -21.375,13.998C-21.217,13.911 -20.964,13.769 -20.805,13.679C-20.647,13.589 -20.394,13.441 -20.236,13.348C-20.078,13.255 -19.824,13.102 -19.666,13.006C-19.508,12.91 -19.255,12.753 -19.097,12.654C-18.938,12.554 -18.685,12.391 -18.527,12.287C-18.369,12.184 -18.115,12.016 -17.957,11.909C-17.799,11.803 -17.546,11.629 -17.388,11.519C-17.229,11.409 -16.976,11.23 -16.818,11.116C-16.66,11.002 -16.406,10.815 -16.248,10.697C-16.09,10.579 -15.837,10.387 -15.679,10.265C-15.521,10.143 -15.267,9.945 -15.109,9.819C-14.951,9.692 -14.697,9.486 -14.539,9.355C-14.381,9.225 -14.128,9.013 -13.97,8.878C-13.812,8.743 -13.558,8.524 -13.4,8.384C-13.242,8.245 -12.988,8.018 -12.83,7.874C-12.672,7.73 -12.419,7.494 -12.261,7.344C-12.103,7.195 -11.849,6.953 -11.691,6.799C-11.533,6.644 -11.279,6.393 -11.121,6.234C-10.963,6.075 -10.71,5.815 -10.552,5.651C-10.394,5.486 -10.14,5.216 -9.982,5.045C-9.824,4.875 -9.571,4.599 -9.412,4.422C-9.254,4.246 -9.001,3.957 -8.843,3.774C-8.685,3.592 -8.431,3.297 -8.273,3.108C-8.115,2.92 -7.862,2.611 -7.703,2.416C-7.545,2.221 -7.292,1.904 -7.134,1.702C-6.976,1.501 -6.722,1.173 -6.564,0.965C-6.406,0.757 -6.153,0.323 -5.995,0.202C-5.836,0.081 -5.583,0 -5.425,0.091C-5.267,0.182 -5.013,0.649 -4.855,0.859C-4.697,1.068 -4.444,1.398 -4.286,1.601C-4.127,1.803 -3.874,2.121 -3.716,2.317C-3.558,2.512 -3.304,2.822 -3.146,3.011C-2.988,3.201 -2.735,3.5 -2.577,3.683C-2.419,3.865 -2.165,4.153 -2.007,4.33C-1.849,4.507 -1.595,4.787 -1.437,4.959C-1.279,5.13 -1.026,5.4 -0.868,5.565C-0.71,5.731 -0.456,5.991 -0.298,6.151C-0.14,6.312 0.114,6.566 0.272,6.721C0.43,6.876 0.683,7.12 0.841,7.269C0.999,7.419 1.253,7.653 1.411,7.798C1.569,7.943 1.823,8.173 1.981,8.313C2.139,8.454 2.392,8.674 2.55,8.809C2.708,8.945 2.962,9.158 3.12,9.289C3.278,9.42 3.531,9.626 3.69,9.752C3.848,9.879 4.101,10.079 4.259,10.201C4.417,10.324 4.671,10.517 4.829,10.636C4.987,10.755 5.24,10.942 5.398,11.056C5.557,11.171 5.81,11.352 5.968,11.463C6.126,11.573 6.38,11.748 6.538,11.855C6.696,11.962 6.949,12.132 7.107,12.236C7.266,12.339 7.519,12.502 7.677,12.602C7.835,12.702 8.089,12.859 8.247,12.956C8.405,13.053 8.658,13.207 8.816,13.301C8.974,13.395 9.228,13.541 9.386,13.632C9.544,13.722 9.798,13.866 9.956,13.953C10.114,14.041 10.367,14.177 10.525,14.262C10.683,14.347 10.937,14.483 11.095,14.565C11.253,14.647 11.507,14.776 11.665,14.855C11.823,14.934 12.076,15.058 12.234,15.134C12.392,15.211 12.646,15.332 12.804,15.406C12.962,15.48 13.216,15.599 13.374,15.671C13.532,15.743 13.785,15.854 13.943,15.923C14.101,15.993 14.355,16.102 14.513,16.169C14.671,16.237 14.925,16.343 15.083,16.408C15.241,16.473 15.494,16.574 15.652,16.637C15.81,16.7 16.064,16.798 16.222,16.859C16.38,16.92 16.633,17.016 16.792,17.074C16.95,17.133 17.203,17.226 17.361,17.282C17.519,17.339 17.773,17.428 17.931,17.483C18.089,17.538 18.342,17.623 18.501,17.676C18.659,17.73 18.912,17.815 19.07,17.866C19.228,17.917 19.482,17.996 19.64,18.045C19.798,18.095 20.051,18.175 20.209,18.223C20.368,18.271 20.621,18.346 20.779,18.393C20.937,18.439 21.191,18.511 21.349,18.556C21.507,18.601 21.76,18.673 21.918,18.716C22.076,18.76 22.33,18.828 22.488,18.87C22.646,18.912 22.9,18.979 23.058,19.019C23.216,19.059 23.469,19.121 23.627,19.16C23.785,19.199 24.039,19.262 24.197,19.3C24.355,19.338 24.609,19.398 24.767,19.434C24.925,19.471 25.178,19.529 25.336,19.564C25.494,19.6 25.748,19.655 25.906,19.689C26.064,19.724 26.318,19.779 26.476,19.813C26.634,19.846 26.887,19.899 27.045,19.931C27.203,19.963 27.457,20.013 27.615,20.044C27.773,20.075 28.027,20.123 28.185,20.153C28.343,20.183 28.596,20.23 28.754,20.259C28.912,20.288 29.166,20.335 29.324,20.363C29.482,20.392 29.735,20.435 29.894,20.462C30.052,20.49 30.305,20.533 30.463,20.559C30.621,20.586 30.875,20.626 31.033,20.651C31.191,20.677 31.444,20.716 31.603,20.741C31.761,20.766 32.014,20.805 32.172,20.829C32.33,20.852 32.584,20.888 32.742,20.911C32.9,20.934 33.153,20.972 33.311,20.994C33.47,21.016 33.723,21.051 33.881,21.072C34.039,21.093 34.293,21.127 34.451,21.148C34.609,21.168 34.862,21.2 35.02,21.221C35.179,21.241 35.432,21.274 35.59,21.294C35.748,21.313 36.002,21.344 36.16,21.363C36.318,21.381 36.571,21.411 36.729,21.429C36.887,21.447 37.141,21.475 37.299,21.493C37.457,21.51 37.711,21.537 37.869,21.554C38.027,21.571 38.28,21.599 38.438,21.616C38.596,21.632 38.85,21.656 39.008,21.672C39.166,21.688 39.42,21.714 39.578,21.729C39.736,21.744 39.989,21.768 40.147,21.783C40.305,21.798 40.559,21.823 40.717,21.837C40.875,21.852 41.129,21.873 41.287,21.887C41.445,21.901 41.698,21.923 41.856,21.936C42.014,21.95 42.268,21.97 42.426,21.984C42.584,21.997 42.838,22.019 42.996,22.031C43.154,22.044 43.407,22.061 43.565,22.074C43.723,22.086 43.977,22.107 44.135,22.119C44.293,22.13 44.546,22.147 44.705,22.158C44.863,22.17 45.116,22.188 45.274,22.199C45.432,22.21 45.686,22.228 45.844,22.239C46.002,22.25 46.255,22.267 46.413,22.277C46.572,22.287 46.825,22.303 46.983,22.312C47.141,22.322 47.395,22.338 47.553,22.348C47.711,22.357 47.964,22.372 48.122,22.381C48.281,22.39 48.534,22.404 48.692,22.414C48.85,22.423 49.104,22.438 49.262,22.447C49.42,22.456 49.673,22.469 49.831,22.478C49.989,22.486 50.243,22.498 50.401,22.506C50.559,22.514 50.813,22.529 50.971,22.537C51.129,22.545 51.382,22.555 51.54,22.563C51.698,22.57 51.952,22.583 52.11,22.591C52.268,22.598 52.522,22.61 52.68,22.617C52.838,22.624 53.091,22.636 53.249,22.643C53.407,22.65 53.661,22.66 53.819,22.667C53.977,22.673 54.231,22.684 54.389,22.69C54.547,22.697 54.8,22.705 54.958,22.712C55.116,22.718 55.37,22.729 55.528,22.735C55.686,22.742 55.94,22.751 56.098,22.757C56.256,22.762 56.667,22.778 56.667,22.778L56.694,23.38L-56.694,23.38L-56.694,22.206Z" style="fill:rgb(31,119,180);fill-opacity:0.4;fill-rule:nonzero;"/>
    </g>
    <g transform="matrix(1,0,0,1,65.595,15.8761)">
        <path d="M-56.694,27.441C-56.694,27.441 -56.282,27.427 -56.124,27.421C-55.966,27.416 -55.712,27.405 -55.554,27.399C-55.396,27.393 -55.143,27.383 -54.985,27.376C-54.827,27.369 -54.573,27.357 -54.415,27.351C-54.257,27.344 -54.003,27.335 -53.845,27.328C-53.687,27.321 -53.434,27.307 -53.276,27.299C-53.118,27.292 -52.864,27.281 -52.706,27.274C-52.548,27.267 -52.294,27.254 -52.136,27.246C-51.978,27.238 -51.725,27.226 -51.567,27.217C-51.409,27.209 -51.155,27.195 -50.997,27.186C-50.839,27.178 -50.586,27.164 -50.427,27.155C-50.269,27.146 -50.016,27.13 -49.858,27.121C-49.7,27.111 -49.446,27.097 -49.288,27.087C-49.13,27.077 -48.877,27.06 -48.718,27.05C-48.56,27.04 -48.307,27.024 -48.149,27.013C-47.991,27.003 -47.737,26.984 -47.579,26.973C-47.421,26.962 -47.168,26.945 -47.01,26.934C-46.851,26.923 -46.598,26.903 -46.44,26.891C-46.282,26.879 -46.028,26.858 -45.87,26.846C-45.712,26.833 -45.459,26.813 -45.301,26.8C-45.142,26.788 -44.889,26.769 -44.731,26.755C-44.573,26.742 -44.319,26.718 -44.161,26.704C-44.003,26.69 -43.75,26.668 -43.592,26.653C-43.434,26.639 -43.18,26.615 -43.022,26.599C-42.864,26.584 -42.61,26.558 -42.452,26.543C-42.294,26.527 -42.041,26.502 -41.883,26.486C-41.725,26.469 -41.471,26.441 -41.313,26.424C-41.155,26.406 -40.901,26.379 -40.743,26.361C-40.585,26.343 -40.332,26.314 -40.174,26.296C-40.016,26.278 -39.762,26.247 -39.604,26.228C-39.446,26.208 -39.192,26.177 -39.034,26.157C-38.876,26.137 -38.623,26.104 -38.465,26.083C-38.307,26.062 -38.053,26.026 -37.895,26.004C-37.737,25.982 -37.483,25.947 -37.325,25.924C-37.167,25.902 -36.914,25.866 -36.756,25.842C-36.598,25.819 -36.344,25.779 -36.186,25.754C-36.028,25.73 -35.775,25.689 -35.616,25.664C-35.458,25.638 -35.205,25.597 -35.047,25.57C-34.889,25.543 -34.635,25.499 -34.477,25.471C-34.319,25.443 -34.066,25.397 -33.908,25.369C-33.749,25.34 -33.496,25.294 -33.338,25.264C-33.18,25.234 -32.926,25.185 -32.768,25.153C-32.61,25.122 -32.357,25.07 -32.199,25.037C-32.04,25.004 -31.787,24.952 -31.629,24.918C-31.471,24.884 -31.217,24.828 -31.059,24.793C-30.901,24.758 -30.648,24.7 -30.49,24.663C-30.332,24.626 -30.078,24.565 -29.92,24.526C-29.762,24.488 -29.508,24.427 -29.35,24.388C-29.192,24.348 -28.939,24.282 -28.781,24.24C-28.623,24.198 -28.369,24.13 -28.211,24.087C-28.053,24.044 -27.799,23.973 -27.641,23.928C-27.483,23.883 -27.23,23.811 -27.072,23.764C-26.914,23.717 -26.66,23.64 -26.502,23.591C-26.344,23.542 -26.09,23.463 -25.932,23.412C-25.774,23.362 -25.521,23.278 -25.363,23.225C-25.205,23.172 -24.951,23.085 -24.793,23.029C-24.635,22.974 -24.381,22.885 -24.223,22.828C-24.065,22.771 -23.812,22.678 -23.654,22.619C-23.496,22.559 -23.242,22.462 -23.084,22.4C-22.926,22.338 -22.673,22.235 -22.514,22.17C-22.356,22.106 -22.103,21.999 -21.945,21.932C-21.787,21.865 -21.533,21.756 -21.375,21.686C-21.217,21.616 -20.964,21.5 -20.805,21.427C-20.647,21.355 -20.394,21.236 -20.236,21.161C-20.078,21.085 -19.824,20.962 -19.666,20.883C-19.508,20.804 -19.255,20.673 -19.097,20.591C-18.938,20.509 -18.685,20.376 -18.527,20.291C-18.369,20.205 -18.115,20.065 -17.957,19.976C-17.799,19.886 -17.546,19.74 -17.388,19.647C-17.229,19.554 -16.976,19.403 -16.818,19.307C-16.66,19.21 -16.406,19.053 -16.248,18.952C-16.09,18.852 -15.837,18.685 -15.679,18.581C-15.521,18.476 -15.267,18.307 -15.109,18.198C-14.951,18.089 -14.697,17.909 -14.539,17.795C-14.381,17.682 -14.128,17.497 -13.97,17.379C-13.812,17.261 -13.558,17.068 -13.4,16.945C-13.242,16.822 -12.988,16.622 -12.83,16.494C-12.672,16.366 -12.419,16.157 -12.261,16.023C-12.103,15.89 -11.849,15.671 -11.691,15.533C-11.533,15.394 -11.279,15.17 -11.121,15.025C-10.963,14.881 -10.71,14.642 -10.552,14.492C-10.394,14.342 -10.14,14.098 -9.982,13.942C-9.824,13.786 -9.571,13.529 -9.412,13.367C-9.254,13.204 -9.001,12.938 -8.843,12.768C-8.685,12.599 -8.431,12.321 -8.273,12.145C-8.115,11.968 -7.862,11.679 -7.703,11.495C-7.545,11.311 -7.292,11.011 -7.134,10.82C-6.976,10.629 -6.722,10.316 -6.564,10.117C-6.406,9.918 -6.153,9.592 -5.995,9.385C-5.836,9.179 -5.583,8.842 -5.425,8.626C-5.267,8.41 -5.013,8.056 -4.855,7.832C-4.697,7.607 -4.444,7.241 -4.286,7.007C-4.127,6.773 -3.874,6.388 -3.716,6.145C-3.558,5.901 -3.304,5.505 -3.146,5.252C-2.988,4.999 -2.735,4.585 -2.577,4.322C-2.419,4.058 -2.165,3.627 -2.007,3.352C-1.849,3.077 -1.595,2.628 -1.437,2.342C-1.279,2.056 -1.026,1.588 -0.868,1.291C-0.71,0.993 -0.456,0.355 -0.298,0.196C-0.14,0.037 0.114,0 0.272,0.145C0.43,0.29 0.683,0.944 0.841,1.243C0.999,1.541 1.253,2.008 1.411,2.294C1.569,2.58 1.823,3.029 1.981,3.304C2.139,3.579 2.392,4.012 2.55,4.276C2.708,4.541 2.962,4.956 3.12,5.209C3.278,5.463 3.531,5.861 3.69,6.105C3.848,6.349 4.101,6.733 4.259,6.967C4.417,7.202 4.671,7.57 4.829,7.795C4.987,8.02 5.24,8.373 5.398,8.589C5.557,8.805 5.81,9.144 5.968,9.352C6.126,9.559 6.38,9.884 6.538,10.083C6.696,10.283 6.949,10.598 7.107,10.789C7.266,10.981 7.519,11.28 7.677,11.464C7.835,11.648 8.089,11.939 8.247,12.116C8.405,12.293 8.658,12.57 8.816,12.74C8.974,12.909 9.228,13.175 9.386,13.338C9.544,13.501 9.798,13.757 9.956,13.914C10.114,14.071 10.367,14.319 10.525,14.47C10.683,14.62 10.937,14.855 11.095,15C11.253,15.144 11.507,15.371 11.665,15.51C11.823,15.649 12.076,15.867 12.234,16.001C12.392,16.134 12.646,16.343 12.804,16.471C12.962,16.6 13.216,16.802 13.374,16.925C13.532,17.048 13.785,17.241 13.943,17.359C14.101,17.477 14.355,17.665 14.513,17.778C14.671,17.892 14.925,18.069 15.083,18.178C15.241,18.287 15.494,18.459 15.652,18.564C15.81,18.669 16.064,18.834 16.222,18.935C16.38,19.036 16.633,19.193 16.792,19.29C16.95,19.387 17.203,19.54 17.361,19.633C17.519,19.726 17.773,19.87 17.931,19.959C18.089,20.048 18.342,20.188 18.501,20.273C18.659,20.359 18.912,20.494 19.07,20.577C19.228,20.66 19.482,20.79 19.64,20.869C19.798,20.948 20.051,21.071 20.209,21.147C20.368,21.223 20.621,21.343 20.779,21.416C20.937,21.489 21.191,21.604 21.349,21.674C21.507,21.744 21.76,21.854 21.918,21.921C22.076,21.988 22.33,22.094 22.488,22.159C22.646,22.224 22.9,22.327 23.058,22.389C23.216,22.451 23.469,22.547 23.627,22.607C23.785,22.667 24.039,22.762 24.197,22.82C24.355,22.877 24.609,22.966 24.767,23.021C24.925,23.076 25.178,23.164 25.336,23.217C25.494,23.27 25.748,23.353 25.906,23.404C26.064,23.454 26.318,23.533 26.476,23.582C26.634,23.631 26.887,23.708 27.045,23.755C27.203,23.802 27.457,23.874 27.615,23.92C27.773,23.965 28.027,24.038 28.185,24.081C28.343,24.125 28.596,24.19 28.754,24.232C28.912,24.273 29.166,24.339 29.324,24.379C29.482,24.419 29.735,24.482 29.894,24.521C30.052,24.559 30.305,24.62 30.463,24.657C30.621,24.694 30.875,24.752 31.033,24.787C31.191,24.823 31.444,24.878 31.603,24.912C31.761,24.946 32.014,24.999 32.172,25.031C32.33,25.064 32.584,25.116 32.742,25.148C32.9,25.179 33.153,25.228 33.311,25.258C33.47,25.288 33.723,25.337 33.881,25.366C34.039,25.395 34.293,25.441 34.451,25.468C34.609,25.496 34.862,25.537 35.02,25.564C35.179,25.591 35.432,25.635 35.59,25.661C35.748,25.687 36.002,25.727 36.16,25.751C36.318,25.776 36.571,25.813 36.729,25.837C36.887,25.86 37.141,25.899 37.299,25.921C37.457,25.944 37.711,25.979 37.869,26.001C38.027,26.023 38.28,26.056 38.438,26.078C38.596,26.099 38.85,26.134 39.008,26.154C39.166,26.175 39.42,26.206 39.578,26.225C39.736,26.244 39.989,26.274 40.147,26.293C40.305,26.311 40.559,26.341 40.717,26.358C40.875,26.376 41.129,26.403 41.287,26.421C41.445,26.438 41.698,26.466 41.856,26.483C42.014,26.499 42.268,26.524 42.426,26.54C42.584,26.555 42.838,26.581 42.996,26.597C43.154,26.612 43.407,26.636 43.565,26.65C43.723,26.665 43.977,26.687 44.135,26.701C44.293,26.715 44.546,26.739 44.705,26.752C44.863,26.766 45.116,26.787 45.274,26.8C45.432,26.813 45.686,26.834 45.844,26.846C46.002,26.858 46.255,26.877 46.413,26.889C46.572,26.9 46.825,26.92 46.983,26.931C47.141,26.942 47.395,26.96 47.553,26.971C47.711,26.982 47.964,27 48.122,27.011C48.281,27.021 48.534,27.037 48.692,27.047C48.85,27.058 49.104,27.074 49.262,27.084C49.42,27.094 49.673,27.109 49.831,27.118C49.989,27.128 50.243,27.143 50.401,27.152C50.559,27.161 50.813,27.174 50.971,27.183C51.129,27.192 51.382,27.206 51.54,27.214C51.698,27.223 51.952,27.235 52.11,27.243C52.268,27.251 52.522,27.264 52.68,27.271C52.838,27.279 53.091,27.292 53.249,27.299C53.407,27.307 53.661,27.318 53.819,27.325C53.977,27.332 54.231,27.344 54.389,27.351C54.547,27.357 54.8,27.367 54.958,27.373C55.116,27.38 55.37,27.393 55.528,27.399C55.686,27.405 55.94,27.413 56.098,27.419C56.256,27.425 56.667,27.441 56.667,27.441L56.694,27.96L-56.694,27.96L-56.694,27.441Z" style="fill:rgb(188,189,34);fill-opacity:0.4;fill-rule:nonzero;"/>
    </g>
    <g transform="matrix(1,0,0,1,65.595,8.50296)">
        <path d="M-56.694,34.891C-56.694,34.891 -56.282,34.872 -56.124,34.865C-55.966,34.859 -55.712,34.848 -55.554,34.841C-55.396,34.834 -55.143,34.823 -54.985,34.816C-54.827,34.809 -54.573,34.799 -54.415,34.792C-54.257,34.784 -54.003,34.771 -53.845,34.763C-53.687,34.755 -53.434,34.739 -53.276,34.731C-53.118,34.723 -52.864,34.712 -52.706,34.703C-52.548,34.694 -52.294,34.676 -52.136,34.667C-51.978,34.658 -51.725,34.645 -51.567,34.635C-51.409,34.626 -51.155,34.607 -50.997,34.596C-50.839,34.586 -50.586,34.571 -50.427,34.561C-50.269,34.551 -50.016,34.533 -49.858,34.522C-49.7,34.51 -49.446,34.492 -49.288,34.48C-49.13,34.467 -48.877,34.446 -48.718,34.433C-48.56,34.42 -48.307,34.4 -48.149,34.387C-47.991,34.374 -47.737,34.352 -47.579,34.338C-47.421,34.324 -47.168,34.302 -47.01,34.288C-46.851,34.274 -46.598,34.25 -46.44,34.234C-46.282,34.219 -46.028,34.194 -45.87,34.178C-45.712,34.162 -45.459,34.135 -45.301,34.118C-45.142,34.1 -44.889,34.072 -44.731,34.054C-44.573,34.036 -44.319,34.006 -44.161,33.987C-44.003,33.968 -43.75,33.939 -43.592,33.92C-43.434,33.9 -43.18,33.865 -43.022,33.845C-42.864,33.824 -42.61,33.792 -42.452,33.771C-42.294,33.749 -42.041,33.712 -41.883,33.689C-41.725,33.666 -41.471,33.628 -41.313,33.604C-41.155,33.58 -40.901,33.541 -40.743,33.516C-40.585,33.49 -40.332,33.447 -40.174,33.42C-40.016,33.393 -39.762,33.349 -39.604,33.32C-39.446,33.292 -39.192,33.247 -39.034,33.218C-38.876,33.188 -38.623,33.139 -38.465,33.108C-38.307,33.077 -38.053,33.027 -37.895,32.994C-37.737,32.962 -37.483,32.908 -37.325,32.874C-37.167,32.839 -36.914,32.782 -36.756,32.746C-36.598,32.71 -36.344,32.649 -36.186,32.612C-36.028,32.574 -35.775,32.513 -35.616,32.473C-35.458,32.433 -35.205,32.367 -35.047,32.324C-34.889,32.282 -34.635,32.213 -34.477,32.169C-34.319,32.124 -34.066,32.051 -33.908,32.005C-33.749,31.959 -33.496,31.884 -33.338,31.836C-33.18,31.787 -32.926,31.706 -32.768,31.654C-32.61,31.603 -32.357,31.521 -32.199,31.467C-32.04,31.413 -31.787,31.322 -31.629,31.265C-31.471,31.208 -31.217,31.115 -31.059,31.055C-30.901,30.996 -30.648,30.898 -30.49,30.836C-30.332,30.773 -30.078,30.671 -29.92,30.605C-29.762,30.54 -29.508,30.43 -29.35,30.361C-29.192,30.292 -28.939,30.179 -28.781,30.106C-28.623,30.033 -28.369,29.913 -28.211,29.836C-28.053,29.759 -27.799,29.634 -27.641,29.553C-27.483,29.472 -27.23,29.337 -27.072,29.252C-26.914,29.167 -26.66,29.029 -26.502,28.94C-26.344,28.851 -26.09,28.704 -25.932,28.61C-25.774,28.516 -25.521,28.361 -25.363,28.262C-25.205,28.164 -24.951,28.004 -24.793,27.901C-24.635,27.797 -24.381,27.624 -24.223,27.515C-24.065,27.406 -23.812,27.229 -23.654,27.114C-23.496,26.999 -23.242,26.809 -23.084,26.689C-22.926,26.568 -22.673,26.373 -22.514,26.246C-22.356,26.119 -22.103,25.908 -21.945,25.774C-21.787,25.641 -21.533,25.422 -21.375,25.282C-21.217,25.142 -20.964,24.911 -20.805,24.764C-20.647,24.617 -20.394,24.377 -20.236,24.222C-20.078,24.067 -19.824,23.811 -19.666,23.648C-19.508,23.484 -19.255,23.217 -19.097,23.046C-18.938,22.874 -18.685,22.591 -18.527,22.411C-18.369,22.23 -18.115,21.937 -17.957,21.747C-17.799,21.558 -17.546,21.246 -17.388,21.046C-17.229,20.847 -16.976,20.518 -16.818,20.309C-16.66,20.099 -16.406,19.757 -16.248,19.536C-16.09,19.316 -15.837,18.953 -15.679,18.721C-15.521,18.489 -15.267,18.111 -15.109,17.867C-14.951,17.624 -14.697,17.223 -14.539,16.967C-14.381,16.71 -14.128,16.29 -13.97,16.02C-13.812,15.751 -13.558,15.307 -13.4,15.024C-13.242,14.741 -12.988,14.276 -12.83,13.978C-12.672,13.68 -12.419,13.19 -12.261,12.877C-12.103,12.563 -11.849,12.05 -11.691,11.721C-11.533,11.392 -11.279,10.852 -11.121,10.505C-10.963,10.158 -10.71,9.586 -10.552,9.222C-10.394,8.858 -10.14,8.261 -9.982,7.879C-9.824,7.496 -9.571,6.867 -9.412,6.464C-9.254,6.061 -9.001,5.399 -8.843,4.976C-8.685,4.552 -8.431,3.858 -8.273,3.413C-8.115,2.968 -7.862,2.236 -7.703,1.768C-7.545,1.3 -7.292,0.078 -7.134,0.039C-6.976,0 -6.722,1.058 -6.564,1.488C-6.406,1.919 -6.153,2.694 -5.995,3.143C-5.836,3.592 -5.583,4.297 -5.425,4.724C-5.267,5.152 -5.013,5.818 -4.855,6.224C-4.697,6.629 -4.444,7.262 -4.286,7.648C-4.127,8.035 -3.874,8.639 -3.716,9.006C-3.558,9.374 -3.304,9.947 -3.146,10.296C-2.988,10.645 -2.735,11.191 -2.577,11.523C-2.419,11.855 -2.165,12.373 -2.007,12.688C-1.849,13.004 -1.595,13.497 -1.437,13.798C-1.279,14.098 -1.026,14.568 -0.868,14.854C-0.71,15.14 -0.456,15.585 -0.298,15.857C-0.14,16.129 0.114,16.556 0.272,16.814C0.43,17.073 0.683,17.476 0.841,17.722C0.999,17.967 1.253,18.349 1.411,18.583C1.569,18.817 1.823,19.183 1.981,19.405C2.139,19.628 2.392,19.974 2.55,20.185C2.708,20.396 2.962,20.725 3.12,20.926C3.278,21.127 3.531,21.443 3.69,21.635C3.848,21.826 4.101,22.123 4.259,22.305C4.417,22.486 4.671,22.769 4.829,22.943C4.987,23.116 5.24,23.388 5.398,23.552C5.557,23.716 5.81,23.97 5.968,24.126C6.126,24.282 6.38,24.527 6.538,24.676C6.696,24.825 6.949,25.058 7.107,25.2C7.266,25.342 7.519,25.562 7.677,25.697C7.835,25.831 8.089,26.04 8.247,26.168C8.405,26.296 8.658,26.496 8.816,26.618C8.974,26.739 9.228,26.928 9.386,27.043C9.544,27.159 9.798,27.341 9.956,27.451C10.114,27.561 10.367,27.732 10.525,27.837C10.683,27.942 10.937,28.106 11.095,28.206C11.253,28.305 11.507,28.459 11.665,28.553C11.823,28.647 12.076,28.796 12.234,28.887C12.392,28.977 12.646,29.116 12.804,29.202C12.962,29.287 13.216,29.421 13.374,29.503C13.532,29.584 13.785,29.713 13.943,29.79C14.101,29.867 14.355,29.986 14.513,30.059C14.671,30.132 14.925,30.248 15.083,30.318C15.241,30.389 15.494,30.5 15.652,30.566C15.81,30.633 16.064,30.734 16.222,30.797C16.38,30.86 16.633,30.96 16.792,31.02C16.95,31.081 17.203,31.175 17.361,31.233C17.519,31.29 17.773,31.38 17.931,31.435C18.089,31.49 18.342,31.575 18.501,31.626C18.659,31.678 18.912,31.758 19.07,31.807C19.228,31.856 19.482,31.934 19.64,31.98C19.798,32.027 20.051,32.099 20.209,32.144C20.368,32.188 20.621,32.257 20.779,32.299C20.937,32.342 21.191,32.408 21.349,32.448C21.507,32.489 21.76,32.552 21.918,32.59C22.076,32.629 22.33,32.688 22.488,32.725C22.646,32.761 22.9,32.818 23.058,32.852C23.216,32.887 23.469,32.94 23.627,32.973C23.785,33.006 24.039,33.058 24.197,33.09C24.355,33.121 24.609,33.17 24.767,33.2C24.925,33.23 25.178,33.278 25.336,33.306C25.494,33.335 25.748,33.379 25.906,33.405C26.064,33.432 26.318,33.472 26.476,33.498C26.634,33.523 26.887,33.565 27.045,33.589C27.203,33.614 27.457,33.652 27.615,33.675C27.773,33.698 28.027,33.734 28.185,33.756C28.343,33.779 28.596,33.814 28.754,33.834C28.912,33.855 29.166,33.886 29.324,33.905C29.482,33.925 29.735,33.957 29.894,33.976C30.052,33.995 30.305,34.025 30.463,34.043C30.621,34.061 30.875,34.09 31.033,34.107C31.191,34.124 31.444,34.151 31.603,34.167C31.761,34.184 32.014,34.209 32.172,34.224C32.33,34.24 32.584,34.263 32.742,34.277C32.9,34.292 33.153,34.316 33.311,34.33C33.47,34.345 33.723,34.367 33.881,34.38C34.039,34.393 34.293,34.413 34.451,34.426C34.609,34.439 34.862,34.46 35.02,34.472C35.179,34.485 35.432,34.503 35.59,34.515C35.748,34.526 36.002,34.543 36.16,34.554C36.318,34.564 36.571,34.583 36.729,34.593C36.887,34.603 37.141,34.618 37.299,34.628C37.457,34.638 37.711,34.655 37.869,34.664C38.027,34.673 38.28,34.687 38.438,34.696C38.596,34.705 38.85,34.719 39.008,34.728C39.166,34.736 39.42,34.748 39.578,34.756C39.736,34.764 39.989,34.777 40.147,34.785C40.305,34.793 40.559,34.805 40.717,34.813C40.875,34.82 41.129,34.83 41.287,34.837C41.445,34.844 41.698,34.856 41.856,34.862C42.014,34.869 42.268,34.881 42.426,34.887C42.584,34.893 42.838,34.902 42.996,34.908C43.154,34.914 43.407,34.924 43.565,34.929C43.723,34.935 43.977,34.942 44.135,34.947C44.293,34.953 44.546,34.963 44.705,34.968C44.863,34.974 45.116,34.979 45.274,34.984C45.432,34.988 45.686,34.996 45.844,35.001C46.002,35.005 46.255,35.012 46.413,35.017C46.572,35.021 46.825,35.028 46.983,35.032C47.141,35.037 47.395,35.043 47.553,35.047C47.711,35.051 47.964,35.058 48.122,35.061C48.281,35.065 48.534,35.071 48.692,35.075C48.85,35.078 49.104,35.084 49.262,35.087C49.42,35.091 49.673,35.096 49.831,35.099C49.989,35.103 50.243,35.108 50.401,35.111C50.559,35.114 50.813,35.119 50.971,35.122C51.129,35.125 51.382,35.129 51.54,35.132C51.698,35.135 51.952,35.14 52.11,35.142C52.268,35.145 52.522,35.149 52.68,35.151C52.838,35.154 53.091,35.158 53.249,35.16C53.407,35.162 53.661,35.166 53.819,35.169C53.977,35.171 54.231,35.175 54.389,35.177C54.547,35.179 54.8,35.183 54.958,35.185C55.116,35.187 55.37,35.19 55.528,35.192C55.686,35.194 55.94,35.197 56.098,35.199C56.256,35.2 56.667,35.205 56.667,35.205L56.694,35.333L-56.694,35.333L-56.694,34.891Z" style="fill:rgb(214,39,40);fill-opacity:0.4;fill-rule:nonzero;"/>
    </g>
    <g transform="matrix(1,0,0,1,65.595,20.3271)">
        <path d="M-56.694,20.568C-56.694,20.568 -56.282,20.497 -56.124,20.469C-55.966,20.441 -55.712,20.394 -55.554,20.365C-55.396,20.336 -55.143,20.289 -54.985,20.258C-54.827,20.228 -54.573,20.179 -54.415,20.147C-54.257,20.116 -54.003,20.064 -53.845,20.031C-53.687,19.999 -53.434,19.947 -53.276,19.914C-53.118,19.88 -52.864,19.825 -52.706,19.79C-52.548,19.756 -52.294,19.701 -52.136,19.665C-51.978,19.629 -51.725,19.57 -51.567,19.533C-51.409,19.496 -51.155,19.437 -50.997,19.399C-50.839,19.361 -50.586,19.299 -50.427,19.259C-50.269,19.219 -50.016,19.153 -49.858,19.112C-49.7,19.071 -49.446,19.005 -49.288,18.963C-49.13,18.921 -48.877,18.854 -48.718,18.81C-48.56,18.766 -48.307,18.694 -48.149,18.649C-47.991,18.604 -47.737,18.531 -47.579,18.484C-47.421,18.437 -47.168,18.36 -47.01,18.312C-46.851,18.263 -46.598,18.184 -46.44,18.134C-46.282,18.084 -46.028,18.004 -45.87,17.953C-45.712,17.901 -45.459,17.817 -45.301,17.763C-45.142,17.71 -44.889,17.623 -44.731,17.567C-44.573,17.512 -44.319,17.421 -44.161,17.364C-44.003,17.307 -43.75,17.213 -43.592,17.154C-43.434,17.095 -43.18,17 -43.022,16.939C-42.864,16.878 -42.61,16.778 -42.452,16.714C-42.294,16.651 -42.041,16.548 -41.883,16.482C-41.725,16.417 -41.471,16.312 -41.313,16.244C-41.155,16.177 -40.901,16.066 -40.743,15.996C-40.585,15.926 -40.332,15.813 -40.174,15.741C-40.016,15.668 -39.762,15.551 -39.604,15.476C-39.446,15.402 -39.192,15.279 -39.034,15.202C-38.876,15.125 -38.623,14.999 -38.465,14.919C-38.307,14.839 -38.053,14.708 -37.895,14.625C-37.737,14.543 -37.483,14.408 -37.325,14.323C-37.167,14.238 -36.914,14.099 -36.756,14.011C-36.598,13.923 -36.344,13.779 -36.186,13.688C-36.028,13.596 -35.775,13.447 -35.616,13.352C-35.458,13.257 -35.205,13.102 -35.047,13.005C-34.889,12.907 -34.635,12.749 -34.477,12.648C-34.319,12.547 -34.066,12.381 -33.908,12.277C-33.749,12.173 -33.496,12.004 -33.338,11.897C-33.18,11.789 -32.926,11.611 -32.768,11.5C-32.61,11.388 -32.357,11.206 -32.199,11.091C-32.04,10.975 -31.787,10.788 -31.629,10.668C-31.471,10.549 -31.217,10.354 -31.059,10.231C-30.901,10.107 -30.648,9.905 -30.49,9.778C-30.332,9.65 -30.078,9.441 -29.92,9.31C-29.762,9.178 -29.508,8.964 -29.35,8.828C-29.192,8.691 -28.939,8.468 -28.781,8.326C-28.623,8.185 -28.369,7.955 -28.211,7.809C-28.053,7.663 -27.799,7.426 -27.641,7.275C-27.483,7.125 -27.23,6.878 -27.072,6.722C-26.914,6.566 -26.66,6.312 -26.502,6.15C-26.344,5.989 -26.09,5.724 -25.932,5.557C-25.774,5.39 -25.521,5.12 -25.363,4.948C-25.205,4.775 -24.951,4.493 -24.793,4.315C-24.635,4.136 -24.381,3.845 -24.223,3.66C-24.065,3.476 -23.812,3.175 -23.654,2.985C-23.496,2.794 -23.242,2.483 -23.084,2.285C-22.926,2.088 -22.673,1.766 -22.514,1.562C-22.356,1.358 -22.103,1.026 -21.945,0.815C-21.787,0.605 -21.533,0.086 -21.375,0.043C-21.217,0 -20.964,0.337 -20.805,0.506C-20.647,0.676 -20.394,1.058 -20.236,1.264C-20.078,1.471 -19.824,1.797 -19.666,1.997C-19.508,2.197 -19.255,2.512 -19.097,2.706C-18.938,2.899 -18.685,3.204 -18.527,3.391C-18.369,3.578 -18.115,3.872 -17.957,4.053C-17.799,4.234 -17.546,4.52 -17.388,4.695C-17.229,4.87 -16.976,5.145 -16.818,5.314C-16.66,5.483 -16.406,5.751 -16.248,5.914C-16.09,6.078 -15.837,6.335 -15.679,6.493C-15.521,6.651 -15.267,6.9 -15.109,7.053C-14.951,7.206 -14.697,7.448 -14.539,7.596C-14.381,7.744 -14.128,7.978 -13.97,8.121C-13.812,8.264 -13.558,8.489 -13.4,8.627C-13.242,8.765 -12.988,8.982 -12.83,9.116C-12.672,9.25 -12.419,9.461 -12.261,9.591C-12.103,9.72 -11.849,9.924 -11.691,10.049C-11.533,10.174 -11.279,10.372 -11.121,10.493C-10.963,10.614 -10.71,10.804 -10.552,10.921C-10.394,11.038 -10.14,11.223 -9.982,11.336C-9.824,11.45 -9.571,11.629 -9.412,11.738C-9.254,11.848 -9.001,12.02 -8.843,12.126C-8.685,12.232 -8.431,12.399 -8.273,12.502C-8.115,12.604 -7.862,12.764 -7.703,12.863C-7.545,12.962 -7.292,13.117 -7.134,13.213C-6.976,13.309 -6.722,13.46 -6.564,13.553C-6.406,13.646 -6.153,13.792 -5.995,13.881C-5.836,13.971 -5.583,14.112 -5.425,14.198C-5.267,14.285 -5.013,14.422 -4.855,14.505C-4.697,14.589 -4.444,14.719 -4.286,14.8C-4.127,14.881 -3.874,15.01 -3.716,15.089C-3.558,15.167 -3.304,15.289 -3.146,15.365C-2.988,15.441 -2.735,15.561 -2.577,15.635C-2.419,15.708 -2.165,15.823 -2.007,15.894C-1.849,15.965 -1.595,16.076 -1.437,16.145C-1.279,16.214 -1.026,16.322 -0.868,16.388C-0.71,16.454 -0.456,16.558 -0.298,16.622C-0.14,16.686 0.114,16.787 0.272,16.849C0.43,16.911 0.683,17.008 0.841,17.068C0.999,17.128 1.253,17.224 1.411,17.281C1.569,17.339 1.823,17.429 1.981,17.485C2.139,17.54 2.392,17.628 2.55,17.683C2.708,17.737 2.962,17.824 3.12,17.877C3.278,17.929 3.531,18.01 3.69,18.061C3.848,18.111 4.101,18.191 4.259,18.24C4.417,18.289 4.671,18.368 4.829,18.415C4.987,18.463 5.24,18.538 5.398,18.583C5.557,18.629 5.81,18.699 5.968,18.744C6.126,18.788 6.38,18.859 6.538,18.902C6.696,18.945 6.949,19.012 7.107,19.053C7.266,19.094 7.519,19.16 7.677,19.2C7.835,19.24 8.089,19.303 8.247,19.341C8.405,19.38 8.658,19.441 8.816,19.479C8.974,19.516 9.228,19.577 9.386,19.613C9.544,19.649 9.798,19.706 9.956,19.741C10.114,19.776 10.367,19.832 10.525,19.866C10.683,19.9 10.937,19.951 11.095,19.984C11.253,20.017 11.507,20.07 11.665,20.102C11.823,20.134 12.076,20.183 12.234,20.213C12.392,20.244 12.646,20.293 12.804,20.322C12.962,20.351 13.216,20.397 13.374,20.426C13.532,20.454 13.785,20.5 13.943,20.527C14.101,20.555 14.355,20.6 14.513,20.627C14.671,20.654 14.925,20.695 15.083,20.721C15.241,20.747 15.494,20.788 15.652,20.813C15.81,20.839 16.064,20.879 16.222,20.903C16.38,20.928 16.633,20.965 16.792,20.988C16.95,21.011 17.203,21.048 17.361,21.071C17.519,21.094 17.773,21.13 17.931,21.152C18.089,21.174 18.342,21.208 18.501,21.229C18.659,21.251 18.912,21.285 19.07,21.305C19.228,21.326 19.482,21.359 19.64,21.378C19.798,21.398 20.051,21.428 20.209,21.447C20.368,21.466 20.621,21.497 20.779,21.515C20.937,21.534 21.191,21.563 21.349,21.581C21.507,21.599 21.76,21.628 21.918,21.645C22.076,21.663 22.33,21.69 22.488,21.707C22.646,21.723 22.9,21.75 23.058,21.766C23.216,21.782 23.469,21.807 23.627,21.822C23.785,21.838 24.039,21.863 24.197,21.879C24.355,21.894 24.609,21.918 24.767,21.933C24.925,21.948 25.178,21.971 25.336,21.985C25.494,21.999 25.748,22.021 25.906,22.035C26.064,22.048 26.318,22.069 26.476,22.082C26.634,22.095 26.887,22.116 27.045,22.13C27.203,22.143 27.457,22.164 27.615,22.177C27.773,22.189 28.027,22.207 28.185,22.219C28.343,22.231 28.596,22.25 28.754,22.262C28.912,22.273 29.166,22.293 29.324,22.304C29.482,22.316 29.735,22.331 29.894,22.342C30.052,22.353 30.305,22.372 30.463,22.383C30.621,22.393 30.875,22.408 31.033,22.418C31.191,22.428 31.444,22.446 31.603,22.456C31.761,22.466 32.014,22.479 32.172,22.489C32.33,22.498 32.584,22.515 32.742,22.524C32.9,22.533 33.153,22.546 33.311,22.555C33.47,22.564 33.723,22.579 33.881,22.588C34.039,22.597 34.293,22.61 34.451,22.618C34.609,22.627 34.862,22.639 35.02,22.647C35.179,22.655 35.432,22.668 35.59,22.675C35.748,22.683 36.002,22.696 36.16,22.704C36.318,22.711 36.571,22.722 36.729,22.73C36.887,22.737 37.141,22.749 37.299,22.755C37.457,22.762 37.711,22.772 37.869,22.779C38.027,22.786 38.28,22.799 38.438,22.805C38.596,22.812 38.85,22.82 39.008,22.826C39.166,22.833 39.42,22.844 39.578,22.85C39.736,22.856 39.989,22.865 40.147,22.871C40.305,22.877 40.559,22.887 40.717,22.893C40.875,22.899 41.129,22.909 41.287,22.914C41.445,22.92 41.698,22.928 41.856,22.933C42.014,22.938 42.268,22.947 42.426,22.952C42.584,22.957 42.838,22.966 42.996,22.971C43.154,22.976 43.407,22.982 43.565,22.987C43.723,22.992 43.977,23.001 44.135,23.006C44.293,23.011 44.546,23.018 44.705,23.023C44.863,23.027 45.116,23.035 45.274,23.039C45.432,23.043 45.686,23.049 45.844,23.053C46.002,23.057 46.255,23.063 46.413,23.068C46.572,23.072 46.825,23.08 46.983,23.084C47.141,23.088 47.395,23.095 47.553,23.098C47.711,23.102 47.964,23.107 48.122,23.11C48.281,23.114 48.534,23.121 48.692,23.124C48.85,23.128 49.104,23.133 49.262,23.136C49.42,23.14 49.673,23.147 49.831,23.15C49.989,23.154 50.243,23.159 50.401,23.162C50.559,23.165 50.813,23.169 50.971,23.172C51.129,23.174 51.382,23.18 51.54,23.183C51.698,23.187 51.952,23.192 52.11,23.195C52.268,23.198 52.522,23.202 52.68,23.204C52.838,23.207 53.091,23.211 53.249,23.214C53.407,23.217 53.661,23.221 53.819,23.223C53.977,23.226 54.231,23.23 54.389,23.233C54.547,23.236 54.8,23.24 54.958,23.243C55.116,23.245 55.37,23.249 55.528,23.252C55.686,23.255 55.94,23.259 56.098,23.261C56.256,23.263 56.667,23.268 56.667,23.268L56.694,23.509L-56.694,23.509L-56.694,20.568Z" style="fill:rgb(255,127,14);fill-opacity:0.4;fill-rule:nonzero;"/>
    </g>
    <g transform="matrix(1,0,0,1,65.595,29.6679)">
        <path d="M-56.694,12.674C-56.694,12.674 -56.282,12.653 -56.124,12.644C-55.966,12.636 -55.712,12.622 -55.554,12.613C-55.396,12.605 -55.143,12.591 -54.985,12.582C-54.827,12.573 -54.573,12.559 -54.415,12.55C-54.257,12.54 -54.003,12.526 -53.845,12.517C-53.687,12.507 -53.434,12.492 -53.276,12.482C-53.118,12.473 -52.864,12.458 -52.706,12.449C-52.548,12.439 -52.294,12.424 -52.136,12.415C-51.978,12.405 -51.725,12.389 -51.567,12.379C-51.409,12.369 -51.155,12.353 -50.997,12.342C-50.839,12.332 -50.586,12.316 -50.427,12.306C-50.269,12.295 -50.016,12.278 -49.858,12.267C-49.7,12.257 -49.446,12.24 -49.288,12.229C-49.13,12.218 -48.877,12.2 -48.718,12.189C-48.56,12.178 -48.307,12.161 -48.149,12.149C-47.991,12.138 -47.737,12.12 -47.579,12.108C-47.421,12.097 -47.168,12.078 -47.01,12.066C-46.851,12.054 -46.598,12.035 -46.44,12.023C-46.282,12.011 -46.028,11.992 -45.87,11.979C-45.712,11.967 -45.459,11.948 -45.301,11.935C-45.142,11.923 -44.889,11.903 -44.731,11.89C-44.573,11.877 -44.319,11.856 -44.161,11.843C-44.003,11.83 -43.75,11.81 -43.592,11.797C-43.434,11.783 -43.18,11.762 -43.022,11.749C-42.864,11.735 -42.61,11.714 -42.452,11.7C-42.294,11.686 -42.041,11.663 -41.883,11.649C-41.725,11.635 -41.471,11.612 -41.313,11.598C-41.155,11.584 -40.901,11.56 -40.743,11.546C-40.585,11.531 -40.332,11.508 -40.174,11.493C-40.016,11.478 -39.762,11.453 -39.604,11.438C-39.446,11.423 -39.192,11.398 -39.034,11.383C-38.876,11.367 -38.623,11.342 -38.465,11.326C-38.307,11.31 -38.053,11.285 -37.895,11.269C-37.737,11.253 -37.483,11.226 -37.325,11.21C-37.167,11.193 -36.914,11.167 -36.756,11.15C-36.598,11.134 -36.344,11.107 -36.186,11.089C-36.028,11.072 -35.775,11.043 -35.616,11.025C-35.458,11.008 -35.205,10.979 -35.047,10.962C-34.889,10.944 -34.635,10.916 -34.477,10.898C-34.319,10.88 -34.066,10.85 -33.908,10.831C-33.749,10.812 -33.496,10.782 -33.338,10.763C-33.18,10.744 -32.926,10.713 -32.768,10.694C-32.61,10.674 -32.357,10.642 -32.199,10.623C-32.04,10.603 -31.787,10.572 -31.629,10.552C-31.471,10.532 -31.217,10.499 -31.059,10.478C-30.901,10.457 -30.648,10.424 -30.49,10.403C-30.332,10.382 -30.078,10.348 -29.92,10.326C-29.762,10.305 -29.508,10.27 -29.35,10.248C-29.192,10.227 -28.939,10.191 -28.781,10.169C-28.623,10.147 -28.369,10.111 -28.211,10.088C-28.053,10.066 -27.799,10.028 -27.641,10.005C-27.483,9.981 -27.23,9.943 -27.072,9.92C-26.914,9.896 -26.66,9.859 -26.502,9.835C-26.344,9.811 -26.09,9.772 -25.932,9.747C-25.774,9.722 -25.521,9.681 -25.363,9.656C-25.205,9.631 -24.951,9.591 -24.793,9.565C-24.635,9.539 -24.381,9.498 -24.223,9.472C-24.065,9.445 -23.812,9.402 -23.654,9.375C-23.496,9.348 -23.242,9.306 -23.084,9.279C-22.926,9.252 -22.673,9.208 -22.514,9.18C-22.356,9.152 -22.103,9.106 -21.945,9.078C-21.787,9.049 -21.533,9.003 -21.375,8.974C-21.217,8.945 -20.964,8.899 -20.805,8.869C-20.647,8.84 -20.394,8.791 -20.236,8.761C-20.078,8.731 -19.824,8.683 -19.666,8.652C-19.508,8.621 -19.255,8.571 -19.097,8.54C-18.938,8.508 -18.685,8.457 -18.527,8.425C-18.369,8.393 -18.115,8.342 -17.957,8.309C-17.799,8.276 -17.546,8.223 -17.388,8.19C-17.229,8.157 -16.976,8.102 -16.818,8.068C-16.66,8.034 -16.406,7.979 -16.248,7.945C-16.09,7.91 -15.837,7.854 -15.679,7.818C-15.521,7.783 -15.267,7.726 -15.109,7.69C-14.951,7.653 -14.697,7.594 -14.539,7.558C-14.381,7.521 -14.128,7.462 -13.97,7.424C-13.812,7.387 -13.558,7.325 -13.4,7.287C-13.242,7.248 -12.988,7.186 -12.83,7.147C-12.672,7.108 -12.419,7.045 -12.261,7.005C-12.103,6.965 -11.849,6.899 -11.691,6.859C-11.533,6.818 -11.279,6.753 -11.121,6.711C-10.963,6.67 -10.71,6.602 -10.552,6.56C-10.394,6.517 -10.14,6.448 -9.982,6.405C-9.824,6.362 -9.571,6.292 -9.412,6.248C-9.254,6.204 -9.001,6.131 -8.843,6.086C-8.685,6.041 -8.431,5.969 -8.273,5.923C-8.115,5.877 -7.862,5.803 -7.703,5.756C-7.545,5.709 -7.292,5.632 -7.134,5.584C-6.976,5.536 -6.722,5.459 -6.564,5.41C-6.406,5.361 -6.153,5.283 -5.995,5.233C-5.836,5.183 -5.583,5.102 -5.425,5.051C-5.267,5 -5.013,4.917 -4.855,4.866C-4.697,4.814 -4.444,4.73 -4.286,4.677C-4.127,4.624 -3.874,4.538 -3.716,4.484C-3.558,4.43 -3.304,4.342 -3.146,4.287C-2.988,4.232 -2.735,4.143 -2.577,4.087C-2.419,4.031 -2.165,3.941 -2.007,3.883C-1.849,3.826 -1.595,3.732 -1.437,3.673C-1.279,3.614 -1.026,3.52 -0.868,3.461C-0.71,3.401 -0.456,3.304 -0.298,3.244C-0.14,3.183 0.114,3.083 0.272,3.021C0.43,2.959 0.683,2.859 0.841,2.796C0.999,2.732 1.253,2.629 1.411,2.564C1.569,2.5 1.823,2.395 1.981,2.329C2.139,2.263 2.392,2.156 2.55,2.088C2.708,2.021 2.962,1.912 3.12,1.843C3.278,1.774 3.531,1.663 3.69,1.593C3.848,1.523 4.101,1.41 4.259,1.338C4.417,1.267 4.671,1.15 4.829,1.077C4.987,1.004 5.24,0.887 5.398,0.812C5.557,0.738 5.81,0.616 5.968,0.54C6.126,0.464 6.38,0.338 6.538,0.264C6.696,0.189 6.949,0 7.107,0.003C7.266,0.006 7.519,0.208 7.677,0.285C7.835,0.362 8.089,0.484 8.247,0.56C8.405,0.636 8.658,0.756 8.816,0.831C8.974,0.905 9.228,1.023 9.386,1.096C9.544,1.169 9.798,1.285 9.956,1.357C10.114,1.428 10.367,1.542 10.525,1.612C10.683,1.682 10.937,1.793 11.095,1.862C11.253,1.93 11.507,2.04 11.665,2.107C11.823,2.174 12.076,2.281 12.234,2.346C12.392,2.412 12.646,2.517 12.804,2.582C12.962,2.646 13.216,2.748 13.374,2.811C13.532,2.875 13.785,2.976 13.943,3.038C14.101,3.1 14.355,3.198 14.513,3.259C14.671,3.32 14.925,3.417 15.083,3.476C15.241,3.536 15.494,3.631 15.652,3.689C15.81,3.747 16.064,3.84 16.222,3.897C16.38,3.954 16.633,4.045 16.792,4.101C16.95,4.157 17.203,4.248 17.361,4.303C17.519,4.358 17.773,4.444 17.931,4.498C18.089,4.552 18.342,4.638 18.501,4.691C18.659,4.744 18.912,4.828 19.07,4.88C19.228,4.932 19.482,5.013 19.64,5.064C19.798,5.115 20.051,5.196 20.209,5.245C20.368,5.295 20.621,5.374 20.779,5.423C20.937,5.471 21.191,5.549 21.349,5.597C21.507,5.645 21.76,5.72 21.918,5.767C22.076,5.814 22.33,5.888 22.488,5.934C22.646,5.98 22.9,6.054 23.058,6.099C23.216,6.144 23.469,6.215 23.627,6.259C23.785,6.303 24.039,6.373 24.197,6.417C24.355,6.46 24.609,6.529 24.767,6.571C24.925,6.613 25.178,6.68 25.336,6.721C25.494,6.763 25.748,6.829 25.906,6.87C26.064,6.911 26.318,6.975 26.476,7.015C26.634,7.055 26.887,7.119 27.045,7.158C27.203,7.197 27.457,7.258 27.615,7.297C27.773,7.335 28.027,7.397 28.185,7.434C28.343,7.472 28.596,7.531 28.754,7.568C28.912,7.604 29.166,7.663 29.324,7.7C29.482,7.736 29.735,7.793 29.894,7.828C30.052,7.864 30.305,7.919 30.463,7.953C30.621,7.988 30.875,8.044 31.033,8.078C31.191,8.112 31.444,8.165 31.603,8.199C31.761,8.232 32.014,8.285 32.172,8.318C32.33,8.35 32.584,8.402 32.742,8.434C32.9,8.466 33.153,8.517 33.311,8.549C33.47,8.58 33.723,8.629 33.881,8.659C34.039,8.69 34.293,8.74 34.451,8.77C34.609,8.8 34.862,8.846 35.02,8.876C35.179,8.906 35.432,8.953 35.59,8.982C35.748,9.012 36.002,9.057 36.16,9.086C36.318,9.114 36.571,9.159 36.729,9.187C36.887,9.214 37.141,9.259 37.299,9.286C37.457,9.313 37.711,9.355 37.869,9.382C38.027,9.409 38.28,9.452 38.438,9.479C38.596,9.505 38.85,9.545 39.008,9.571C39.166,9.596 39.42,9.638 39.578,9.663C39.736,9.688 39.989,9.728 40.147,9.752C40.305,9.777 40.559,9.816 40.717,9.84C40.875,9.864 41.129,9.903 41.287,9.927C41.445,9.95 41.698,9.987 41.856,10.01C42.014,10.033 42.268,10.071 42.426,10.094C42.584,10.117 42.838,10.153 42.996,10.175C43.154,10.197 43.407,10.232 43.565,10.254C43.723,10.276 43.977,10.311 44.135,10.332C44.293,10.353 44.546,10.387 44.705,10.408C44.863,10.43 45.116,10.463 45.274,10.484C45.432,10.504 45.686,10.536 45.844,10.556C46.002,10.576 46.255,10.608 46.413,10.628C46.572,10.648 46.825,10.68 46.983,10.699C47.141,10.718 47.395,10.749 47.553,10.767C47.711,10.786 47.964,10.817 48.122,10.835C48.281,10.854 48.534,10.884 48.692,10.902C48.85,10.92 49.104,10.949 49.262,10.967C49.42,10.985 49.673,11.013 49.831,11.031C49.989,11.048 50.243,11.076 50.401,11.093C50.559,11.11 50.813,11.137 50.971,11.154C51.129,11.171 51.382,11.197 51.54,11.214C51.698,11.23 51.952,11.257 52.11,11.274C52.268,11.29 52.522,11.315 52.68,11.33C52.838,11.346 53.091,11.371 53.249,11.387C53.407,11.402 53.661,11.427 53.819,11.442C53.977,11.457 54.231,11.481 54.389,11.496C54.547,11.511 54.8,11.535 54.958,11.55C55.116,11.565 55.37,11.588 55.528,11.602C55.686,11.617 55.94,11.639 56.098,11.653C56.256,11.667 56.667,11.703 56.667,11.703L56.694,14.168L-56.694,14.168L-56.694,12.674Z" style="fill:rgb(23,190,207);fill-opacity:0.4;fill-rule:nonzero;"/>
    </g>
    <g transform="matrix(1,0,0,1,65.595,24.3729)">
        <path d="M-56.694,18.151C-56.694,18.151 -56.282,18.12 -56.124,18.108C-55.966,18.095 -55.712,18.075 -55.554,18.063C-55.396,18.05 -55.143,18.031 -54.985,18.018C-54.827,18.005 -54.573,17.983 -54.415,17.969C-54.257,17.956 -54.003,17.934 -53.845,17.92C-53.687,17.906 -53.434,17.883 -53.276,17.868C-53.118,17.854 -52.864,17.831 -52.706,17.816C-52.548,17.802 -52.294,17.777 -52.136,17.762C-51.978,17.747 -51.725,17.722 -51.567,17.706C-51.409,17.69 -51.155,17.663 -50.997,17.647C-50.839,17.63 -50.586,17.603 -50.427,17.586C-50.269,17.569 -50.016,17.541 -49.858,17.524C-49.7,17.506 -49.446,17.477 -49.288,17.459C-49.13,17.441 -48.877,17.41 -48.718,17.391C-48.56,17.372 -48.307,17.341 -48.149,17.322C-47.991,17.302 -47.737,17.269 -47.579,17.249C-47.421,17.229 -47.168,17.196 -47.01,17.175C-46.851,17.154 -46.598,17.119 -46.44,17.098C-46.282,17.076 -46.028,17.04 -45.87,17.018C-45.712,16.995 -45.459,16.958 -45.301,16.934C-45.142,16.911 -44.889,16.873 -44.731,16.849C-44.573,16.824 -44.319,16.784 -44.161,16.759C-44.003,16.734 -43.75,16.693 -43.592,16.667C-43.434,16.641 -43.18,16.598 -43.022,16.571C-42.864,16.544 -42.61,16.5 -42.452,16.472C-42.294,16.444 -42.041,16.399 -41.883,16.37C-41.725,16.341 -41.471,16.293 -41.313,16.263C-41.155,16.233 -40.901,16.184 -40.743,16.153C-40.585,16.122 -40.332,16.072 -40.174,16.04C-40.016,16.007 -39.762,15.954 -39.604,15.921C-39.446,15.887 -39.192,15.833 -39.034,15.798C-38.876,15.764 -38.623,15.707 -38.465,15.671C-38.307,15.635 -38.053,15.576 -37.895,15.539C-37.737,15.501 -37.483,15.441 -37.325,15.402C-37.167,15.363 -36.914,15.301 -36.756,15.261C-36.598,15.221 -36.344,15.155 -36.186,15.113C-36.028,15.072 -35.775,15.004 -35.616,14.961C-35.458,14.918 -35.205,14.848 -35.047,14.803C-34.889,14.758 -34.635,14.685 -34.477,14.639C-34.319,14.593 -34.066,14.517 -33.908,14.469C-33.749,14.421 -33.496,14.343 -33.338,14.293C-33.18,14.244 -32.926,14.163 -32.768,14.111C-32.61,14.059 -32.357,13.975 -32.199,13.921C-32.04,13.867 -31.787,13.779 -31.629,13.724C-31.471,13.668 -31.217,13.578 -31.059,13.52C-30.901,13.462 -30.648,13.368 -30.49,13.308C-30.332,13.249 -30.078,13.15 -29.92,13.088C-29.762,13.026 -29.508,12.926 -29.35,12.862C-29.192,12.797 -28.939,12.692 -28.781,12.625C-28.623,12.558 -28.369,12.448 -28.211,12.379C-28.053,12.31 -27.799,12.196 -27.641,12.124C-27.483,12.052 -27.23,11.934 -27.072,11.86C-26.914,11.785 -26.66,11.663 -26.502,11.585C-26.344,11.508 -26.09,11.381 -25.932,11.301C-25.774,11.22 -25.521,11.088 -25.363,11.004C-25.205,10.92 -24.951,10.784 -24.793,10.697C-24.635,10.61 -24.381,10.469 -24.223,10.378C-24.065,10.288 -23.812,10.141 -23.654,10.048C-23.496,9.954 -23.242,9.802 -23.084,9.705C-22.926,9.607 -22.673,9.448 -22.514,9.347C-22.356,9.246 -22.103,9.081 -21.945,8.976C-21.787,8.871 -21.533,8.665 -21.375,8.591C-21.217,8.517 -20.964,8.477 -20.805,8.443C-20.647,8.409 -20.394,8.375 -20.236,8.346C-20.078,8.317 -19.824,8.265 -19.666,8.231C-19.508,8.197 -19.255,8.14 -19.097,8.101C-18.938,8.063 -18.685,7.998 -18.527,7.955C-18.369,7.912 -18.115,7.841 -17.957,7.793C-17.799,7.746 -17.546,7.666 -17.388,7.614C-17.229,7.562 -16.976,7.474 -16.818,7.417C-16.66,7.36 -16.406,7.265 -16.248,7.203C-16.09,7.141 -15.837,7.037 -15.679,6.97C-15.521,6.903 -15.267,6.792 -15.109,6.72C-14.951,6.648 -14.697,6.527 -14.539,6.449C-14.381,6.371 -14.128,6.242 -13.97,6.159C-13.812,6.075 -13.558,5.937 -13.4,5.848C-13.242,5.758 -12.988,5.611 -12.83,5.516C-12.672,5.421 -12.419,5.263 -12.261,5.162C-12.103,5.061 -11.849,4.894 -11.691,4.787C-11.533,4.679 -11.279,4.502 -11.121,4.388C-10.963,4.274 -10.71,4.085 -10.552,3.964C-10.394,3.842 -10.14,3.644 -9.982,3.516C-9.824,3.388 -9.571,3.178 -9.412,3.042C-9.254,2.907 -9.001,2.683 -8.843,2.54C-8.685,2.398 -8.431,2.163 -8.273,2.012C-8.115,1.862 -7.862,1.613 -7.703,1.454C-7.545,1.295 -7.292,0.943 -7.134,0.866C-6.976,0.789 -6.722,0.887 -6.564,0.901C-6.406,0.914 -6.153,0.931 -5.995,0.963C-5.836,0.996 -5.583,1.065 -5.425,1.133C-5.267,1.2 -5.013,1.367 -4.855,1.451C-4.697,1.536 -4.444,1.665 -4.286,1.741C-4.127,1.818 -3.874,1.934 -3.716,2.002C-3.558,2.071 -3.304,2.175 -3.146,2.237C-2.988,2.298 -2.735,2.391 -2.577,2.444C-2.419,2.498 -2.165,2.578 -2.007,2.624C-1.849,2.67 -1.595,2.739 -1.437,2.778C-1.279,2.817 -1.026,2.874 -0.868,2.906C-0.71,2.938 -0.456,2.953 -0.298,3.008C-0.14,3.063 0.114,3.193 0.272,3.304C0.43,3.416 0.683,3.676 0.841,3.814C0.999,3.952 1.253,4.167 1.411,4.299C1.569,4.43 1.823,4.636 1.981,4.762C2.139,4.887 2.392,5.083 2.55,5.203C2.708,5.322 2.962,5.509 3.12,5.623C3.278,5.737 3.531,5.915 3.69,6.023C3.848,6.132 4.101,6.301 4.259,6.404C4.417,6.508 4.671,6.669 4.829,6.768C4.987,6.866 5.24,7.02 5.398,7.113C5.557,7.206 5.81,7.351 5.968,7.439C6.126,7.527 6.38,7.666 6.538,7.75C6.696,7.835 6.949,7.954 7.107,8.051C7.266,8.147 7.519,8.337 7.677,8.444C7.835,8.551 8.089,8.72 8.247,8.823C8.405,8.926 8.658,9.089 8.816,9.188C8.974,9.287 9.228,9.443 9.386,9.539C9.544,9.635 9.798,9.785 9.956,9.878C10.114,9.97 10.367,10.115 10.525,10.204C10.683,10.293 10.937,10.432 11.095,10.518C11.253,10.603 11.507,10.738 11.665,10.82C11.823,10.902 12.076,11.032 12.234,11.111C12.392,11.19 12.646,11.315 12.804,11.391C12.962,11.467 13.216,11.588 13.374,11.661C13.532,11.735 13.785,11.851 13.943,11.922C14.101,11.993 14.355,12.105 14.513,12.173C14.671,12.241 14.925,12.349 15.083,12.415C15.241,12.481 15.494,12.585 15.652,12.648C15.81,12.712 16.064,12.811 16.222,12.873C16.38,12.934 16.633,13.03 16.792,13.089C16.95,13.148 17.203,13.242 17.361,13.299C17.519,13.355 17.773,13.445 17.931,13.5C18.089,13.555 18.342,13.641 18.501,13.694C18.659,13.747 18.912,13.831 19.07,13.882C19.228,13.933 19.482,14.012 19.64,14.062C19.798,14.111 20.051,14.188 20.209,14.235C20.368,14.283 20.621,14.358 20.779,14.404C20.937,14.45 21.191,14.521 21.349,14.565C21.507,14.61 21.76,14.679 21.918,14.722C22.076,14.765 22.33,14.832 22.488,14.873C22.646,14.914 22.9,14.98 23.058,15.02C23.216,15.059 23.469,15.121 23.627,15.159C23.785,15.197 24.039,15.258 24.197,15.295C24.355,15.332 24.609,15.391 24.767,15.426C24.925,15.462 25.178,15.518 25.336,15.552C25.494,15.587 25.748,15.642 25.906,15.675C26.064,15.708 26.318,15.76 26.476,15.792C26.634,15.824 26.887,15.876 27.045,15.907C27.203,15.938 27.457,15.987 27.615,16.017C27.773,16.047 28.027,16.094 28.185,16.123C28.343,16.152 28.596,16.198 28.754,16.226C28.912,16.254 29.166,16.298 29.324,16.325C29.482,16.352 29.735,16.394 29.894,16.42C30.052,16.446 30.305,16.488 30.463,16.513C30.621,16.539 30.875,16.579 31.033,16.603C31.191,16.628 31.444,16.666 31.603,16.689C31.761,16.713 32.014,16.75 32.172,16.772C32.33,16.795 32.584,16.831 32.742,16.853C32.9,16.875 33.153,16.91 33.311,16.931C33.47,16.952 33.723,16.986 33.881,17.007C34.039,17.028 34.293,17.06 34.451,17.08C34.609,17.1 34.862,17.131 35.02,17.151C35.179,17.17 35.432,17.201 35.59,17.22C35.748,17.238 36.002,17.268 36.16,17.286C36.318,17.304 36.571,17.331 36.729,17.349C36.887,17.366 37.141,17.394 37.299,17.411C37.457,17.428 37.711,17.454 37.869,17.47C38.027,17.487 38.28,17.513 38.438,17.529C38.596,17.545 38.85,17.57 39.008,17.585C39.166,17.6 39.42,17.624 39.578,17.639C39.736,17.653 39.989,17.677 40.147,17.691C40.305,17.706 40.559,17.729 40.717,17.742C40.875,17.756 41.129,17.778 41.287,17.791C41.445,17.805 41.698,17.826 41.856,17.839C42.014,17.852 42.268,17.873 42.426,17.886C42.584,17.898 42.838,17.918 42.996,17.931C43.154,17.943 43.407,17.962 43.565,17.973C43.723,17.985 43.977,18.004 44.135,18.015C44.293,18.027 44.546,18.045 44.705,18.056C44.863,18.068 45.116,18.085 45.274,18.095C45.432,18.106 45.686,18.123 45.844,18.133C46.002,18.143 46.255,18.16 46.413,18.17C46.572,18.18 46.825,18.197 46.983,18.207C47.141,18.216 47.395,18.231 47.553,18.24C47.711,18.25 47.964,18.265 48.122,18.274C48.281,18.284 48.534,18.298 48.692,18.307C48.85,18.316 49.104,18.33 49.262,18.339C49.42,18.348 49.673,18.361 49.831,18.37C49.989,18.378 50.243,18.391 50.401,18.399C50.559,18.408 50.813,18.42 50.971,18.428C51.129,18.436 51.382,18.448 51.54,18.456C51.698,18.464 51.952,18.476 52.11,18.483C52.268,18.491 52.522,18.502 52.68,18.509C52.838,18.517 53.091,18.528 53.249,18.535C53.407,18.542 53.661,18.553 53.819,18.56C53.977,18.567 54.231,18.577 54.389,18.584C54.547,18.59 54.8,18.6 54.958,18.607C55.116,18.613 55.37,18.624 55.528,18.63C55.686,18.637 55.94,18.646 56.098,18.652C56.256,18.658 56.667,18.674 56.667,18.674" style="fill:none;fill-rule:nonzero;stroke:black;stroke-width:0.8px;"/>
    </g>
    <g transform="matrix(1,0,0,1,65.595,25.1623)">
        <path d="M-56.694,17.361C-56.694,17.361 -56.282,17.33 -56.124,17.318C-55.966,17.306 -55.712,17.286 -55.554,17.274C-55.396,17.261 -55.143,17.241 -54.985,17.228C-54.827,17.215 -54.573,17.193 -54.415,17.18C-54.257,17.166 -54.003,17.145 -53.845,17.131C-53.687,17.117 -53.434,17.093 -53.276,17.079C-53.118,17.065 -52.864,17.042 -52.706,17.027C-52.548,17.012 -52.294,16.988 -52.136,16.973C-51.978,16.957 -51.725,16.932 -51.567,16.916C-51.409,16.9 -51.155,16.874 -50.997,16.857C-50.839,16.841 -50.586,16.814 -50.427,16.797C-50.269,16.78 -50.016,16.752 -49.858,16.734C-49.7,16.717 -49.446,16.688 -49.288,16.67C-49.13,16.651 -48.877,16.621 -48.718,16.602C-48.56,16.583 -48.307,16.552 -48.149,16.532C-47.991,16.512 -47.737,16.48 -47.579,16.46C-47.421,16.439 -47.168,16.407 -47.01,16.386C-46.851,16.365 -46.598,16.33 -46.44,16.308C-46.282,16.286 -46.028,16.251 -45.87,16.228C-45.712,16.206 -45.459,16.169 -45.301,16.145C-45.142,16.122 -44.889,16.084 -44.731,16.059C-44.573,16.035 -44.319,15.995 -44.161,15.969C-44.003,15.944 -43.75,15.903 -43.592,15.877C-43.434,15.851 -43.18,15.809 -43.022,15.782C-42.864,15.755 -42.61,15.711 -42.452,15.683C-42.294,15.655 -42.041,15.61 -41.883,15.581C-41.725,15.552 -41.471,15.504 -41.313,15.474C-41.155,15.444 -40.901,15.395 -40.743,15.364C-40.585,15.333 -40.332,15.282 -40.174,15.25C-40.016,15.218 -39.762,15.165 -39.604,15.131C-39.446,15.098 -39.192,15.043 -39.034,15.009C-38.876,14.974 -38.623,14.918 -38.465,14.882C-38.307,14.846 -38.053,14.787 -37.895,14.749C-37.737,14.712 -37.483,14.651 -37.325,14.613C-37.167,14.574 -36.914,14.511 -36.756,14.471C-36.598,14.431 -36.344,14.366 -36.186,14.324C-36.028,14.283 -35.775,14.215 -35.616,14.171C-35.458,14.128 -35.205,14.058 -35.047,14.014C-34.889,13.969 -34.635,13.896 -34.477,13.85C-34.319,13.803 -34.066,13.728 -33.908,13.68C-33.749,13.632 -33.496,13.554 -33.338,13.504C-33.18,13.454 -32.926,13.373 -32.768,13.321C-32.61,13.27 -32.357,13.185 -32.199,13.132C-32.04,13.078 -31.787,12.99 -31.629,12.934C-31.471,12.879 -31.217,12.788 -31.059,12.731C-30.901,12.673 -30.648,12.579 -30.49,12.519C-30.332,12.459 -30.078,12.361 -29.92,12.299C-29.762,12.237 -29.508,12.137 -29.35,12.072C-29.192,12.008 -28.939,11.902 -28.781,11.835C-28.623,11.768 -28.369,11.659 -28.211,11.59C-28.053,11.52 -27.799,11.407 -27.641,11.335C-27.483,11.263 -27.23,11.145 -27.072,11.07C-26.914,10.995 -26.66,10.873 -26.502,10.796C-26.344,10.718 -26.09,10.592 -25.932,10.511C-25.774,10.431 -25.521,10.298 -25.363,10.215C-25.205,10.131 -24.951,9.995 -24.793,9.908C-24.635,9.821 -24.381,9.679 -24.223,9.589C-24.065,9.499 -23.812,9.352 -23.654,9.258C-23.496,9.165 -23.242,9.012 -23.084,8.915C-22.926,8.818 -22.673,8.659 -22.514,8.558C-22.356,8.457 -22.103,8.291 -21.945,8.186C-21.787,8.081 -21.533,7.875 -21.375,7.801C-21.217,7.728 -20.964,7.688 -20.805,7.654C-20.647,7.62 -20.394,7.586 -20.236,7.557C-20.078,7.527 -19.824,7.476 -19.666,7.442C-19.508,7.408 -19.255,7.35 -19.097,7.312C-18.938,7.273 -18.685,7.208 -18.527,7.166C-18.369,7.123 -18.115,7.051 -17.957,7.004C-17.799,6.956 -17.546,6.876 -17.388,6.824C-17.229,6.772 -16.976,6.685 -16.818,6.628C-16.66,6.571 -16.406,6.476 -16.248,6.414C-16.09,6.352 -15.837,6.248 -15.679,6.181C-15.521,6.114 -15.267,6.003 -15.109,5.931C-14.951,5.858 -14.697,5.737 -14.539,5.66C-14.381,5.582 -14.128,5.453 -13.97,5.369C-13.812,5.286 -13.558,5.147 -13.4,5.058C-13.242,4.969 -12.988,4.822 -12.83,4.727C-12.672,4.631 -12.419,4.474 -12.261,4.373C-12.103,4.272 -11.849,4.105 -11.691,3.997C-11.533,3.89 -11.279,3.713 -11.121,3.599C-10.963,3.485 -10.71,3.295 -10.552,3.174C-10.394,3.053 -10.14,2.854 -9.982,2.726C-9.824,2.599 -9.571,2.388 -9.412,2.253C-9.254,2.118 -9.001,1.894 -8.843,1.751C-8.685,1.608 -8.431,1.374 -8.273,1.223C-8.115,1.072 -7.862,0.824 -7.703,0.665C-7.545,0.506 -7.292,0.154 -7.134,0.077C-6.976,0 -6.722,0.098 -6.564,0.111C-6.406,0.125 -6.153,0.142 -5.995,0.174C-5.836,0.206 -5.583,0.276 -5.425,0.343C-5.267,0.411 -5.013,0.578 -4.855,0.662C-4.697,0.746 -4.444,0.875 -4.286,0.952C-4.127,1.028 -3.874,1.144 -3.716,1.213C-3.558,1.282 -3.304,1.386 -3.146,1.447C-2.988,1.509 -2.735,1.601 -2.577,1.655C-2.419,1.709 -2.165,1.788 -2.007,1.835C-1.849,1.881 -1.595,1.949 -1.437,1.989C-1.279,2.028 -1.026,2.085 -0.868,2.117C-0.71,2.149 -0.456,2.163 -0.298,2.219C-0.14,2.274 0.114,2.403 0.272,2.515C0.43,2.627 0.683,2.887 0.841,3.024C0.999,3.162 1.253,3.378 1.411,3.509C1.569,3.641 1.823,3.847 1.981,3.972C2.139,4.098 2.392,4.294 2.55,4.413C2.708,4.533 2.962,4.72 3.12,4.834C3.278,4.948 3.531,5.126 3.69,5.234C3.848,5.342 4.101,5.512 4.259,5.615C4.417,5.718 4.671,5.88 4.829,5.978C4.987,6.077 5.24,6.23 5.398,6.323C5.557,6.417 5.81,6.561 5.968,6.65C6.126,6.738 6.38,6.876 6.538,6.961C6.696,7.046 6.949,7.165 7.107,7.261C7.266,7.357 7.519,7.547 7.677,7.654C7.835,7.762 8.089,7.93 8.247,8.034C8.405,8.137 8.658,8.299 8.816,8.399C8.974,8.498 9.228,8.654 9.386,8.75C9.544,8.845 9.798,8.996 9.956,9.088C10.114,9.181 10.367,9.326 10.525,9.415C10.683,9.504 10.937,9.643 11.095,9.728C11.253,9.814 11.507,9.948 11.665,10.031C11.823,10.113 12.076,10.242 12.234,10.321C12.392,10.401 12.646,10.525 12.804,10.602C12.962,10.678 13.216,10.798 13.374,10.872C13.532,10.946 13.785,11.062 13.943,11.133C14.101,11.204 14.355,11.315 14.513,11.384C14.671,11.452 14.925,11.56 15.083,11.626C15.241,11.692 15.494,11.796 15.652,11.859C15.81,11.923 16.064,12.022 16.222,12.083C16.38,12.144 16.633,12.241 16.792,12.3C16.95,12.359 17.203,12.452 17.361,12.509C17.519,12.566 17.773,12.655 17.931,12.71C18.089,12.765 18.342,12.852 18.501,12.905C18.659,12.958 18.912,13.041 19.07,13.092C19.228,13.143 19.482,13.223 19.64,13.272C19.798,13.321 20.051,13.399 20.209,13.446C20.368,13.494 20.621,13.569 20.779,13.615C20.937,13.661 21.191,13.732 21.349,13.776C21.507,13.82 21.76,13.89 21.918,13.933C22.076,13.975 22.33,14.042 22.488,14.084C22.646,14.125 22.9,14.191 23.058,14.23C23.216,14.27 23.469,14.331 23.627,14.37C23.785,14.408 24.039,14.469 24.197,14.506C24.355,14.543 24.609,14.601 24.767,14.637C24.925,14.673 25.178,14.729 25.336,14.763C25.494,14.798 25.748,14.852 25.906,14.886C26.064,14.919 26.318,14.971 26.476,15.003C26.634,15.035 26.887,15.086 27.045,15.117C27.203,15.149 27.457,15.197 27.615,15.227C27.773,15.257 28.027,15.305 28.185,15.334C28.343,15.363 28.596,15.409 28.754,15.437C28.912,15.465 29.166,15.509 29.324,15.536C29.482,15.563 29.735,15.605 29.894,15.631C30.052,15.657 30.305,15.698 30.463,15.724C30.621,15.749 30.875,15.789 31.033,15.814C31.191,15.838 31.444,15.876 31.603,15.9C31.761,15.923 32.014,15.96 32.172,15.983C32.33,16.006 32.584,16.041 32.742,16.063C32.9,16.085 33.153,16.12 33.311,16.142C33.47,16.163 33.723,16.197 33.881,16.218C34.039,16.238 34.293,16.271 34.451,16.29C34.609,16.31 34.862,16.342 35.02,16.361C35.179,16.381 35.432,16.411 35.59,16.43C35.748,16.449 36.002,16.478 36.16,16.496C36.318,16.514 36.571,16.542 36.729,16.559C36.887,16.577 37.141,16.605 37.299,16.622C37.457,16.639 37.711,16.665 37.869,16.681C38.027,16.697 38.28,16.724 38.438,16.739C38.596,16.755 38.85,16.78 39.008,16.796C39.166,16.811 39.42,16.835 39.578,16.849C39.736,16.864 39.989,16.888 40.147,16.902C40.305,16.916 40.559,16.939 40.717,16.953C40.875,16.967 41.129,16.989 41.287,17.002C41.445,17.015 41.698,17.037 41.856,17.05C42.014,17.063 42.268,17.084 42.426,17.096C42.584,17.109 42.838,17.129 42.996,17.141C43.154,17.153 43.407,17.172 43.565,17.184C43.723,17.196 43.977,17.215 44.135,17.226C44.293,17.238 44.546,17.256 44.705,17.267C44.863,17.278 45.116,17.295 45.274,17.306C45.432,17.317 45.686,17.333 45.844,17.344C46.002,17.354 46.255,17.371 46.413,17.381C46.572,17.391 46.825,17.407 46.983,17.417C47.141,17.427 47.395,17.442 47.553,17.451C47.711,17.46 47.964,17.476 48.122,17.485C48.281,17.494 48.534,17.509 48.692,17.518C48.85,17.526 49.104,17.541 49.262,17.55C49.42,17.558 49.673,17.572 49.831,17.58C49.989,17.589 50.243,17.602 50.401,17.61C50.559,17.618 50.813,17.631 50.971,17.639C51.129,17.647 51.382,17.659 51.54,17.667C51.698,17.674 51.952,17.687 52.11,17.694C52.268,17.701 52.522,17.713 52.68,17.72C52.838,17.727 53.091,17.739 53.249,17.746C53.407,17.753 53.661,17.764 53.819,17.771C53.977,17.777 54.231,17.788 54.389,17.794C54.547,17.801 54.8,17.811 54.958,17.817C55.116,17.824 55.37,17.835 55.528,17.841C55.686,17.847 55.94,17.856 56.098,17.862C56.256,17.868 56.667,17.884 56.667,17.884L56.694,18.674L-56.694,18.674L-56.694,17.361Z" style="fill-opacity:0.3;fill-rule:nonzero;"/>
    </g>
    <g transform="matrix(1,0,0,1,65.595,43.836)">
        <path d="M-56.694,0L57.014,0" style="fill:none;fill-rule:nonzero;stroke:rgb(191,191,191);stroke-width:0.8px;"/>
    </g>
    <g transform="matrix(-0.926968,-0.375141,-0.375141,0.926968,126.499,44.6322)">
        <path d="M0.524,-0.647L4.244,-0.647L3.197,1.94L0.524,-0.647Z" style="fill:rgb(191,191,191);fill-rule:nonzero;stroke:rgb(191,191,191);stroke-width:0.8px;"/>
    </g>
</svg>
